<svg version="1.1" xmlns="http://www.w3.org/2000/svg" xmlns:xlink="http://www.w3.org/1999/xlink" width="367" height="943"><defs/><g><g/><g/><g/><g/><g/><g/><g/><g/><g/><g/><g/><g/><g/><g/><g/><g/><g><rect fill="white" stroke="none" x="0" y="0" width="367" height="943"/></g><g/><g><path fill="none" stroke="black" paint-order="fill stroke markers" d=" M 81.67601649999999 87.9650697705 L 81.67601649999999 943.9297226904996" stroke-miterlimit="10" stroke-width="1.3612669416666667" stroke-dasharray="12.565541,5.445067766666667"/><path fill="none" stroke="black" paint-order="fill stroke markers" d=" M 286.18994125462234 87.9650697705 L 286.18994125462234 943.9297226904996" stroke-miterlimit="10" stroke-width="1.3612669416666667" stroke-dasharray="12.565541,5.445067766666667"/></g><g><g><path fill="white" stroke="black" paint-order="fill stroke markers" d=" M 90.987082381 18.867159811499988 A 9.311065881 9.311065881 0 1 1 90.98707772546743 18.857848747170827 M 81.67601649999999 28.17822569249999 L 81.67601649999999 48.10717371849999 M 69.914670124 35.36571514449999 L 93.43736287599998 35.36571514449999 M 81.67601649999999 48.10717371849999 L 69.914670124 66.72930548049999 M 81.67601649999999 48.10717371849999 L 93.43736287599998 66.72930548049999" stroke-miterlimit="10" stroke-width="2.7769845610000004" stroke-dasharray=""/></g><g><text fill="black" stroke="none" font-family="sans-serif" font-size="11pt" font-style="normal" font-weight="normal" text-decoration="normal" x="53.18510692358397" y="83.06450878049999" text-anchor="start" dominant-baseline="alphabetic" xml:space="preserve">Manager</text></g><path fill="none" stroke="none"/><g><path fill="white" stroke="black" paint-order="fill stroke markers" d=" M 253.6571550598035 43.8600208605 L 318.7227274494412 43.8600208605 L 318.7227274494412 87.9650697705 L 253.6571550598035 87.9650697705 L 253.6571550598035 43.8600208605 Z" stroke-miterlimit="10" stroke-width="2.613632528" stroke-dasharray=""/></g><g><g/><text fill="black" stroke="none" font-family="sans-serif" font-size="11pt" font-style="normal" font-weight="normal" text-decoration="normal" x="271.3808506403035" y="71.62986647049999" text-anchor="start" dominant-baseline="alphabetic" xml:space="preserve">Clup</text></g></g><g><path fill="white" stroke="black" paint-order="fill stroke markers" d=" M 73.50841485 223.54725716049998 L 89.84361814999998 223.54725716049998 L 89.84361814999998 898.1911534504995 L 73.50841485 898.1911534504995 L 73.50841485 223.54725716049998" stroke-miterlimit="10" stroke-width="1.3612669416666667" stroke-dasharray=""/><path fill="white" stroke="black" paint-order="fill stroke markers" d=" M 278.02233960462235 223.54725716049998 L 294.35754290462233 223.54725716049998 L 294.35754290462233 269.28582640049996 L 278.02233960462235 269.28582640049996 L 278.02233960462235 223.54725716049998" stroke-miterlimit="10" stroke-width="1.3612669416666667" stroke-dasharray=""/><path fill="white" stroke="black" paint-order="fill stroke markers" d=" M 278.02233960462235 315.02439564049996 L 294.35754290462233 315.02439564049996 L 294.35754290462233 360.76296488049996 L 278.02233960462235 360.76296488049996 L 278.02233960462235 315.02439564049996" stroke-miterlimit="10" stroke-width="1.3612669416666667" stroke-dasharray=""/><path fill="white" stroke="black" paint-order="fill stroke markers" d=" M 278.02233960462235 406.50153412049997 L 294.35754290462233 406.50153412049997 L 294.35754290462233 452.2401033605 L 278.02233960462235 452.2401033605 L 278.02233960462235 406.50153412049997" stroke-miterlimit="10" stroke-width="1.3612669416666667" stroke-dasharray=""/><path fill="white" stroke="black" paint-order="fill stroke markers" d=" M 278.02233960462235 497.9786726005 L 294.35754290462233 497.9786726005 L 294.35754290462233 543.7172418404999 L 278.02233960462235 543.7172418404999 L 278.02233960462235 497.9786726005" stroke-miterlimit="10" stroke-width="1.3612669416666667" stroke-dasharray=""/><path fill="white" stroke="black" paint-order="fill stroke markers" d=" M 278.02233960462235 633.5608599904998 L 294.35754290462233 633.5608599904998 L 294.35754290462233 679.2994292304998 L 278.02233960462235 679.2994292304998 L 278.02233960462235 633.5608599904998" stroke-miterlimit="10" stroke-width="1.3612669416666667" stroke-dasharray=""/><path fill="white" stroke="black" paint-order="fill stroke markers" d=" M 278.02233960462235 749.5408034204997 L 294.35754290462233 749.5408034204997 L 294.35754290462233 795.2793726604997 L 278.02233960462235 795.2793726604997 L 278.02233960462235 749.5408034204997" stroke-miterlimit="10" stroke-width="1.3612669416666667" stroke-dasharray=""/><path fill="white" stroke="black" paint-order="fill stroke markers" d=" M 278.02233960462235 841.0179419004996 L 294.35754290462233 841.0179419004996 L 294.35754290462233 886.7565111404996 L 278.02233960462235 886.7565111404996 L 278.02233960462235 841.0179419004996" stroke-miterlimit="10" stroke-width="1.3612669416666667" stroke-dasharray=""/><path fill="none" stroke="none"/><g><g/><path fill="white" stroke="black" paint-order="fill stroke markers" d=" M 66.97433353 120.63547637049999 L 300.8916242246223 120.63547637049999 L 300.8916242246223 177.80868792049998 L 66.97433353 177.80868792049998 L 66.97433353 120.63547637049999 Z" stroke-miterlimit="10" stroke-width="2.3336004714285714" stroke-dasharray=""/><path fill="white" stroke="black" paint-order="fill stroke markers" d=" M 66.97433353 120.63547637049999 L 66.97433353 140.2377203305 L 115.09928515105713 140.2377203305 L 124.90040713105714 130.4365983505 L 124.90040713105714 120.63547637049999 L 66.97433353 120.63547637049999" stroke-miterlimit="10" stroke-width="2.3336004714285714" stroke-dasharray=""/><text fill="black" stroke="none" font-family="sans-serif" font-size="8.8pt" font-style="normal" font-weight="bold" text-decoration="normal" x="83.30953683" y="133.70363901049998" text-anchor="start" dominant-baseline="alphabetic" xml:space="preserve">ref</text></g><g><text fill="black" stroke="none" font-family="sans-serif" font-size="11pt" font-style="normal" font-weight="normal" text-decoration="normal" x="166.2875244705729" y="161.9402047147857" text-anchor="start" dominant-baseline="alphabetic" xml:space="preserve">Login</text></g><g><g><rect fill="white" stroke="none" x="120.32815355198888" y="202.3114928705" width="127.20965065064453" height="21.23576429"/></g><text fill="black" stroke="none" font-family="sans-serif" font-size="11pt" font-style="normal" font-weight="normal" text-decoration="normal" x="122.77843404698888" y="217.01317584049997" text-anchor="start" dominant-baseline="alphabetic" xml:space="preserve">get(manageShops)</text></g><g><path fill="none" stroke="black" paint-order="fill stroke markers" d=" M 89.84361814999998 223.54725716049998 L 264.5730222209557 223.54725716049998" stroke-miterlimit="10" stroke-width="1.3612669416666667" stroke-dasharray=""/><g transform="translate(278.02233960462235,223.54725716049998) translate(-278.02233960462235,-223.54725716049998)"><path fill="black" stroke="none" paint-order="stroke fill markers" d=" M 264.40967018795567 216.74092245216664 L 278.02233960462235 223.54725716049998 L 264.40967018795567 230.35359186883332 Z"/></g></g><g><g><rect fill="white" stroke="none" x="113.55542940037755" y="248.05006211049997" width="140.7550989538672" height="21.23576429"/></g><text fill="black" stroke="none" font-family="sans-serif" font-size="11pt" font-style="normal" font-weight="normal" text-decoration="normal" x="116.00570989537755" y="262.7517450805" text-anchor="start" dominant-baseline="alphabetic" xml:space="preserve">show(manageShops)</text></g><g><path fill="none" stroke="black" paint-order="fill stroke markers" d=" M 278.02233960462235 269.28582640049996 L 91.88551856249998 269.28582640049996" stroke-miterlimit="10" stroke-width="1.3612669416666667" stroke-dasharray="6.53408132"/><g transform="translate(89.84361814999998,269.28582640049996) translate(-89.84361814999998,-269.28582640049996)"><path fill="none" stroke="black" paint-order="fill stroke markers" d=" M 103.83886253305401 263.0424289148765 L 91.37391801554946 269.28582640049996 L 103.83886253305401 275.5292238861234" stroke-miterlimit="10" stroke-width="1.3612669416666667"/></g></g><g><g><rect fill="white" stroke="none" x="147.56451600926428" y="293.78863135049994" width="72.73692573609375" height="21.23576429"/></g><text fill="black" stroke="none" font-family="sans-serif" font-size="11pt" font-style="normal" font-weight="normal" text-decoration="normal" x="150.01479650426427" y="308.4903143204999" text-anchor="start" dominant-baseline="alphabetic" xml:space="preserve">addShop()</text></g><g><path fill="none" stroke="black" paint-order="fill stroke markers" d=" M 89.84361814999998 315.02439564049996 L 264.5730222209557 315.02439564049996" stroke-miterlimit="10" stroke-width="1.3612669416666667" stroke-dasharray=""/><g transform="translate(278.02233960462235,315.02439564049996) translate(-278.02233960462235,-315.02439564049996)"><path fill="black" stroke="none" paint-order="stroke fill markers" d=" M 264.40967018795567 308.2180609321666 L 278.02233960462235 315.02439564049996 L 264.40967018795567 321.8307303488333 Z"/></g></g><g><g><rect fill="white" stroke="none" x="127.5463351620963" y="339.52720059049994" width="112.77328743042969" height="21.23576429"/></g><text fill="black" stroke="none" font-family="sans-serif" font-size="11pt" font-style="normal" font-weight="normal" text-decoration="normal" x="129.9966156570963" y="354.2288835604999" text-anchor="start" dominant-baseline="alphabetic" xml:space="preserve">show(shopForm)</text></g><g><path fill="none" stroke="black" paint-order="fill stroke markers" d=" M 278.02233960462235 360.76296488049996 L 91.88551856249998 360.76296488049996" stroke-miterlimit="10" stroke-width="1.3612669416666667" stroke-dasharray="6.53408132"/><g transform="translate(89.84361814999998,360.76296488049996) translate(-89.84361814999998,-360.76296488049996)"><path fill="none" stroke="black" paint-order="fill stroke markers" d=" M 103.83886253305401 354.5195673948765 L 91.37391801554946 360.76296488049996 L 103.83886253305401 367.0063623661234" stroke-miterlimit="10" stroke-width="1.3612669416666667"/></g></g><g><g><rect fill="white" stroke="none" x="147.80997270482092" y="385.26576983049995" width="72.24601234498047" height="21.23576429"/></g><text fill="black" stroke="none" font-family="sans-serif" font-size="11pt" font-style="normal" font-weight="normal" text-decoration="normal" x="150.2602531998209" y="399.9674528004999" text-anchor="start" dominant-baseline="alphabetic" xml:space="preserve">setName()</text></g><g><path fill="none" stroke="black" paint-order="fill stroke markers" d=" M 89.84361814999998 406.50153412049997 L 264.5730222209557 406.50153412049997" stroke-miterlimit="10" stroke-width="1.3612669416666667" stroke-dasharray=""/><g transform="translate(278.02233960462235,406.50153412049997) translate(-278.02233960462235,-406.50153412049997)"><path fill="black" stroke="none" paint-order="stroke fill markers" d=" M 264.40967018795567 399.69519941216663 L 278.02233960462235 406.50153412049997 L 264.40967018795567 413.3078688288333 Z"/></g></g><g><g><rect fill="white" stroke="none" x="181.48269838231116" y="431.00433907049995" width="4.90056099" height="21.23576429"/></g><text fill="black" stroke="none" font-family="sans-serif" font-size="11pt" font-style="normal" font-weight="normal" text-decoration="normal" x="183.93297887731114" y="445.70602204049993" text-anchor="start" dominant-baseline="alphabetic" xml:space="preserve"></text></g><g><path fill="none" stroke="black" paint-order="fill stroke markers" d=" M 278.02233960462235 452.2401033605 L 91.88551856249998 452.2401033605" stroke-miterlimit="10" stroke-width="1.3612669416666667" stroke-dasharray="6.53408132"/><g transform="translate(89.84361814999998,452.2401033605) translate(-89.84361814999998,-452.2401033605)"><path fill="none" stroke="black" paint-order="fill stroke markers" d=" M 103.83886253305401 445.9967058748765 L 91.37391801554946 452.2401033605 L 103.83886253305401 458.48350084612343" stroke-miterlimit="10" stroke-width="1.3612669416666667"/></g></g><g><g><rect fill="white" stroke="none" x="139.73724550145178" y="476.74290831049996" width="88.39146675171875" height="21.23576429"/></g><text fill="black" stroke="none" font-family="sans-serif" font-size="11pt" font-style="normal" font-weight="normal" text-decoration="normal" x="142.18752599645177" y="491.44459128049994" text-anchor="start" dominant-baseline="alphabetic" xml:space="preserve">setLocation()</text></g><g><path fill="none" stroke="black" paint-order="fill stroke markers" d=" M 89.84361814999998 497.9786726005 L 264.5730222209557 497.9786726005" stroke-miterlimit="10" stroke-width="1.3612669416666667" stroke-dasharray=""/><g transform="translate(278.02233960462235,497.9786726005) translate(-278.02233960462235,-497.9786726005)"><path fill="black" stroke="none" paint-order="stroke fill markers" d=" M 264.40967018795567 491.17233789216664 L 278.02233960462235 497.9786726005 L 264.40967018795567 504.7850073088333 Z"/></g></g><g><g><rect fill="white" stroke="none" x="127.66451829808263" y="522.4814775504999" width="112.53692115845703" height="21.23576429"/></g><text fill="black" stroke="none" font-family="sans-serif" font-size="11pt" font-style="normal" font-weight="normal" text-decoration="normal" x="130.11479879308263" y="537.1831605204999" text-anchor="start" dominant-baseline="alphabetic" xml:space="preserve">list(departments)</text></g><g><path fill="none" stroke="black" paint-order="fill stroke markers" d=" M 278.02233960462235 543.7172418404999 L 91.88551856249998 543.7172418404999" stroke-miterlimit="10" stroke-width="1.3612669416666667" stroke-dasharray="6.53408132"/><g transform="translate(89.84361814999998,543.7172418404999) translate(-89.84361814999998,-543.7172418404999)"><path fill="none" stroke="black" paint-order="fill stroke markers" d=" M 103.83886253305401 537.4738443548765 L 91.37391801554946 543.7172418404999 L 103.83886253305401 549.9606393261233" stroke-miterlimit="10" stroke-width="1.3612669416666667"/></g></g><g><g><rect fill="white" stroke="none" x="109.17360872166661" y="612.3250957004998" width="149.51874031128906" height="21.23576429"/></g><text fill="black" stroke="none" font-family="sans-serif" font-size="11pt" font-style="normal" font-weight="normal" text-decoration="normal" x="111.62388921666661" y="627.0267786704998" text-anchor="start" dominant-baseline="alphabetic" xml:space="preserve">addDepartment(name)</text></g><g><path fill="none" stroke="black" paint-order="fill stroke markers" d=" M 89.84361814999998 633.5608599904998 L 264.5730222209557 633.5608599904998" stroke-miterlimit="10" stroke-width="1.3612669416666667" stroke-dasharray=""/><g transform="translate(278.02233960462235,633.5608599904998) translate(-278.02233960462235,-633.5608599904998)"><path fill="black" stroke="none" paint-order="stroke fill markers" d=" M 264.40967018795567 626.7545252821665 L 278.02233960462235 633.5608599904998 L 264.40967018795567 640.3671946988331 Z"/></g></g><g><g><rect fill="white" stroke="none" x="181.48269838231116" y="658.0636649404997" width="4.90056099" height="21.23576429"/></g><text fill="black" stroke="none" font-family="sans-serif" font-size="11pt" font-style="normal" font-weight="normal" text-decoration="normal" x="183.93297887731114" y="672.7653479104997" text-anchor="start" dominant-baseline="alphabetic" xml:space="preserve"></text></g><g><path fill="none" stroke="black" paint-order="fill stroke markers" d=" M 278.02233960462235 679.2994292304998 L 91.88551856249998 679.2994292304998" stroke-miterlimit="10" stroke-width="1.3612669416666667" stroke-dasharray="6.53408132"/><g transform="translate(89.84361814999998,679.2994292304998) translate(-89.84361814999998,-679.2994292304998)"><path fill="none" stroke="black" paint-order="fill stroke markers" d=" M 103.83886253305401 673.0560317448763 L 91.37391801554946 679.2994292304998 L 103.83886253305401 685.5428267161232" stroke-miterlimit="10" stroke-width="1.3612669416666667"/></g></g><g><g><rect fill="white" stroke="none" x="120.5099696530631" y="728.3050391304997" width="126.8460184484961" height="21.23576429"/></g><text fill="black" stroke="none" font-family="sans-serif" font-size="11pt" font-style="normal" font-weight="normal" text-decoration="normal" x="122.9602501480631" y="743.0067221004997" text-anchor="start" dominant-baseline="alphabetic" xml:space="preserve">setOpeningHours()</text></g><g><path fill="none" stroke="black" paint-order="fill stroke markers" d=" M 89.84361814999998 749.5408034204997 L 264.5730222209557 749.5408034204997" stroke-miterlimit="10" stroke-width="1.3612669416666667" stroke-dasharray=""/><g transform="translate(278.02233960462235,749.5408034204997) translate(-278.02233960462235,-749.5408034204997)"><path fill="black" stroke="none" paint-order="stroke fill markers" d=" M 264.40967018795567 742.7344687121664 L 278.02233960462235 749.5408034204997 L 264.40967018795567 756.3471381288331 Z"/></g></g><g><g><rect fill="white" stroke="none" x="181.48269838231116" y="774.0436083704997" width="4.90056099" height="21.23576429"/></g><text fill="black" stroke="none" font-family="sans-serif" font-size="11pt" font-style="normal" font-weight="normal" text-decoration="normal" x="183.93297887731114" y="788.7452913404996" text-anchor="start" dominant-baseline="alphabetic" xml:space="preserve"></text></g><g><path fill="none" stroke="black" paint-order="fill stroke markers" d=" M 278.02233960462235 795.2793726604997 L 91.88551856249998 795.2793726604997" stroke-miterlimit="10" stroke-width="1.3612669416666667" stroke-dasharray="6.53408132"/><g transform="translate(89.84361814999998,795.2793726604997) translate(-89.84361814999998,-795.2793726604997)"><path fill="none" stroke="black" paint-order="fill stroke markers" d=" M 103.83886253305401 789.0359751748763 L 91.37391801554946 795.2793726604997 L 103.83886253305401 801.5227701461231" stroke-miterlimit="10" stroke-width="1.3612669416666667"/></g></g><g><g><rect fill="white" stroke="none" x="155.3008803738883" y="819.7821776104996" width="57.264197006845706" height="21.23576429"/></g><text fill="black" stroke="none" font-family="sans-serif" font-size="11pt" font-style="normal" font-weight="normal" text-decoration="normal" x="157.7511608688883" y="834.4838605804996" text-anchor="start" dominant-baseline="alphabetic" xml:space="preserve">submit()</text></g><g><path fill="none" stroke="black" paint-order="fill stroke markers" d=" M 89.84361814999998 841.0179419004996 L 264.5730222209557 841.0179419004996" stroke-miterlimit="10" stroke-width="1.3612669416666667" stroke-dasharray=""/><g transform="translate(278.02233960462235,841.0179419004996) translate(-278.02233960462235,-841.0179419004996)"><path fill="black" stroke="none" paint-order="stroke fill markers" d=" M 264.40967018795567 834.2116071921663 L 278.02233960462235 841.0179419004996 L 264.40967018795567 847.824276608833 Z"/></g></g><g><g><rect fill="white" stroke="none" x="153.26451677220373" y="865.5207468504996" width="61.336924210214846" height="21.23576429"/></g><text fill="black" stroke="none" font-family="sans-serif" font-size="11pt" font-style="normal" font-weight="normal" text-decoration="normal" x="155.71479726720372" y="880.2224298204995" text-anchor="start" dominant-baseline="alphabetic" xml:space="preserve">confirm()</text></g><g><path fill="none" stroke="black" paint-order="fill stroke markers" d=" M 278.02233960462235 886.7565111404996 L 91.88551856249998 886.7565111404996" stroke-miterlimit="10" stroke-width="1.3612669416666667" stroke-dasharray="6.53408132"/><g transform="translate(89.84361814999998,886.7565111404996) translate(-89.84361814999998,-886.7565111404996)"><path fill="none" stroke="black" paint-order="fill stroke markers" d=" M 103.83886253305401 880.5131136548762 L 91.37391801554946 886.7565111404996 L 103.83886253305401 892.999908626123" stroke-miterlimit="10" stroke-width="1.3612669416666667"/></g></g><g><g/><path fill="none" stroke="black" paint-order="fill stroke markers" d=" M 16.33520329999999 568.2200467904999 L 343.36315280462236 568.2200467904999 L 343.36315280462236 703.8022341804998 L 16.33520329999999 703.8022341804998 L 16.33520329999999 568.2200467904999 Z" stroke-miterlimit="10" stroke-width="2.3336004714285714" stroke-dasharray=""/><path fill="white" stroke="black" paint-order="fill stroke markers" d=" M 16.33520329999999 568.2200467904999 L 16.33520329999999 587.8222907504999 L 73.86015549326171 587.8222907504999 L 83.66127747326172 578.0211687704998 L 83.66127747326172 568.2200467904999 L 16.33520329999999 568.2200467904999" stroke-miterlimit="10" stroke-width="2.3336004714285714" stroke-dasharray=""/><text fill="black" stroke="none" font-family="sans-serif" font-size="8.8pt" font-style="normal" font-weight="bold" text-decoration="normal" x="32.67040659999999" y="581.2882094304998" text-anchor="start" dominant-baseline="alphabetic" xml:space="preserve">loop</text></g></g><g/></g></svg>