<svg version="1.1" xmlns="http://www.w3.org/2000/svg" xmlns:xlink="http://www.w3.org/1999/xlink" width="524" height="855"><defs/><g><g/><g/><g/><g/><g/><g/><g/><g/><g/><g/><g/><g/><g><rect fill="white" stroke="none" x="0" y="0" width="524" height="855"/></g><g/><g><path fill="none" stroke="black" paint-order="fill stroke markers" d=" M 81.67601649999999 87.9650697705 L 81.67601649999999 774.0436083704999" stroke-miterlimit="10" stroke-width="1.3612669416666667" stroke-dasharray="12.565541,5.445067766666667"/><path fill="none" stroke="black" paint-order="fill stroke markers" d=" M 322.66267379856765 87.9650697705 L 322.66267379856765 855.7196248705" stroke-miterlimit="10" stroke-width="1.3612669416666667" stroke-dasharray="12.565541,5.445067766666667"/></g><g><g><path fill="white" stroke="black" paint-order="fill stroke markers" d=" M 90.987082381 18.867159811499988 A 9.311065881 9.311065881 0 1 1 90.98707772546743 18.857848747170827 M 81.67601649999999 28.17822569249999 L 81.67601649999999 48.10717371849999 M 69.914670124 35.36571514449999 L 93.43736287599998 35.36571514449999 M 81.67601649999999 48.10717371849999 L 69.914670124 66.72930548049999 M 81.67601649999999 48.10717371849999 L 93.43736287599998 66.72930548049999" stroke-miterlimit="10" stroke-width="2.7769845610000004" stroke-dasharray=""/></g><g><g/><text fill="black" stroke="none" font-family="sans-serif" font-size="11pt" font-style="normal" font-weight="normal" text-decoration="normal" x="50.6487433218994" y="83.06450878049999" text-anchor="start" dominant-baseline="alphabetic" xml:space="preserve">Customer</text></g><path fill="none" stroke="none"/><g><path fill="white" stroke="black" paint-order="fill stroke markers" d=" M 290.1298876037488 43.8600208605 L 355.19545999338646 43.8600208605 L 355.19545999338646 87.9650697705 L 290.1298876037488 87.9650697705 L 290.1298876037488 43.8600208605 Z" stroke-miterlimit="10" stroke-width="2.613632528" stroke-dasharray=""/></g><g><g/><text fill="black" stroke="none" font-family="sans-serif" font-size="11pt" font-style="normal" font-weight="normal" text-decoration="normal" x="307.8535831842488" y="71.62986647049999" text-anchor="start" dominant-baseline="alphabetic" xml:space="preserve">Clup</text></g></g><g><path fill="white" stroke="black" paint-order="fill stroke markers" d=" M 73.50841485 141.87124066049998 L 89.84361814999998 141.87124066049998 L 89.84361814999998 187.60980990049998 L 73.50841485 187.60980990049998 L 73.50841485 141.87124066049998" stroke-miterlimit="10" stroke-width="1.3612669416666667" stroke-dasharray=""/><path fill="white" stroke="black" paint-order="fill stroke markers" d=" M 314.49507214856766 141.87124066049998 L 330.83027544856765 141.87124066049998 L 330.83027544856765 187.60980990049998 L 314.49507214856766 187.60980990049998 L 314.49507214856766 141.87124066049998" stroke-miterlimit="10" stroke-width="1.3612669416666667" stroke-dasharray=""/><path fill="white" stroke="black" paint-order="fill stroke markers" d=" M 73.50841485 233.3483791405 L 89.84361814999998 233.3483791405 L 89.84361814999998 324.82551762049997 L 73.50841485 324.82551762049997 L 73.50841485 233.3483791405" stroke-miterlimit="10" stroke-width="1.3612669416666667" stroke-dasharray=""/><path fill="white" stroke="black" paint-order="fill stroke markers" d=" M 314.49507214856766 233.3483791405 L 330.83027544856765 233.3483791405 L 330.83027544856765 279.08694838049996 L 314.49507214856766 279.08694838049996 L 314.49507214856766 233.3483791405" stroke-miterlimit="10" stroke-width="1.3612669416666667" stroke-dasharray=""/><path fill="white" stroke="black" paint-order="fill stroke markers" d=" M 314.49507214856766 324.82551762049997 L 330.83027544856765 324.82551762049997 L 330.83027544856765 437.5384203905 L 314.49507214856766 437.5384203905 L 314.49507214856766 324.82551762049997" stroke-miterlimit="10" stroke-width="1.3612669416666667" stroke-dasharray=""/><path fill="white" stroke="black" paint-order="fill stroke markers" d=" M 73.50841485 483.2769896305 L 89.84361814999998 483.2769896305 L 89.84361814999998 662.9642259304999 L 73.50841485 662.9642259304999 L 73.50841485 483.2769896305" stroke-miterlimit="10" stroke-width="1.3612669416666667" stroke-dasharray=""/><path fill="white" stroke="black" paint-order="fill stroke markers" d=" M 314.49507214856766 483.2769896305 L 330.83027544856765 483.2769896305 L 330.83027544856765 662.9642259304999 L 314.49507214856766 662.9642259304999 L 314.49507214856766 483.2769896305" stroke-miterlimit="10" stroke-width="1.3612669416666667" stroke-dasharray=""/><path fill="white" stroke="black" paint-order="fill stroke markers" d=" M 314.49507214856766 707.0692748404999 L 330.83027544856765 707.0692748404999 L 330.83027544856765 774.0436083704999 L 314.49507214856766 774.0436083704999 L 314.49507214856766 707.0692748404999" stroke-miterlimit="10" stroke-width="1.3612669416666667" stroke-dasharray=""/><g><g><rect fill="white" stroke="none" x="165.88269990819006" y="120.63547637049999" width="72.5732904821875" height="21.23576429"/></g><text fill="black" stroke="none" font-family="sans-serif" font-size="11pt" font-style="normal" font-weight="normal" text-decoration="normal" x="168.33298040319005" y="135.3371593405" text-anchor="start" dominant-baseline="alphabetic" xml:space="preserve">openApp()</text></g><g><path fill="none" stroke="black" paint-order="fill stroke markers" d=" M 89.84361814999998 141.87124066049998 L 301.045754764901 141.87124066049998" stroke-miterlimit="10" stroke-width="1.3612669416666667" stroke-dasharray=""/><g transform="translate(314.49507214856766,141.87124066049998) translate(-314.49507214856766,-141.87124066049998)"><path fill="black" stroke="none" paint-order="stroke fill markers" d=" M 300.882402731901 135.06490595216664 L 314.49507214856766 141.87124066049998 L 300.882402731901 148.67757536883332 Z"/></g></g><g><g><rect fill="white" stroke="none" x="146.264520586901" y="166.3740456105" width="111.80964912476563" height="21.23576429"/></g><text fill="black" stroke="none" font-family="sans-serif" font-size="11pt" font-style="normal" font-weight="normal" text-decoration="normal" x="148.714801081901" y="181.07572858049997" text-anchor="start" dominant-baseline="alphabetic" xml:space="preserve">show(loginForm)</text></g><g><path fill="none" stroke="black" paint-order="fill stroke markers" d=" M 314.49507214856766 187.60980990049998 L 91.88551856249998 187.60980990049998" stroke-miterlimit="10" stroke-width="1.3612669416666667" stroke-dasharray="6.53408132"/><g transform="translate(89.84361814999998,187.60980990049998) translate(-89.84361814999998,-187.60980990049998)"><path fill="none" stroke="black" paint-order="fill stroke markers" d=" M 103.83886253305401 181.36641241487655 L 91.37391801554946 187.60980990049998 L 103.83886253305401 193.85320738612342" stroke-miterlimit="10" stroke-width="1.3612669416666667"/></g></g><g><g><rect fill="white" stroke="none" x="132.4917926205924" y="212.1126148505" width="139.35510505738281" height="21.23576429"/></g><text fill="black" stroke="none" font-family="sans-serif" font-size="11pt" font-style="normal" font-weight="normal" text-decoration="normal" x="134.9420731155924" y="226.81429782049997" text-anchor="start" dominant-baseline="alphabetic" xml:space="preserve">get(registrationForm)</text></g><g><path fill="none" stroke="black" paint-order="fill stroke markers" d=" M 89.84361814999998 233.3483791405 L 301.045754764901 233.3483791405" stroke-miterlimit="10" stroke-width="1.3612669416666667" stroke-dasharray=""/><g transform="translate(314.49507214856766,233.3483791405) translate(-314.49507214856766,-233.3483791405)"><path fill="black" stroke="none" paint-order="stroke fill markers" d=" M 300.882402731901 226.54204443216665 L 314.49507214856766 233.3483791405 L 300.882402731901 240.15471384883332 Z"/></g></g><g><g><rect fill="white" stroke="none" x="125.7190646542838" y="257.85118409049994" width="152.90056099" height="21.23576429"/></g><text fill="black" stroke="none" font-family="sans-serif" font-size="11pt" font-style="normal" font-weight="normal" text-decoration="normal" x="128.1693451492838" y="272.5528670604999" text-anchor="start" dominant-baseline="alphabetic" xml:space="preserve">show(registrationForm)</text></g><g><path fill="none" stroke="black" paint-order="fill stroke markers" d=" M 314.49507214856766 279.08694838049996 L 91.88551856249998 279.08694838049996" stroke-miterlimit="10" stroke-width="1.3612669416666667" stroke-dasharray="6.53408132"/><g transform="translate(89.84361814999998,279.08694838049996) translate(-89.84361814999998,-279.08694838049996)"><path fill="none" stroke="black" paint-order="fill stroke markers" d=" M 103.83886253305401 272.8435508948765 L 91.37391801554946 279.08694838049996 L 103.83886253305401 285.3303458661234" stroke-miterlimit="10" stroke-width="1.3612669416666667"/></g></g><g><g><rect fill="white" stroke="none" x="135.94633668797522" y="303.58975333049995" width="132.4460169226172" height="21.23576429"/></g><text fill="black" stroke="none" font-family="sans-serif" font-size="11pt" font-style="normal" font-weight="normal" text-decoration="normal" x="138.3966171829752" y="318.2914363004999" text-anchor="start" dominant-baseline="alphabetic" xml:space="preserve">register(credentials)</text></g><g><path fill="none" stroke="black" paint-order="fill stroke markers" d=" M 89.84361814999998 324.82551762049997 L 301.045754764901 324.82551762049997" stroke-miterlimit="10" stroke-width="1.3612669416666667" stroke-dasharray=""/><g transform="translate(314.49507214856766,324.82551762049997) translate(-314.49507214856766,-324.82551762049997)"><path fill="black" stroke="none" paint-order="stroke fill markers" d=" M 300.882402731901 318.0191829121666 L 314.49507214856766 324.82551762049997 L 300.882402731901 331.6318523288333 Z"/></g></g><g><g><rect fill="white" stroke="none" x="350.1602660202343" y="349.3283225705" width="134.1187464148047" height="21.23576429"/></g><text fill="black" stroke="none" font-family="sans-serif" font-size="11pt" font-style="normal" font-weight="normal" text-decoration="normal" x="352.6105465152343" y="364.0300055405" text-anchor="start" dominant-baseline="alphabetic" xml:space="preserve">validate(credentials)</text></g><g><path fill="none" stroke="black" paint-order="fill stroke markers" d=" M 330.83027544856765 370.56408686049997 L 396.17108864856766 370.56408686049997 L 396.17108864856766 391.7998511505 L 344.2795928322343 391.7998511505" stroke-miterlimit="10" stroke-width="1.3612669416666667" stroke-dasharray=""/><g transform="translate(330.83027544856765,391.7998511505) translate(-330.83027544856765,-391.7998511505)"><path fill="black" stroke="none" paint-order="stroke fill markers" d=" M 344.4429448652343 384.99351644216665 L 330.83027544856765 391.7998511505 L 344.4429448652343 398.6061858588333 Z"/></g></g><g><g><rect fill="white" stroke="none" x="105.08980789666664" y="416.3026561005" width="185.99147285523438" height="21.23576429"/></g><text fill="black" stroke="none" font-family="sans-serif" font-size="11pt" font-style="normal" font-weight="normal" text-decoration="normal" x="107.54008839166664" y="431.00433907049995" text-anchor="start" dominant-baseline="alphabetic" xml:space="preserve">sendEmail(confirmationLink)</text></g><g><path fill="none" stroke="black" paint-order="fill stroke markers" d=" M 314.49507214856766 437.5384203905 L 83.71791691249999 437.5384203905" stroke-miterlimit="10" stroke-width="1.3612669416666667" stroke-dasharray="6.53408132"/><g transform="translate(81.67601649999999,437.5384203905) translate(-81.67601649999999,-437.5384203905)"><path fill="none" stroke="black" paint-order="fill stroke markers" d=" M 95.67126088305402 431.29502290487653 L 83.20631636554947 437.5384203905 L 95.67126088305402 443.78181787612345" stroke-miterlimit="10" stroke-width="1.3612669416666667"/></g></g><g><g><rect fill="white" stroke="none" x="126.95543092625645" y="462.0412253405" width="150.4278284460547" height="21.23576429"/></g><text fill="black" stroke="none" font-family="sans-serif" font-size="11pt" font-style="normal" font-weight="normal" text-decoration="normal" x="129.40571142125646" y="476.74290831049996" text-anchor="start" dominant-baseline="alphabetic" xml:space="preserve">send(confirmationLink)</text></g><g><path fill="none" stroke="black" paint-order="fill stroke markers" d=" M 89.84361814999998 483.2769896305 L 301.045754764901 483.2769896305" stroke-miterlimit="10" stroke-width="1.3612669416666667" stroke-dasharray=""/><g transform="translate(314.49507214856766,483.2769896305) translate(-314.49507214856766,-483.2769896305)"><path fill="black" stroke="none" paint-order="stroke fill markers" d=" M 300.882402731901 476.47065492216666 L 314.49507214856766 483.2769896305 L 300.882402731901 490.08332433883334 Z"/></g></g><g><g><rect fill="white" stroke="none" x="350.1602660202343" y="507.7797945805" width="169.02783454957031" height="21.23576429"/></g><text fill="black" stroke="none" font-family="sans-serif" font-size="11pt" font-style="normal" font-weight="normal" text-decoration="normal" x="352.6105465152343" y="522.4814775505" text-anchor="start" dominant-baseline="alphabetic" xml:space="preserve">validate(confirmationLink)</text></g><g><path fill="none" stroke="black" paint-order="fill stroke markers" d=" M 330.83027544856765 529.0155588705 L 396.17108864856766 529.0155588705 L 396.17108864856766 550.2513231605 L 344.2795928322343 550.2513231605" stroke-miterlimit="10" stroke-width="1.3612669416666667" stroke-dasharray=""/><g transform="translate(330.83027544856765,550.2513231605) translate(-330.83027544856765,-550.2513231605)"><path fill="black" stroke="none" paint-order="stroke fill markers" d=" M 344.4429448652343 543.4449884521666 L 330.83027544856765 550.2513231605 L 344.4429448652343 557.0576578688333 Z"/></g></g><g><g><rect fill="white" stroke="none" x="350.1602660202343" y="574.7541281104999" width="137.9187494665625" height="21.23576429"/></g><text fill="black" stroke="none" font-family="sans-serif" font-size="11pt" font-style="normal" font-weight="normal" text-decoration="normal" x="352.6105465152343" y="589.4558110804999" text-anchor="start" dominant-baseline="alphabetic" xml:space="preserve">commitRegistration()</text></g><g><path fill="none" stroke="black" paint-order="fill stroke markers" d=" M 330.83027544856765 595.9898924004999 L 396.17108864856766 595.9898924004999 L 396.17108864856766 617.2256566904999 L 344.2795928322343 617.2256566904999" stroke-miterlimit="10" stroke-width="1.3612669416666667" stroke-dasharray=""/><g transform="translate(330.83027544856765,617.2256566904999) translate(-330.83027544856765,-617.2256566904999)"><path fill="black" stroke="none" paint-order="stroke fill markers" d=" M 344.4429448652343 610.4193219821666 L 330.83027544856765 617.2256566904999 L 344.4429448652343 624.0319913988333 Z"/></g></g><g><g><rect fill="white" stroke="none" x="133.10088533299475" y="641.7284616404999" width="138.13691963257813" height="21.23576429"/></g><text fill="black" stroke="none" font-family="sans-serif" font-size="11pt" font-style="normal" font-weight="normal" text-decoration="normal" x="135.55116582799474" y="656.4301446104998" text-anchor="start" dominant-baseline="alphabetic" xml:space="preserve">confirmRegistration()</text></g><g><path fill="none" stroke="black" paint-order="fill stroke markers" d=" M 314.49507214856766 662.9642259304999 L 91.88551856249998 662.9642259304999" stroke-miterlimit="10" stroke-width="1.3612669416666667" stroke-dasharray="6.53408132"/><g transform="translate(89.84361814999998,662.9642259304999) translate(-89.84361814999998,-662.9642259304999)"><path fill="none" stroke="black" paint-order="fill stroke markers" d=" M 103.83886253305401 656.7208284448765 L 91.37391801554946 662.9642259304999 L 103.83886253305401 669.2076234161233" stroke-miterlimit="10" stroke-width="1.3612669416666667"/></g></g><g><g><rect fill="white" stroke="none" x="350.1602660202343" y="731.5720797904999" width="130.39146675171875" height="21.23576429"/></g><text fill="black" stroke="none" font-family="sans-serif" font-size="11pt" font-style="normal" font-weight="normal" text-decoration="normal" x="352.6105465152343" y="746.2737627604998" text-anchor="start" dominant-baseline="alphabetic" xml:space="preserve">deleteRegistration()</text></g><g><path fill="none" stroke="black" paint-order="fill stroke markers" d=" M 330.83027544856765 752.8078440804999 L 396.17108864856766 752.8078440804999 L 396.17108864856766 774.0436083704999 L 344.2795928322343 774.0436083704999" stroke-miterlimit="10" stroke-width="1.3612669416666667" stroke-dasharray=""/><g transform="translate(330.83027544856765,774.0436083704999) translate(-330.83027544856765,-774.0436083704999)"><path fill="black" stroke="none" paint-order="stroke fill markers" d=" M 344.4429448652343 767.2372736621666 L 330.83027544856765 774.0436083704999 L 344.4429448652343 780.8499430788332 Z"/></g></g><g><path fill="none" stroke="black" paint-order="fill stroke markers" d=" M 66.97433353 759.3419254004999 L 96.37769946999998 788.7452913404999 M 96.37769946999998 759.3419254004999 L 66.97433353 788.7452913404999" stroke-miterlimit="10" stroke-width="2.613632528" stroke-dasharray=""/></g><g><g/><path fill="none" stroke="black" paint-order="fill stroke markers" d=" M 24.50280494999999 687.4670308804999 L 486.26905392695306 687.4670308804999 L 486.26905392695306 798.5464133204999 L 24.50280494999999 798.5464133204999 L 24.50280494999999 687.4670308804999 Z" stroke-miterlimit="10" stroke-width="2.3336004714285714" stroke-dasharray=""/><path fill="white" stroke="black" paint-order="fill stroke markers" d=" M 24.50280494999999 687.4670308804999 L 24.50280494999999 707.0692748404999 L 78.37321231293944 707.0692748404999 L 88.17433429293945 697.2681528604999 L 88.17433429293945 687.4670308804999 L 24.50280494999999 687.4670308804999" stroke-miterlimit="10" stroke-width="2.3336004714285714" stroke-dasharray=""/><text fill="black" stroke="none" font-family="sans-serif" font-size="8.8pt" font-style="normal" font-weight="bold" text-decoration="normal" x="40.83800824999999" y="700.5351935204999" text-anchor="start" dominant-baseline="alphabetic" xml:space="preserve">neg</text><text fill="black" stroke="none" font-family="sans-serif" font-size="8.8pt" font-style="normal" font-weight="bold" text-decoration="normal" x="104.50953759293945" y="700.5351935204999" text-anchor="start" dominant-baseline="alphabetic" xml:space="preserve">[user does not click link]</text></g></g><g/><g/></g></svg>