<svg version="1.1" xmlns="http://www.w3.org/2000/svg" xmlns:xlink="http://www.w3.org/1999/xlink" width="361" height="448"><defs/><g><g/><g/><g/><g/><g/><g/><g/><g><rect fill="white" stroke="none" x="0" y="0" width="361" height="448"/></g><g/><g><path fill="none" stroke="black" paint-order="fill stroke markers" d=" M 39.19487482810059 87.9650697705 L 39.19487482810059 448.9730627005" stroke-miterlimit="10" stroke-width="1.3612669416666667" stroke-dasharray="12.565541,5.445067766666667"/><path fill="none" stroke="black" paint-order="fill stroke markers" d=" M 209.90880416035967 87.9650697705 L 209.90880416035967 448.9730627005" stroke-miterlimit="10" stroke-width="1.3612669416666667" stroke-dasharray="12.565541,5.445067766666667"/></g><g><g><path fill="white" stroke="black" paint-order="fill stroke markers" d=" M 48.505940709100585 18.867159811499988 A 9.311065881 9.311065881 0 1 1 48.505936053568036 18.857848747170827 M 39.19487482810059 28.17822569249999 L 39.19487482810059 48.10717371849999 M 27.43352845210059 35.36571514449999 L 50.956221204100586 35.36571514449999 M 39.19487482810059 48.10717371849999 L 27.43352845210059 66.72930548049999 M 39.19487482810059 48.10717371849999 L 50.956221204100586 66.72930548049999" stroke-miterlimit="10" stroke-width="2.7769845610000004" stroke-dasharray=""/></g><g><text fill="black" stroke="none" font-family="sans-serif" font-size="11pt" font-style="normal" font-weight="normal" text-decoration="normal" x="8.167601650000002" y="83.06450878049999" text-anchor="start" dominant-baseline="alphabetic" xml:space="preserve">Customer</text></g><path fill="none" stroke="none"/><g><path fill="white" stroke="black" paint-order="fill stroke markers" d=" M 177.37601796554083 43.8600208605 L 242.4415903551785 43.8600208605 L 242.4415903551785 87.9650697705 L 177.37601796554083 87.9650697705 L 177.37601796554083 43.8600208605 Z" stroke-miterlimit="10" stroke-width="2.613632528" stroke-dasharray=""/></g><g><g/><text fill="black" stroke="none" font-family="sans-serif" font-size="11pt" font-style="normal" font-weight="normal" text-decoration="normal" x="195.09971354604082" y="71.62986647049999" text-anchor="start" dominant-baseline="alphabetic" xml:space="preserve">Clup</text></g></g><g><path fill="white" stroke="black" paint-order="fill stroke markers" d=" M 31.027273178100586 141.87124066049998 L 47.36247647810059 141.87124066049998 L 47.36247647810059 187.60980990049998 L 31.027273178100586 187.60980990049998 L 31.027273178100586 141.87124066049998" stroke-miterlimit="10" stroke-width="1.3612669416666667" stroke-dasharray=""/><path fill="white" stroke="black" paint-order="fill stroke markers" d=" M 201.74120251035967 141.87124066049998 L 218.07640581035966 141.87124066049998 L 218.07640581035966 187.60980990049998 L 201.74120251035967 187.60980990049998 L 201.74120251035967 141.87124066049998" stroke-miterlimit="10" stroke-width="1.3612669416666667" stroke-dasharray=""/><path fill="white" stroke="black" paint-order="fill stroke markers" d=" M 31.027273178100586 233.3483791405 L 47.36247647810059 233.3483791405 L 47.36247647810059 391.7998511505 L 31.027273178100586 391.7998511505 L 31.027273178100586 233.3483791405" stroke-miterlimit="10" stroke-width="1.3612669416666667" stroke-dasharray=""/><path fill="white" stroke="black" paint-order="fill stroke markers" d=" M 201.74120251035967 233.3483791405 L 218.07640581035966 233.3483791405 L 218.07640581035966 391.7998511505 L 201.74120251035967 391.7998511505 L 201.74120251035967 233.3483791405" stroke-miterlimit="10" stroke-width="1.3612669416666667" stroke-dasharray=""/><g><g><rect fill="white" stroke="none" x="88.26519425313637" y="120.63547637049999" width="72.5732904821875" height="21.23576429"/></g><text fill="black" stroke="none" font-family="sans-serif" font-size="11pt" font-style="normal" font-weight="normal" text-decoration="normal" x="90.71547474813637" y="135.3371593405" text-anchor="start" dominant-baseline="alphabetic" xml:space="preserve">openApp()</text></g><g><path fill="none" stroke="black" paint-order="fill stroke markers" d=" M 47.36247647810059 141.87124066049998 L 188.291885126693 141.87124066049998" stroke-miterlimit="10" stroke-width="1.3612669416666667" stroke-dasharray=""/><g transform="translate(201.74120251035967,141.87124066049998) translate(-201.74120251035967,-141.87124066049998)"><path fill="black" stroke="none" paint-order="stroke fill markers" d=" M 188.128533093693 135.06490595216664 L 201.74120251035967 141.87124066049998 L 188.128533093693 148.67757536883332 Z"/></g></g><g><g><rect fill="white" stroke="none" x="68.64701493184731" y="166.3740456105" width="111.80964912476563" height="21.23576429"/></g><text fill="black" stroke="none" font-family="sans-serif" font-size="11pt" font-style="normal" font-weight="normal" text-decoration="normal" x="71.09729542684731" y="181.07572858049997" text-anchor="start" dominant-baseline="alphabetic" xml:space="preserve">show(loginForm)</text></g><g><path fill="none" stroke="black" paint-order="fill stroke markers" d=" M 201.74120251035967 187.60980990049998 L 49.40437689060059 187.60980990049998" stroke-miterlimit="10" stroke-width="1.3612669416666667" stroke-dasharray="6.53408132"/><g transform="translate(47.36247647810059,187.60980990049998) translate(-47.36247647810059,-187.60980990049998)"><path fill="none" stroke="black" paint-order="fill stroke markers" d=" M 61.357720861154625 181.36641241487655 L 48.89277634365007 187.60980990049998 L 61.357720861154625 193.85320738612342" stroke-miterlimit="10" stroke-width="1.3612669416666667"/></g></g><g><g><rect fill="white" stroke="none" x="67.26519425313637" y="212.1126148505" width="114.5732904821875" height="21.23576429"/></g><text fill="black" stroke="none" font-family="sans-serif" font-size="11pt" font-style="normal" font-weight="normal" text-decoration="normal" x="69.71547474813637" y="226.81429782049997" text-anchor="start" dominant-baseline="alphabetic" xml:space="preserve">login(credentials)</text></g><g><path fill="none" stroke="black" paint-order="fill stroke markers" d=" M 47.36247647810059 233.3483791405 L 188.291885126693 233.3483791405" stroke-miterlimit="10" stroke-width="1.3612669416666667" stroke-dasharray=""/><g transform="translate(201.74120251035967,233.3483791405) translate(-201.74120251035967,-233.3483791405)"><path fill="black" stroke="none" paint-order="stroke fill markers" d=" M 188.128533093693 226.54204443216665 L 201.74120251035967 233.3483791405 L 188.128533093693 240.15471384883332 Z"/></g></g><g><g><rect fill="white" stroke="none" x="237.40639638202634" y="257.8511840905" width="118.73692573609375" height="21.23576429"/></g><text fill="black" stroke="none" font-family="sans-serif" font-size="11pt" font-style="normal" font-weight="normal" text-decoration="normal" x="239.85667687702633" y="272.5528670605" text-anchor="start" dominant-baseline="alphabetic" xml:space="preserve">verify(credentials)</text></g><g><path fill="none" stroke="black" paint-order="fill stroke markers" d=" M 218.07640581035966 279.08694838049996 L 283.41721901035964 279.08694838049996 L 283.41721901035964 300.3227126705 L 231.52572319402634 300.3227126705" stroke-miterlimit="10" stroke-width="1.3612669416666667" stroke-dasharray=""/><g transform="translate(218.07640581035966,300.3227126705) translate(-218.07640581035966,-300.3227126705)"><path fill="black" stroke="none" paint-order="stroke fill markers" d=" M 231.68907522702634 293.51637796216664 L 218.07640581035966 300.3227126705 L 231.68907522702634 307.1290473788333 Z"/></g></g><g><g><rect fill="white" stroke="none" x="76.23792298238442" y="324.82551762049997" width="96.62783302369141" height="21.23576429"/></g><text fill="black" stroke="none" font-family="sans-serif" font-size="11pt" font-style="normal" font-weight="normal" text-decoration="normal" x="78.68820347738442" y="339.52720059049994" text-anchor="start" dominant-baseline="alphabetic" xml:space="preserve">confirmLogin()</text></g><g><path fill="none" stroke="black" paint-order="fill stroke markers" d=" M 201.74120251035967 346.0612819105 L 49.40437689060059 346.0612819105" stroke-miterlimit="10" stroke-width="1.3612669416666667" stroke-dasharray="6.53408132"/><g transform="translate(47.36247647810059,346.0612819105) translate(-47.36247647810059,-346.0612819105)"><path fill="none" stroke="black" paint-order="fill stroke markers" d=" M 61.357720861154625 339.8178844248765 L 48.89277634365007 346.0612819105 L 61.357720861154625 352.30467939612345" stroke-miterlimit="10" stroke-width="1.3612669416666667"/></g></g><g><g><rect fill="white" stroke="none" x="66.69246704976723" y="370.56408686049997" width="115.71874488892578" height="21.23576429"/></g><text fill="black" stroke="none" font-family="sans-serif" font-size="11pt" font-style="normal" font-weight="normal" text-decoration="normal" x="69.14274754476723" y="385.26576983049995" text-anchor="start" dominant-baseline="alphabetic" xml:space="preserve">show(homepage)</text></g><g><path fill="none" stroke="black" paint-order="fill stroke markers" d=" M 201.74120251035967 391.7998511505 L 49.40437689060059 391.7998511505" stroke-miterlimit="10" stroke-width="1.3612669416666667" stroke-dasharray="6.53408132"/><g transform="translate(47.36247647810059,391.7998511505) translate(-47.36247647810059,-391.7998511505)"><path fill="none" stroke="black" paint-order="fill stroke markers" d=" M 61.357720861154625 385.5564536648765 L 48.89277634365007 391.7998511505 L 61.357720861154625 398.04324863612345" stroke-miterlimit="10" stroke-width="1.3612669416666667"/></g></g></g><g/></g></svg>