<svg version="1.1" xmlns="http://www.w3.org/2000/svg" xmlns:xlink="http://www.w3.org/1999/xlink" width="547" height="644"><defs/><g><g/><g/><g/><g/><g/><g/><g/><g/><g/><g/><g><rect fill="white" stroke="none" x="0" y="0" width="547" height="644"/></g><g/><g><path fill="none" stroke="black" paint-order="fill stroke markers" d=" M 81.67601649999999 87.9650697705 L 81.67601649999999 644.9955023004999" stroke-miterlimit="10" stroke-width="1.3612669416666667" stroke-dasharray="12.565541,5.445067766666667"/><path fill="none" stroke="black" paint-order="fill stroke markers" d=" M 230.9354017648763 87.9650697705 L 230.9354017648763 644.9955023004999" stroke-miterlimit="10" stroke-width="1.3612669416666667" stroke-dasharray="12.565541,5.445067766666667"/><path fill="none" stroke="black" paint-order="fill stroke markers" d=" M 398.12205601168614 87.9650697705 L 398.12205601168614 644.9955023004999" stroke-miterlimit="10" stroke-width="1.3612669416666667" stroke-dasharray="12.565541,5.445067766666667"/></g><g><g><path fill="white" stroke="black" paint-order="fill stroke markers" d=" M 90.987082381 18.867159811499988 A 9.311065881 9.311065881 0 1 1 90.98707772546743 18.857848747170827 M 81.67601649999999 28.17822569249999 L 81.67601649999999 48.10717371849999 M 69.914670124 35.36571514449999 L 93.43736287599998 35.36571514449999 M 81.67601649999999 48.10717371849999 L 69.914670124 66.72930548049999 M 81.67601649999999 48.10717371849999 L 93.43736287599998 66.72930548049999" stroke-miterlimit="10" stroke-width="2.7769845610000004" stroke-dasharray=""/></g><g><text fill="black" stroke="none" font-family="sans-serif" font-size="11pt" font-style="normal" font-weight="normal" text-decoration="normal" x="50.6487433218994" y="83.06450878049999" text-anchor="start" dominant-baseline="alphabetic" xml:space="preserve">Customer</text></g><g><path fill="white" stroke="black" paint-order="fill stroke markers" d=" M 240.2464676458763 18.867159811499988 A 9.311065881 9.311065881 0 1 1 240.24646299034376 18.857848747170827 M 230.9354017648763 28.17822569249999 L 230.9354017648763 48.10717371849999 M 219.1740553888763 35.36571514449999 L 242.6967481408763 35.36571514449999 M 230.9354017648763 48.10717371849999 L 219.1740553888763 66.72930548049999 M 230.9354017648763 48.10717371849999 L 242.6967481408763 66.72930548049999" stroke-miterlimit="10" stroke-width="2.7769845610000004" stroke-dasharray=""/></g><g><text fill="black" stroke="none" font-family="sans-serif" font-size="11pt" font-style="normal" font-weight="normal" text-decoration="normal" x="216.38085636234945" y="83.06450878049999" text-anchor="start" dominant-baseline="alphabetic" xml:space="preserve">Staff</text></g><path fill="none" stroke="none"/><g><path fill="white" stroke="black" paint-order="fill stroke markers" d=" M 365.5892698168673 43.8600208605 L 430.65484220650495 43.8600208605 L 430.65484220650495 87.9650697705 L 365.5892698168673 87.9650697705 L 365.5892698168673 43.8600208605 Z" stroke-miterlimit="10" stroke-width="2.613632528" stroke-dasharray=""/></g><g><g/><text fill="black" stroke="none" font-family="sans-serif" font-size="11pt" font-style="normal" font-weight="normal" text-decoration="normal" x="383.3129653973673" y="71.62986647049999" text-anchor="start" dominant-baseline="alphabetic" xml:space="preserve">Clup</text></g></g><g><path fill="white" stroke="black" paint-order="fill stroke markers" d=" M 222.7678001148763 223.54725716049998 L 239.1030034148763 223.54725716049998 L 239.1030034148763 587.8222907504999 L 222.7678001148763 587.8222907504999 L 222.7678001148763 223.54725716049998" stroke-miterlimit="10" stroke-width="1.3612669416666667" stroke-dasharray=""/><path fill="white" stroke="black" paint-order="fill stroke markers" d=" M 389.95445436168615 223.54725716049998 L 406.28965766168614 223.54725716049998 L 406.28965766168614 269.28582640049996 L 389.95445436168615 269.28582640049996 L 389.95445436168615 223.54725716049998" stroke-miterlimit="10" stroke-width="1.3612669416666667" stroke-dasharray=""/><path fill="white" stroke="black" paint-order="fill stroke markers" d=" M 73.50841485 359.12944455049995 L 89.84361814999998 359.12944455049995 L 89.84361814999998 563.3194858004998 L 73.50841485 563.3194858004998 L 73.50841485 359.12944455049995" stroke-miterlimit="10" stroke-width="1.3612669416666667" stroke-dasharray=""/><path fill="white" stroke="black" paint-order="fill stroke markers" d=" M 389.95445436168615 404.86801379049996 L 406.28965766168614 404.86801379049996 L 406.28965766168614 517.5809165604999 L 389.95445436168615 517.5809165604999 L 389.95445436168615 404.86801379049996" stroke-miterlimit="10" stroke-width="1.3612669416666667" stroke-dasharray=""/><path fill="none" stroke="none"/><g><g/><path fill="white" stroke="black" paint-order="fill stroke markers" d=" M 216.2337187948763 120.63547637049999 L 412.8237389816861 120.63547637049999 L 412.8237389816861 177.80868792049998 L 216.2337187948763 177.80868792049998 L 216.2337187948763 120.63547637049999 Z" stroke-miterlimit="10" stroke-width="2.3336004714285714" stroke-dasharray=""/><path fill="white" stroke="black" paint-order="fill stroke markers" d=" M 216.2337187948763 120.63547637049999 L 216.2337187948763 140.2377203305 L 264.35867041593343 140.2377203305 L 274.15979239593344 130.4365983505 L 274.15979239593344 120.63547637049999 L 216.2337187948763 120.63547637049999" stroke-miterlimit="10" stroke-width="2.3336004714285714" stroke-dasharray=""/><text fill="black" stroke="none" font-family="sans-serif" font-size="8.8pt" font-style="normal" font-weight="bold" text-decoration="normal" x="232.56892209487629" y="133.70363901049998" text-anchor="start" dominant-baseline="alphabetic" xml:space="preserve">ref</text></g><g><text fill="black" stroke="none" font-family="sans-serif" font-size="11pt" font-style="normal" font-weight="normal" text-decoration="normal" x="296.8832744815429" y="161.9402047147857" text-anchor="start" dominant-baseline="alphabetic" xml:space="preserve">Login</text></g><g><g><rect fill="white" stroke="none" x="265.2057219528515" y="202.3114928705" width="98.64601387085938" height="21.23576429"/></g><text fill="black" stroke="none" font-family="sans-serif" font-size="11pt" font-style="normal" font-weight="normal" text-decoration="normal" x="267.6560024478515" y="217.01317584049997" text-anchor="start" dominant-baseline="alphabetic" xml:space="preserve">get(scanPage)</text></g><g><path fill="none" stroke="black" paint-order="fill stroke markers" d=" M 239.1030034148763 223.54725716049998 L 376.5051369780195 223.54725716049998" stroke-miterlimit="10" stroke-width="1.3612669416666667" stroke-dasharray=""/><g transform="translate(389.95445436168615,223.54725716049998) translate(-389.95445436168615,-223.54725716049998)"><path fill="black" stroke="none" paint-order="stroke fill markers" d=" M 376.34178494501947 216.74092245216664 L 389.95445436168615 223.54725716049998 L 376.34178494501947 230.35359186883332 Z"/></g></g><g><g><rect fill="white" stroke="none" x="258.4329939865429" y="248.05006211049997" width="112.19146980347656" height="21.23576429"/></g><text fill="black" stroke="none" font-family="sans-serif" font-size="11pt" font-style="normal" font-weight="normal" text-decoration="normal" x="260.8832744815429" y="262.7517450805" text-anchor="start" dominant-baseline="alphabetic" xml:space="preserve">show(scanPage)</text></g><g><path fill="none" stroke="black" paint-order="fill stroke markers" d=" M 389.95445436168615 269.28582640049996 L 241.1449038273763 269.28582640049996" stroke-miterlimit="10" stroke-width="1.3612669416666667" stroke-dasharray="6.53408132"/><g transform="translate(239.1030034148763,269.28582640049996) translate(-239.1030034148763,-269.28582640049996)"><path fill="none" stroke="black" paint-order="fill stroke markers" d=" M 253.09824779793036 263.0424289148765 L 240.63330328042576 269.28582640049996 L 253.09824779793036 275.5292238861234" stroke-miterlimit="10" stroke-width="1.3612669416666667"/></g></g><g><g><rect fill="white" stroke="none" x="112.0190638913444" y="337.89368026049993" width="88.5732904821875" height="21.23576429"/></g><text fill="black" stroke="none" font-family="sans-serif" font-size="11pt" font-style="normal" font-weight="normal" text-decoration="normal" x="114.4693443863444" y="352.5953632304999" text-anchor="start" dominant-baseline="alphabetic" xml:space="preserve">show(Token)</text></g><g><path fill="none" stroke="black" paint-order="fill stroke markers" d=" M 89.84361814999998 359.12944455049995 L 209.31848273120966 359.12944455049995" stroke-miterlimit="10" stroke-width="1.3612669416666667" stroke-dasharray=""/><g transform="translate(222.7678001148763,359.12944455049995) translate(-222.7678001148763,-359.12944455049995)"><path fill="black" stroke="none" paint-order="stroke fill markers" d=" M 209.15513069820963 352.3231098421666 L 222.7678001148763 359.12944455049995 L 209.15513069820963 365.9357792588333 Z"/></g></g><g><g><rect fill="white" stroke="none" x="271.76935873263665" y="383.63224950049994" width="85.51874031128906" height="21.23576429"/></g><text fill="black" stroke="none" font-family="sans-serif" font-size="11pt" font-style="normal" font-weight="normal" text-decoration="normal" x="274.21963922763666" y="398.3339324704999" text-anchor="start" dominant-baseline="alphabetic" xml:space="preserve">scan(Token)</text></g><g><path fill="none" stroke="black" paint-order="fill stroke markers" d=" M 239.1030034148763 404.86801379049996 L 376.5051369780195 404.86801379049996" stroke-miterlimit="10" stroke-width="1.3612669416666667" stroke-dasharray=""/><g transform="translate(389.95445436168615,404.86801379049996) translate(-389.95445436168615,-404.86801379049996)"><path fill="black" stroke="none" paint-order="stroke fill markers" d=" M 376.34178494501947 398.0616790821666 L 389.95445436168615 404.86801379049996 L 376.34178494501947 411.6743484988333 Z"/></g></g><g><g><rect fill="white" stroke="none" x="425.6196482333528" y="429.37081874049994" width="99.59147132935547" height="21.23576429"/></g><text fill="black" stroke="none" font-family="sans-serif" font-size="11pt" font-style="normal" font-weight="normal" text-decoration="normal" x="428.0699287283528" y="444.0725017104999" text-anchor="start" dominant-baseline="alphabetic" xml:space="preserve">validate(token)</text></g><g><path fill="none" stroke="black" paint-order="fill stroke markers" d=" M 406.28965766168614 450.6065830304999 L 471.63047086168615 450.6065830304999 L 471.63047086168615 471.8423473204999 L 419.7389750453528 471.8423473204999" stroke-miterlimit="10" stroke-width="1.3612669416666667" stroke-dasharray=""/><g transform="translate(406.28965766168614,471.8423473204999) translate(-406.28965766168614,-471.8423473204999)"><path fill="black" stroke="none" paint-order="stroke fill markers" d=" M 419.9023270783528 465.0360126121666 L 406.28965766168614 471.8423473204999 L 419.9023270783528 478.64868202883326 Z"/></g></g><g><g><rect fill="white" stroke="none" x="266.26935873263665" y="496.34515227049985" width="96.51874031128906" height="21.23576429"/></g><text fill="black" stroke="none" font-family="sans-serif" font-size="11pt" font-style="normal" font-weight="normal" text-decoration="normal" x="268.71963922763666" y="511.04683524049983" text-anchor="start" dominant-baseline="alphabetic" xml:space="preserve">confirm(token)</text></g><g><path fill="none" stroke="black" paint-order="fill stroke markers" d=" M 389.95445436168615 517.5809165604999 L 241.1449038273763 517.5809165604999" stroke-miterlimit="10" stroke-width="1.3612669416666667" stroke-dasharray="6.53408132"/><g transform="translate(239.1030034148763,517.5809165604999) translate(-239.1030034148763,-517.5809165604999)"><path fill="none" stroke="black" paint-order="fill stroke markers" d=" M 253.09824779793036 511.3375190748764 L 240.63330328042576 517.5809165604999 L 253.09824779793036 523.8243140461233" stroke-miterlimit="10" stroke-width="1.3612669416666667"/></g></g><g><g><rect fill="white" stroke="none" x="109.17360872166667" y="542.0837215104998" width="94.26420082154297" height="21.23576429"/></g><text fill="black" stroke="none" font-family="sans-serif" font-size="11pt" font-style="normal" font-weight="normal" text-decoration="normal" x="111.62388921666667" y="556.7854044804998" text-anchor="start" dominant-baseline="alphabetic" xml:space="preserve">allowAccess()</text></g><g><path fill="none" stroke="black" paint-order="fill stroke markers" d=" M 222.7678001148763 563.3194858004998 L 91.88551856249998 563.3194858004998" stroke-miterlimit="10" stroke-width="1.3612669416666667" stroke-dasharray="6.53408132"/><g transform="translate(89.84361814999998,563.3194858004998) translate(-89.84361814999998,-563.3194858004998)"><path fill="none" stroke="black" paint-order="fill stroke markers" d=" M 103.83886253305401 557.0760883148764 L 91.37391801554946 563.3194858004998 L 103.83886253305401 569.5628832861232" stroke-miterlimit="10" stroke-width="1.3612669416666667"/></g></g><g><g/><path fill="none" stroke="black" paint-order="fill stroke markers" d=" M 16.33520329999999 293.78863135049994 L 530.9284407177083 293.78863135049994 L 530.9284407177083 587.8222907504999 L 16.33520329999999 587.8222907504999 L 16.33520329999999 293.78863135049994 Z" stroke-miterlimit="10" stroke-width="2.3336004714285714" stroke-dasharray=""/><path fill="white" stroke="black" paint-order="fill stroke markers" d=" M 16.33520329999999 293.78863135049994 L 16.33520329999999 313.39087531049995 L 73.86015549326171 313.39087531049995 L 83.66127747326172 303.58975333049995 L 83.66127747326172 293.78863135049994 L 16.33520329999999 293.78863135049994" stroke-miterlimit="10" stroke-width="2.3336004714285714" stroke-dasharray=""/><text fill="black" stroke="none" font-family="sans-serif" font-size="8.8pt" font-style="normal" font-weight="bold" text-decoration="normal" x="32.67040659999999" y="306.85679399049997" text-anchor="start" dominant-baseline="alphabetic" xml:space="preserve">loop</text></g></g><g/></g></svg>