<svg version="1.1" xmlns="http://www.w3.org/2000/svg" xmlns:xlink="http://www.w3.org/1999/xlink" width="460" height="963"><defs/><g><g/><g/><g/><g/><g/><g/><g/><g/><g/><g/><g/><g/><g><rect fill="white" stroke="none" x="0" y="0" width="460" height="963"/></g><g/><g><path fill="none" stroke="black" paint-order="fill stroke markers" d=" M 81.67601649999999 87.9650697705 L 81.67601649999999 963.5319666504996" stroke-miterlimit="10" stroke-width="1.3612669416666667" stroke-dasharray="12.565541,5.445067766666667"/><path fill="none" stroke="black" paint-order="fill stroke markers" d=" M 302.2626646432942 87.9650697705 L 302.2626646432942 963.5319666504996" stroke-miterlimit="10" stroke-width="1.3612669416666667" stroke-dasharray="12.565541,5.445067766666667"/></g><g><g><path fill="white" stroke="black" paint-order="fill stroke markers" d=" M 90.987082381 18.867159811499988 A 9.311065881 9.311065881 0 1 1 90.98707772546743 18.857848747170827 M 81.67601649999999 28.17822569249999 L 81.67601649999999 48.10717371849999 M 69.914670124 35.36571514449999 L 93.43736287599998 35.36571514449999 M 81.67601649999999 48.10717371849999 L 69.914670124 66.72930548049999 M 81.67601649999999 48.10717371849999 L 93.43736287599998 66.72930548049999" stroke-miterlimit="10" stroke-width="2.7769845610000004" stroke-dasharray=""/></g><g><text fill="black" stroke="none" font-family="sans-serif" font-size="11pt" font-style="normal" font-weight="normal" text-decoration="normal" x="50.6487433218994" y="83.06450878049999" text-anchor="start" dominant-baseline="alphabetic" xml:space="preserve">Customer</text></g><path fill="none" stroke="none"/><g><path fill="white" stroke="black" paint-order="fill stroke markers" d=" M 269.72987844847535 43.8600208605 L 334.795450838113 43.8600208605 L 334.795450838113 87.9650697705 L 269.72987844847535 87.9650697705 L 269.72987844847535 43.8600208605 Z" stroke-miterlimit="10" stroke-width="2.613632528" stroke-dasharray=""/></g><g><g/><text fill="black" stroke="none" font-family="sans-serif" font-size="11pt" font-style="normal" font-weight="normal" text-decoration="normal" x="287.45357402897537" y="71.62986647049999" text-anchor="start" dominant-baseline="alphabetic" xml:space="preserve">Clup</text></g></g><g><path fill="white" stroke="black" paint-order="fill stroke markers" d=" M 73.50841485 267.65230607049995 L 89.84361814999998 267.65230607049995 L 89.84361814999998 917.7933974104996 L 73.50841485 917.7933974104996 L 73.50841485 267.65230607049995" stroke-miterlimit="10" stroke-width="1.3612669416666667" stroke-dasharray=""/><path fill="white" stroke="black" paint-order="fill stroke markers" d=" M 294.0950629932942 267.65230607049995 L 310.4302662932942 267.65230607049995 L 310.4302662932942 313.39087531049995 L 294.0950629932942 313.39087531049995 L 294.0950629932942 267.65230607049995" stroke-miterlimit="10" stroke-width="1.3612669416666667" stroke-dasharray=""/><path fill="white" stroke="black" paint-order="fill stroke markers" d=" M 294.0950629932942 383.63224950049994 L 310.4302662932942 383.63224950049994 L 310.4302662932942 429.37081874049994 L 294.0950629932942 429.37081874049994 L 294.0950629932942 383.63224950049994" stroke-miterlimit="10" stroke-width="1.3612669416666667" stroke-dasharray=""/><path fill="white" stroke="black" paint-order="fill stroke markers" d=" M 294.0950629932942 519.2144368904999 L 310.4302662932942 519.2144368904999 L 310.4302662932942 564.9530061304998 L 294.0950629932942 564.9530061304998 L 294.0950629932942 519.2144368904999" stroke-miterlimit="10" stroke-width="1.3612669416666667" stroke-dasharray=""/><path fill="white" stroke="black" paint-order="fill stroke markers" d=" M 294.0950629932942 635.1943803204998 L 310.4302662932942 635.1943803204998 L 310.4302662932942 906.3587551004996 L 294.0950629932942 906.3587551004996 L 294.0950629932942 635.1943803204998" stroke-miterlimit="10" stroke-width="1.3612669416666667" stroke-dasharray=""/><path fill="none" stroke="none"/><g><g/><path fill="white" stroke="black" paint-order="fill stroke markers" d=" M 66.97433353 120.63547637049999 L 316.9643476132942 120.63547637049999 L 316.9643476132942 177.80868792049998 L 66.97433353 177.80868792049998 L 66.97433353 120.63547637049999 Z" stroke-miterlimit="10" stroke-width="2.3336004714285714" stroke-dasharray=""/><path fill="white" stroke="black" paint-order="fill stroke markers" d=" M 66.97433353 120.63547637049999 L 66.97433353 140.2377203305 L 115.09928515105713 140.2377203305 L 124.90040713105714 130.4365983505 L 124.90040713105714 120.63547637049999 L 66.97433353 120.63547637049999" stroke-miterlimit="10" stroke-width="2.3336004714285714" stroke-dasharray=""/><text fill="black" stroke="none" font-family="sans-serif" font-size="8.8pt" font-style="normal" font-weight="bold" text-decoration="normal" x="83.30953683" y="133.70363901049998" text-anchor="start" dominant-baseline="alphabetic" xml:space="preserve">ref</text></g><g><text fill="black" stroke="none" font-family="sans-serif" font-size="11pt" font-style="normal" font-weight="normal" text-decoration="normal" x="174.32388616490883" y="161.9402047147857" text-anchor="start" dominant-baseline="alphabetic" xml:space="preserve">Login</text></g><g><g><rect fill="white" stroke="none" x="128.26451295750647" y="246.41654178049995" width="127.40965522828125" height="21.23576429"/></g><text fill="black" stroke="none" font-family="sans-serif" font-size="11pt" font-style="normal" font-weight="normal" text-decoration="normal" x="130.71479345250646" y="261.11822475049996" text-anchor="start" dominant-baseline="alphabetic" xml:space="preserve">search(shopName)</text></g><g><path fill="none" stroke="black" paint-order="fill stroke markers" d=" M 89.84361814999998 267.65230607049995 L 280.64574560962757 267.65230607049995" stroke-miterlimit="10" stroke-width="1.3612669416666667" stroke-dasharray=""/><g transform="translate(294.0950629932942,267.65230607049995) translate(-294.0950629932942,-267.65230607049995)"><path fill="black" stroke="none" paint-order="stroke fill markers" d=" M 280.48239357662754 260.8459713621666 L 294.0950629932942 267.65230607049995 L 280.48239357662754 274.4586407788333 Z"/></g></g><g><g><rect fill="white" stroke="none" x="109.17360872166661" y="292.15511102049993" width="165.59146369996094" height="21.23576429"/></g><text fill="black" stroke="none" font-family="sans-serif" font-size="11pt" font-style="normal" font-weight="normal" text-decoration="normal" x="111.62388921666661" y="306.8567939904999" text-anchor="start" dominant-baseline="alphabetic" xml:space="preserve">showResults(shopName)</text></g><g><path fill="none" stroke="black" paint-order="fill stroke markers" d=" M 294.0950629932942 313.39087531049995 L 91.88551856249998 313.39087531049995" stroke-miterlimit="10" stroke-width="1.3612669416666667" stroke-dasharray="6.53408132"/><g transform="translate(89.84361814999998,313.39087531049995) translate(-89.84361814999998,-313.39087531049995)"><path fill="none" stroke="black" paint-order="fill stroke markers" d=" M 103.83886253305401 307.1474778248765 L 91.37391801554946 313.39087531049995 L 103.83886253305401 319.6342727961234" stroke-miterlimit="10" stroke-width="1.3612669416666667"/></g></g><g><g><rect fill="white" stroke="none" x="139.34633439915686" y="362.3964852104999" width="105.24601234498047" height="21.23576429"/></g><text fill="black" stroke="none" font-family="sans-serif" font-size="11pt" font-style="normal" font-weight="normal" text-decoration="normal" x="141.79661489415685" y="377.0981681804999" text-anchor="start" dominant-baseline="alphabetic" xml:space="preserve">getTicket(shop)</text></g><g><path fill="none" stroke="black" paint-order="fill stroke markers" d=" M 89.84361814999998 383.63224950049994 L 280.64574560962757 383.63224950049994" stroke-miterlimit="10" stroke-width="1.3612669416666667" stroke-dasharray=""/><g transform="translate(294.0950629932942,383.63224950049994) translate(-294.0950629932942,-383.63224950049994)"><path fill="black" stroke="none" paint-order="stroke fill markers" d=" M 280.48239357662754 376.8259147921666 L 294.0950629932942 383.63224950049994 L 280.48239357662754 390.4385842088333 Z"/></g></g><g><g><rect fill="white" stroke="none" x="135.70087999241858" y="408.1350544504999" width="112.53692115845703" height="21.23576429"/></g><text fill="black" stroke="none" font-family="sans-serif" font-size="11pt" font-style="normal" font-weight="normal" text-decoration="normal" x="138.15116048741857" y="422.8367374204999" text-anchor="start" dominant-baseline="alphabetic" xml:space="preserve">list(departments)</text></g><g><path fill="none" stroke="black" paint-order="fill stroke markers" d=" M 294.0950629932942 429.37081874049994 L 91.88551856249998 429.37081874049994" stroke-miterlimit="10" stroke-width="1.3612669416666667" stroke-dasharray="6.53408132"/><g transform="translate(89.84361814999998,429.37081874049994) translate(-89.84361814999998,-429.37081874049994)"><path fill="none" stroke="black" paint-order="fill stroke markers" d=" M 103.83886253305401 423.1274212548765 L 91.37391801554946 429.37081874049994 L 103.83886253305401 435.6142162261234" stroke-miterlimit="10" stroke-width="1.3612669416666667"/></g></g><g><g><rect fill="white" stroke="none" x="125.80087846653966" y="497.97867260049986" width="132.33692421021485" height="21.23576429"/></g><text fill="black" stroke="none" font-family="sans-serif" font-size="11pt" font-style="normal" font-weight="normal" text-decoration="normal" x="128.25115896153966" y="512.6803555704998" text-anchor="start" dominant-baseline="alphabetic" xml:space="preserve">select(departments)</text></g><g><path fill="none" stroke="black" paint-order="fill stroke markers" d=" M 89.84361814999998 519.2144368904999 L 280.64574560962757 519.2144368904999" stroke-miterlimit="10" stroke-width="1.3612669416666667" stroke-dasharray=""/><g transform="translate(294.0950629932942,519.2144368904999) translate(-294.0950629932942,-519.2144368904999)"><path fill="black" stroke="none" paint-order="stroke fill markers" d=" M 280.48239357662754 512.4081021821665 L 294.0950629932942 519.2144368904999 L 280.48239357662754 526.0207715988332 Z"/></g></g><g><g><rect fill="white" stroke="none" x="123.68269533055333" y="543.7172418404998" width="136.5732904821875" height="21.23576429"/></g><text fill="black" stroke="none" font-family="sans-serif" font-size="11pt" font-style="normal" font-weight="normal" text-decoration="normal" x="126.13297582555333" y="558.4189248104998" text-anchor="start" dominant-baseline="alphabetic" xml:space="preserve">confim(departments)</text></g><g><path fill="none" stroke="black" paint-order="fill stroke markers" d=" M 294.0950629932942 564.9530061304998 L 103.29293553366665 564.9530061304998" stroke-miterlimit="10" stroke-width="1.3612669416666667" stroke-dasharray="6.53408132"/><g transform="translate(89.84361814999998,564.9530061304998) translate(-89.84361814999998,-564.9530061304998)"><path fill="black" stroke="none" paint-order="stroke fill markers" d=" M 103.45628756666665 558.1466714221665 L 89.84361814999998 564.9530061304998 L 103.45628756666665 571.7593408388332 Z"/></g></g><g><g><rect fill="white" stroke="none" x="163.33724206822424" y="613.9586160304998" width="57.264197006845706" height="21.23576429"/></g><text fill="black" stroke="none" font-family="sans-serif" font-size="11pt" font-style="normal" font-weight="normal" text-decoration="normal" x="165.78752256322423" y="628.6602990004998" text-anchor="start" dominant-baseline="alphabetic" xml:space="preserve">submit()</text></g><g><path fill="none" stroke="black" paint-order="fill stroke markers" d=" M 89.84361814999998 635.1943803204998 L 280.64574560962757 635.1943803204998" stroke-miterlimit="10" stroke-width="1.3612669416666667" stroke-dasharray=""/><g transform="translate(294.0950629932942,635.1943803204998) translate(-294.0950629932942,-635.1943803204998)"><path fill="black" stroke="none" paint-order="stroke fill markers" d=" M 280.48239357662754 628.3880456121665 L 294.0950629932942 635.1943803204998 L 280.48239357662754 642.0007150288332 Z"/></g></g><g><g><rect fill="white" stroke="none" x="329.76025686496087" y="659.6971852704997" width="125.44601692261719" height="21.23576429"/></g><text fill="black" stroke="none" font-family="sans-serif" font-size="11pt" font-style="normal" font-weight="normal" text-decoration="normal" x="332.2105373599609" y="674.3988682404997" text-anchor="start" dominant-baseline="alphabetic" xml:space="preserve">checkOccupancy()</text></g><g><path fill="none" stroke="black" paint-order="fill stroke markers" d=" M 310.4302662932942 680.9329495604998 L 375.7710794932942 680.9329495604998 L 375.7710794932942 702.1687138504998 L 323.87958367696086 702.1687138504998" stroke-miterlimit="10" stroke-width="1.3612669416666667" stroke-dasharray=""/><g transform="translate(310.4302662932942,702.1687138504998) translate(-310.4302662932942,-702.1687138504998)"><path fill="black" stroke="none" paint-order="stroke fill markers" d=" M 324.0429357099609 695.3623791421664 L 310.4302662932942 702.1687138504998 L 324.0429357099609 708.9750485588331 Z"/></g></g><g><g><rect fill="white" stroke="none" x="151.4736041440299" y="770.7765677104996" width="80.99147285523438" height="21.23576429"/></g><text fill="black" stroke="none" font-family="sans-serif" font-size="11pt" font-style="normal" font-weight="normal" text-decoration="normal" x="153.9238846390299" y="785.4782506804996" text-anchor="start" dominant-baseline="alphabetic" xml:space="preserve">send(token)</text></g><g><path fill="none" stroke="black" paint-order="fill stroke markers" d=" M 294.0950629932942 792.0123320004997 L 91.88551856249998 792.0123320004997" stroke-miterlimit="10" stroke-width="1.3612669416666667" stroke-dasharray="6.53408132"/><g transform="translate(89.84361814999998,792.0123320004997) translate(-89.84361814999998,-792.0123320004997)"><path fill="none" stroke="black" paint-order="fill stroke markers" d=" M 103.83886253305401 785.7689345148763 L 91.37391801554946 792.0123320004997 L 103.83886253305401 798.2557294861231" stroke-miterlimit="10" stroke-width="1.3612669416666667"/></g></g><g><g><rect fill="white" stroke="none" x="123.57360261815099" y="860.6201858604995" width="136.7914759069922" height="21.23576429"/></g><text fill="black" stroke="none" font-family="sans-serif" font-size="11pt" font-style="normal" font-weight="normal" text-decoration="normal" x="126.02388311315099" y="875.3218688304995" text-anchor="start" dominant-baseline="alphabetic" xml:space="preserve">fullOccupancy(shop)</text></g><g><path fill="none" stroke="black" paint-order="fill stroke markers" d=" M 294.0950629932942 881.8559501504996 L 91.88551856249998 881.8559501504996" stroke-miterlimit="10" stroke-width="1.3612669416666667" stroke-dasharray="6.53408132"/><g transform="translate(89.84361814999998,881.8559501504996) translate(-89.84361814999998,-881.8559501504996)"><path fill="none" stroke="black" paint-order="fill stroke markers" d=" M 103.83886253305401 875.6125526648761 L 91.37391801554946 881.8559501504996 L 103.83886253305401 888.099347636123" stroke-miterlimit="10" stroke-width="1.3612669416666667"/></g></g><g><g/><path fill="none" stroke="black" paint-order="fill stroke markers" d=" M 16.33520329999999 202.31149287049996 L 359.43587619329423 202.31149287049996 L 359.43587619329423 337.89368026049993 L 16.33520329999999 337.89368026049993 L 16.33520329999999 202.31149287049996 Z" stroke-miterlimit="10" stroke-width="2.3336004714285714" stroke-dasharray=""/><path fill="white" stroke="black" paint-order="fill stroke markers" d=" M 16.33520329999999 202.31149287049996 L 16.33520329999999 221.91373683049997 L 73.86015549326171 221.91373683049997 L 83.66127747326172 212.11261485049997 L 83.66127747326172 202.31149287049996 L 16.33520329999999 202.31149287049996" stroke-miterlimit="10" stroke-width="2.3336004714285714" stroke-dasharray=""/><text fill="black" stroke="none" font-family="sans-serif" font-size="8.8pt" font-style="normal" font-weight="bold" text-decoration="normal" x="32.67040659999999" y="215.37965551049996" text-anchor="start" dominant-baseline="alphabetic" xml:space="preserve">loop</text></g><g><g/><path fill="none" stroke="black" paint-order="fill stroke markers" d=" M 16.33520329999999 453.8736236904999 L 359.43587619329423 453.8736236904999 L 359.43587619329423 589.4558110804999 L 16.33520329999999 589.4558110804999 L 16.33520329999999 453.8736236904999 Z" stroke-miterlimit="10" stroke-width="2.3336004714285714" stroke-dasharray=""/><path fill="white" stroke="black" paint-order="fill stroke markers" d=" M 16.33520329999999 453.8736236904999 L 16.33520329999999 473.47586765049994 L 67.46015587473144 473.47586765049994 L 77.26127785473145 463.67474567049993 L 77.26127785473145 453.8736236904999 L 16.33520329999999 453.8736236904999" stroke-miterlimit="10" stroke-width="2.3336004714285714" stroke-dasharray=""/><text fill="black" stroke="none" font-family="sans-serif" font-size="8.8pt" font-style="normal" font-weight="bold" text-decoration="normal" x="32.67040659999999" y="466.94178633049995" text-anchor="start" dominant-baseline="alphabetic" xml:space="preserve">opt</text></g><g><g/><path fill="none" stroke="black" paint-order="fill stroke markers" d=" M 16.33520329999999 726.6715188004997 L 359.43587619329423 726.6715188004997 L 359.43587619329423 906.3587551004996 L 16.33520329999999 906.3587551004996 L 16.33520329999999 726.6715188004997 Z" stroke-miterlimit="10" stroke-width="2.3336004714285714" stroke-dasharray=""/><path fill="white" stroke="black" paint-order="fill stroke markers" d=" M 16.33520329999999 726.6715188004997 L 16.33520329999999 746.2737627604997 L 62.76924648905028 746.2737627604997 L 72.57036846905028 736.4726407804997 L 72.57036846905028 726.6715188004997 L 16.33520329999999 726.6715188004997" stroke-miterlimit="10" stroke-width="2.3336004714285714" stroke-dasharray=""/><text fill="black" stroke="none" font-family="sans-serif" font-size="8.8pt" font-style="normal" font-weight="bold" text-decoration="normal" x="32.67040659999999" y="739.7396814404997" text-anchor="start" dominant-baseline="alphabetic" xml:space="preserve">alt</text><text fill="black" stroke="none" font-family="sans-serif" font-size="8.8pt" font-style="normal" font-weight="bold" text-decoration="normal" x="88.90557176905028" y="739.7396814404997" text-anchor="start" dominant-baseline="alphabetic" xml:space="preserve">[shop available]</text><g><path fill="none" stroke="black" paint-order="fill stroke markers" d=" M 16.33520329999999 816.5151369504996 L 359.43587619329423 816.5151369504996" stroke-miterlimit="10" stroke-width="2.3336004714285714" stroke-dasharray="4.083800825"/></g><g/><text fill="black" stroke="none" font-family="sans-serif" font-size="8.8pt" font-style="normal" font-weight="bold" text-decoration="normal" x="88.90557176905028" y="829.5832995904996" text-anchor="start" dominant-baseline="alphabetic" xml:space="preserve">[shop queue is full]</text></g><g/></g><g/></g></svg>