<svg version="1.1" xmlns="http://www.w3.org/2000/svg" xmlns:xlink="http://www.w3.org/1999/xlink" width="383" height="852"><defs/><g><g/><g/><g/><g/><g/><g/><g/><g/><g/><g/><g/><g/><g/><g/><g><rect fill="white" stroke="none" x="0" y="0" width="383" height="852"/></g><g/><g><path fill="none" stroke="black" paint-order="fill stroke markers" d=" M 81.67601649999999 87.9650697705 L 81.67601649999999 852.4525842104997" stroke-miterlimit="10" stroke-width="1.3612669416666667" stroke-dasharray="12.565541,5.445067766666667"/><path fill="none" stroke="black" paint-order="fill stroke markers" d=" M 302.2626646432942 87.9650697705 L 302.2626646432942 852.4525842104997" stroke-miterlimit="10" stroke-width="1.3612669416666667" stroke-dasharray="12.565541,5.445067766666667"/></g><g><g><path fill="white" stroke="black" paint-order="fill stroke markers" d=" M 90.987082381 18.867159811499988 A 9.311065881 9.311065881 0 1 1 90.98707772546743 18.857848747170827 M 81.67601649999999 28.17822569249999 L 81.67601649999999 48.10717371849999 M 69.914670124 35.36571514449999 L 93.43736287599998 35.36571514449999 M 81.67601649999999 48.10717371849999 L 69.914670124 66.72930548049999 M 81.67601649999999 48.10717371849999 L 93.43736287599998 66.72930548049999" stroke-miterlimit="10" stroke-width="2.7769845610000004" stroke-dasharray=""/></g><g><text fill="black" stroke="none" font-family="sans-serif" font-size="11pt" font-style="normal" font-weight="normal" text-decoration="normal" x="50.6487433218994" y="83.06450878049999" text-anchor="start" dominant-baseline="alphabetic" xml:space="preserve">Customer</text></g><path fill="none" stroke="none"/><g><path fill="white" stroke="black" paint-order="fill stroke markers" d=" M 269.72987844847535 43.8600208605 L 334.795450838113 43.8600208605 L 334.795450838113 87.9650697705 L 269.72987844847535 87.9650697705 L 269.72987844847535 43.8600208605 Z" stroke-miterlimit="10" stroke-width="2.613632528" stroke-dasharray=""/></g><g><g/><text fill="black" stroke="none" font-family="sans-serif" font-size="11pt" font-style="normal" font-weight="normal" text-decoration="normal" x="287.45357402897537" y="71.62986647049999" text-anchor="start" dominant-baseline="alphabetic" xml:space="preserve">Clup</text></g></g><g><path fill="white" stroke="black" paint-order="fill stroke markers" d=" M 73.50841485 223.54725716049998 L 89.84361814999998 223.54725716049998 L 89.84361814999998 806.7140149704996 L 73.50841485 806.7140149704996 L 73.50841485 223.54725716049998" stroke-miterlimit="10" stroke-width="1.3612669416666667" stroke-dasharray=""/><path fill="white" stroke="black" paint-order="fill stroke markers" d=" M 294.0950629932942 223.54725716049998 L 310.4302662932942 223.54725716049998 L 310.4302662932942 269.28582640049996 L 294.0950629932942 269.28582640049996 L 294.0950629932942 223.54725716049998" stroke-miterlimit="10" stroke-width="1.3612669416666667" stroke-dasharray=""/><path fill="white" stroke="black" paint-order="fill stroke markers" d=" M 294.0950629932942 315.02439564049996 L 310.4302662932942 315.02439564049996 L 310.4302662932942 360.76296488049996 L 294.0950629932942 360.76296488049996 L 294.0950629932942 315.02439564049996" stroke-miterlimit="10" stroke-width="1.3612669416666667" stroke-dasharray=""/><path fill="white" stroke="black" paint-order="fill stroke markers" d=" M 294.0950629932942 406.50153412049997 L 310.4302662932942 406.50153412049997 L 310.4302662932942 452.2401033605 L 294.0950629932942 452.2401033605 L 294.0950629932942 406.50153412049997" stroke-miterlimit="10" stroke-width="1.3612669416666667" stroke-dasharray=""/><path fill="white" stroke="black" paint-order="fill stroke markers" d=" M 294.0950629932942 497.9786726005 L 310.4302662932942 497.9786726005 L 310.4302662932942 543.7172418404999 L 294.0950629932942 543.7172418404999 L 294.0950629932942 497.9786726005" stroke-miterlimit="10" stroke-width="1.3612669416666667" stroke-dasharray=""/><path fill="white" stroke="black" paint-order="fill stroke markers" d=" M 294.0950629932942 633.5608599904998 L 310.4302662932942 633.5608599904998 L 310.4302662932942 679.2994292304998 L 294.0950629932942 679.2994292304998 L 294.0950629932942 633.5608599904998" stroke-miterlimit="10" stroke-width="1.3612669416666667" stroke-dasharray=""/><path fill="white" stroke="black" paint-order="fill stroke markers" d=" M 294.0950629932942 749.5408034204997 L 310.4302662932942 749.5408034204997 L 310.4302662932942 795.2793726604997 L 294.0950629932942 795.2793726604997 L 294.0950629932942 749.5408034204997" stroke-miterlimit="10" stroke-width="1.3612669416666667" stroke-dasharray=""/><path fill="none" stroke="none"/><g><g/><path fill="white" stroke="black" paint-order="fill stroke markers" d=" M 66.97433353 120.63547637049999 L 316.9643476132942 120.63547637049999 L 316.9643476132942 177.80868792049998 L 66.97433353 177.80868792049998 L 66.97433353 120.63547637049999 Z" stroke-miterlimit="10" stroke-width="2.3336004714285714" stroke-dasharray=""/><path fill="white" stroke="black" paint-order="fill stroke markers" d=" M 66.97433353 120.63547637049999 L 66.97433353 140.2377203305 L 115.09928515105713 140.2377203305 L 124.90040713105714 130.4365983505 L 124.90040713105714 120.63547637049999 L 66.97433353 120.63547637049999" stroke-miterlimit="10" stroke-width="2.3336004714285714" stroke-dasharray=""/><text fill="black" stroke="none" font-family="sans-serif" font-size="8.8pt" font-style="normal" font-weight="bold" text-decoration="normal" x="83.30953683" y="133.70363901049998" text-anchor="start" dominant-baseline="alphabetic" xml:space="preserve">ref</text></g><g><text fill="black" stroke="none" font-family="sans-serif" font-size="11pt" font-style="normal" font-weight="normal" text-decoration="normal" x="174.32388616490883" y="161.9402047147857" text-anchor="start" dominant-baseline="alphabetic" xml:space="preserve">Login</text></g><g><g><rect fill="white" stroke="none" x="128.26451295750647" y="202.3114928705" width="127.40965522828125" height="21.23576429"/></g><text fill="black" stroke="none" font-family="sans-serif" font-size="11pt" font-style="normal" font-weight="normal" text-decoration="normal" x="130.71479345250646" y="217.01317584049997" text-anchor="start" dominant-baseline="alphabetic" xml:space="preserve">search(shopName)</text></g><g><path fill="none" stroke="black" paint-order="fill stroke markers" d=" M 89.84361814999998 223.54725716049998 L 280.64574560962757 223.54725716049998" stroke-miterlimit="10" stroke-width="1.3612669416666667" stroke-dasharray=""/><g transform="translate(294.0950629932942,223.54725716049998) translate(-294.0950629932942,-223.54725716049998)"><path fill="black" stroke="none" paint-order="stroke fill markers" d=" M 280.48239357662754 216.74092245216664 L 294.0950629932942 223.54725716049998 L 280.48239357662754 230.35359186883332 Z"/></g></g><g><g><rect fill="white" stroke="none" x="109.17360872166661" y="248.05006211049997" width="165.59146369996094" height="21.23576429"/></g><text fill="black" stroke="none" font-family="sans-serif" font-size="11pt" font-style="normal" font-weight="normal" text-decoration="normal" x="111.62388921666661" y="262.7517450805" text-anchor="start" dominant-baseline="alphabetic" xml:space="preserve">showResults(shopName)</text></g><g><path fill="none" stroke="black" paint-order="fill stroke markers" d=" M 294.0950629932942 269.28582640049996 L 91.88551856249998 269.28582640049996" stroke-miterlimit="10" stroke-width="1.3612669416666667" stroke-dasharray="6.53408132"/><g transform="translate(89.84361814999998,269.28582640049996) translate(-89.84361814999998,-269.28582640049996)"><path fill="none" stroke="black" paint-order="fill stroke markers" d=" M 103.83886253305401 263.0424289148765 L 91.37391801554946 269.28582640049996 L 103.83886253305401 275.5292238861234" stroke-miterlimit="10" stroke-width="1.3612669416666667"/></g></g><g><g><rect fill="white" stroke="none" x="150.2826976193717" y="293.78863135049994" width="83.37328590455078" height="21.23576429"/></g><text fill="black" stroke="none" font-family="sans-serif" font-size="11pt" font-style="normal" font-weight="normal" text-decoration="normal" x="152.7329781143717" y="308.4903143204999" text-anchor="start" dominant-baseline="alphabetic" xml:space="preserve">select(shop)</text></g><g><path fill="none" stroke="black" paint-order="fill stroke markers" d=" M 89.84361814999998 315.02439564049996 L 280.64574560962757 315.02439564049996" stroke-miterlimit="10" stroke-width="1.3612669416666667" stroke-dasharray=""/><g transform="translate(294.0950629932942,315.02439564049996) translate(-294.0950629932942,-315.02439564049996)"><path fill="black" stroke="none" paint-order="stroke fill markers" d=" M 280.48239357662754 308.2180609321666 L 294.0950629932942 315.02439564049996 L 280.48239357662754 321.8307303488333 Z"/></g></g><g><g><rect fill="white" stroke="none" x="125.84633439915685" y="339.52720059049994" width="132.24601234498047" height="21.23576429"/></g><text fill="black" stroke="none" font-family="sans-serif" font-size="11pt" font-style="normal" font-weight="normal" text-decoration="normal" x="128.29661489415685" y="354.2288835604999" text-anchor="start" dominant-baseline="alphabetic" xml:space="preserve">show(bookingForm)</text></g><g><path fill="none" stroke="black" paint-order="fill stroke markers" d=" M 294.0950629932942 360.76296488049996 L 91.88551856249998 360.76296488049996" stroke-miterlimit="10" stroke-width="1.3612669416666667" stroke-dasharray="6.53408132"/><g transform="translate(89.84361814999998,360.76296488049996) translate(-89.84361814999998,-360.76296488049996)"><path fill="none" stroke="black" paint-order="fill stroke markers" d=" M 103.83886253305401 354.5195673948765 L 91.37391801554946 360.76296488049996 L 103.83886253305401 367.0063623661234" stroke-miterlimit="10" stroke-width="1.3612669416666667"/></g></g><g><g><rect fill="white" stroke="none" x="151.80996889012366" y="385.26576983049995" width="80.31874336304688" height="21.23576429"/></g><text fill="black" stroke="none" font-family="sans-serif" font-size="11pt" font-style="normal" font-weight="normal" text-decoration="normal" x="154.26024938512364" y="399.9674528004999" text-anchor="start" dominant-baseline="alphabetic" xml:space="preserve">select(date)</text></g><g><path fill="none" stroke="black" paint-order="fill stroke markers" d=" M 89.84361814999998 406.50153412049997 L 280.64574560962757 406.50153412049997" stroke-miterlimit="10" stroke-width="1.3612669416666667" stroke-dasharray=""/><g transform="translate(294.0950629932942,406.50153412049997) translate(-294.0950629932942,-406.50153412049997)"><path fill="black" stroke="none" paint-order="stroke fill markers" d=" M 280.48239357662754 399.69519941216663 L 294.0950629932942 406.50153412049997 L 280.48239357662754 413.3078688288333 Z"/></g></g><g><g><rect fill="white" stroke="none" x="136.1099681271842" y="431.00433907049995" width="111.71874488892578" height="21.23576429"/></g><text fill="black" stroke="none" font-family="sans-serif" font-size="11pt" font-style="normal" font-weight="normal" text-decoration="normal" x="138.5602486221842" y="445.70602204049993" text-anchor="start" dominant-baseline="alphabetic" xml:space="preserve">show(timeTable)</text></g><g><path fill="none" stroke="black" paint-order="fill stroke markers" d=" M 294.0950629932942 452.2401033605 L 91.88551856249998 452.2401033605" stroke-miterlimit="10" stroke-width="1.3612669416666667" stroke-dasharray="6.53408132"/><g transform="translate(89.84361814999998,452.2401033605) translate(-89.84361814999998,-452.2401033605)"><path fill="none" stroke="black" paint-order="fill stroke markers" d=" M 103.83886253305401 445.9967058748765 L 91.37391801554946 452.2401033605 L 103.83886253305401 458.48350084612343" stroke-miterlimit="10" stroke-width="1.3612669416666667"/></g></g><g><g><rect fill="white" stroke="none" x="152.30996889012366" y="476.74290831049996" width="79.31874336304688" height="21.23576429"/></g><text fill="black" stroke="none" font-family="sans-serif" font-size="11pt" font-style="normal" font-weight="normal" text-decoration="normal" x="154.76024938512364" y="491.44459128049994" text-anchor="start" dominant-baseline="alphabetic" xml:space="preserve">select(time)</text></g><g><path fill="none" stroke="black" paint-order="fill stroke markers" d=" M 89.84361814999998 497.9786726005 L 280.64574560962757 497.9786726005" stroke-miterlimit="10" stroke-width="1.3612669416666667" stroke-dasharray=""/><g transform="translate(294.0950629932942,497.9786726005) translate(-294.0950629932942,-497.9786726005)"><path fill="black" stroke="none" paint-order="stroke fill markers" d=" M 280.48239357662754 491.17233789216664 L 294.0950629932942 497.9786726005 L 280.48239357662754 504.7850073088333 Z"/></g></g><g><g><rect fill="white" stroke="none" x="135.70087999241858" y="522.4814775504999" width="112.53692115845703" height="21.23576429"/></g><text fill="black" stroke="none" font-family="sans-serif" font-size="11pt" font-style="normal" font-weight="normal" text-decoration="normal" x="138.15116048741857" y="537.1831605204999" text-anchor="start" dominant-baseline="alphabetic" xml:space="preserve">list(departments)</text></g><g><path fill="none" stroke="black" paint-order="fill stroke markers" d=" M 294.0950629932942 543.7172418404999 L 91.88551856249998 543.7172418404999" stroke-miterlimit="10" stroke-width="1.3612669416666667" stroke-dasharray="6.53408132"/><g transform="translate(89.84361814999998,543.7172418404999) translate(-89.84361814999998,-543.7172418404999)"><path fill="none" stroke="black" paint-order="fill stroke markers" d=" M 103.83886253305401 537.4738443548765 L 91.37391801554946 543.7172418404999 L 103.83886253305401 549.9606393261233" stroke-miterlimit="10" stroke-width="1.3612669416666667"/></g></g><g><g><rect fill="white" stroke="none" x="125.80087846653966" y="612.3250957004998" width="132.33692421021485" height="21.23576429"/></g><text fill="black" stroke="none" font-family="sans-serif" font-size="11pt" font-style="normal" font-weight="normal" text-decoration="normal" x="128.25115896153966" y="627.0267786704998" text-anchor="start" dominant-baseline="alphabetic" xml:space="preserve">select(departments)</text></g><g><path fill="none" stroke="black" paint-order="fill stroke markers" d=" M 89.84361814999998 633.5608599904998 L 280.64574560962757 633.5608599904998" stroke-miterlimit="10" stroke-width="1.3612669416666667" stroke-dasharray=""/><g transform="translate(294.0950629932942,633.5608599904998) translate(-294.0950629932942,-633.5608599904998)"><path fill="black" stroke="none" paint-order="stroke fill markers" d=" M 280.48239357662754 626.7545252821665 L 294.0950629932942 633.5608599904998 L 280.48239357662754 640.3671946988331 Z"/></g></g><g><g><rect fill="white" stroke="none" x="123.68269533055333" y="658.0636649404997" width="136.5732904821875" height="21.23576429"/></g><text fill="black" stroke="none" font-family="sans-serif" font-size="11pt" font-style="normal" font-weight="normal" text-decoration="normal" x="126.13297582555333" y="672.7653479104997" text-anchor="start" dominant-baseline="alphabetic" xml:space="preserve">confim(departments)</text></g><g><path fill="none" stroke="black" paint-order="fill stroke markers" d=" M 294.0950629932942 679.2994292304998 L 103.29293553366665 679.2994292304998" stroke-miterlimit="10" stroke-width="1.3612669416666667" stroke-dasharray="6.53408132"/><g transform="translate(89.84361814999998,679.2994292304998) translate(-89.84361814999998,-679.2994292304998)"><path fill="black" stroke="none" paint-order="stroke fill markers" d=" M 103.45628756666665 672.4930945221664 L 89.84361814999998 679.2994292304998 L 103.45628756666665 686.1057639388331 Z"/></g></g><g><g><rect fill="white" stroke="none" x="163.33724206822424" y="728.3050391304997" width="57.264197006845706" height="21.23576429"/></g><text fill="black" stroke="none" font-family="sans-serif" font-size="11pt" font-style="normal" font-weight="normal" text-decoration="normal" x="165.78752256322423" y="743.0067221004997" text-anchor="start" dominant-baseline="alphabetic" xml:space="preserve">submit()</text></g><g><path fill="none" stroke="black" paint-order="fill stroke markers" d=" M 89.84361814999998 749.5408034204997 L 280.64574560962757 749.5408034204997" stroke-miterlimit="10" stroke-width="1.3612669416666667" stroke-dasharray=""/><g transform="translate(294.0950629932942,749.5408034204997) translate(-294.0950629932942,-749.5408034204997)"><path fill="black" stroke="none" paint-order="stroke fill markers" d=" M 280.48239357662754 742.7344687121664 L 294.0950629932942 749.5408034204997 L 280.48239357662754 756.3471381288331 Z"/></g></g><g><g><rect fill="white" stroke="none" x="151.4736041440299" y="774.0436083704997" width="80.99147285523438" height="21.23576429"/></g><text fill="black" stroke="none" font-family="sans-serif" font-size="11pt" font-style="normal" font-weight="normal" text-decoration="normal" x="153.9238846390299" y="788.7452913404996" text-anchor="start" dominant-baseline="alphabetic" xml:space="preserve">send(token)</text></g><g><path fill="none" stroke="black" paint-order="fill stroke markers" d=" M 294.0950629932942 795.2793726604997 L 91.88551856249998 795.2793726604997" stroke-miterlimit="10" stroke-width="1.3612669416666667" stroke-dasharray="6.53408132"/><g transform="translate(89.84361814999998,795.2793726604997) translate(-89.84361814999998,-795.2793726604997)"><path fill="none" stroke="black" paint-order="fill stroke markers" d=" M 103.83886253305401 789.0359751748763 L 91.37391801554946 795.2793726604997 L 103.83886253305401 801.5227701461231" stroke-miterlimit="10" stroke-width="1.3612669416666667"/></g></g><g><g/><path fill="none" stroke="black" paint-order="fill stroke markers" d=" M 16.33520329999999 568.2200467904999 L 359.43587619329423 568.2200467904999 L 359.43587619329423 703.8022341804998 L 16.33520329999999 703.8022341804998 L 16.33520329999999 568.2200467904999 Z" stroke-miterlimit="10" stroke-width="2.3336004714285714" stroke-dasharray=""/><path fill="white" stroke="black" paint-order="fill stroke markers" d=" M 16.33520329999999 568.2200467904999 L 16.33520329999999 587.8222907504999 L 67.46015587473144 587.8222907504999 L 77.26127785473145 578.0211687704998 L 77.26127785473145 568.2200467904999 L 16.33520329999999 568.2200467904999" stroke-miterlimit="10" stroke-width="2.3336004714285714" stroke-dasharray=""/><text fill="black" stroke="none" font-family="sans-serif" font-size="8.8pt" font-style="normal" font-weight="bold" text-decoration="normal" x="32.67040659999999" y="581.2882094304998" text-anchor="start" dominant-baseline="alphabetic" xml:space="preserve">opt</text></g></g><g/></g></svg>