<svg version="1.1" xmlns="http://www.w3.org/2000/svg" xmlns:xlink="http://www.w3.org/1999/xlink" width="383" height="921"><defs/><g><g/><g/><g/><g/><g/><g/><g/><g/><g/><g/><g/><g/><g/><g/><g><rect fill="white" stroke="none" x="0" y="0" width="383" height="921"/></g><g/><g><path fill="none" stroke="black" paint-order="fill stroke markers" d=" M 81.67601649999999 87.9650697705 L 81.67601649999999 921.0604380704997" stroke-miterlimit="10" stroke-width="1.3612669416666667" stroke-dasharray="12.565541,5.445067766666667"/><path fill="none" stroke="black" paint-order="fill stroke markers" d=" M 302.2626646432942 87.9650697705 L 302.2626646432942 921.0604380704997" stroke-miterlimit="10" stroke-width="1.3612669416666667" stroke-dasharray="12.565541,5.445067766666667"/></g><g><g><path fill="white" stroke="black" paint-order="fill stroke markers" d=" M 90.987082381 18.867159811499988 A 9.311065881 9.311065881 0 1 1 90.98707772546743 18.857848747170827 M 81.67601649999999 28.17822569249999 L 81.67601649999999 48.10717371849999 M 69.914670124 35.36571514449999 L 93.43736287599998 35.36571514449999 M 81.67601649999999 48.10717371849999 L 69.914670124 66.72930548049999 M 81.67601649999999 48.10717371849999 L 93.43736287599998 66.72930548049999" stroke-miterlimit="10" stroke-width="2.7769845610000004" stroke-dasharray=""/></g><g><text fill="black" stroke="none" font-family="sans-serif" font-size="11pt" font-style="normal" font-weight="normal" text-decoration="normal" x="50.6487433218994" y="83.06450878049999" text-anchor="start" dominant-baseline="alphabetic" xml:space="preserve">Customer</text></g><path fill="none" stroke="none"/><g><path fill="white" stroke="black" paint-order="fill stroke markers" d=" M 269.72987844847535 43.8600208605 L 334.795450838113 43.8600208605 L 334.795450838113 87.9650697705 L 269.72987844847535 87.9650697705 L 269.72987844847535 43.8600208605 Z" stroke-miterlimit="10" stroke-width="2.613632528" stroke-dasharray=""/></g><g><g/><text fill="black" stroke="none" font-family="sans-serif" font-size="11pt" font-style="normal" font-weight="normal" text-decoration="normal" x="287.45357402897537" y="71.62986647049999" text-anchor="start" dominant-baseline="alphabetic" xml:space="preserve">Clup</text></g></g><g><path fill="white" stroke="black" paint-order="fill stroke markers" d=" M 73.50841485 267.65230607049995 L 89.84361814999998 267.65230607049995 L 89.84361814999998 875.3218688304996 L 73.50841485 875.3218688304996 L 73.50841485 267.65230607049995" stroke-miterlimit="10" stroke-width="1.3612669416666667" stroke-dasharray=""/><path fill="white" stroke="black" paint-order="fill stroke markers" d=" M 294.0950629932942 267.65230607049995 L 310.4302662932942 267.65230607049995 L 310.4302662932942 313.39087531049995 L 294.0950629932942 313.39087531049995 L 294.0950629932942 267.65230607049995" stroke-miterlimit="10" stroke-width="1.3612669416666667" stroke-dasharray=""/><path fill="white" stroke="black" paint-order="fill stroke markers" d=" M 294.0950629932942 383.63224950049994 L 310.4302662932942 383.63224950049994 L 310.4302662932942 429.37081874049994 L 294.0950629932942 429.37081874049994 L 294.0950629932942 383.63224950049994" stroke-miterlimit="10" stroke-width="1.3612669416666667" stroke-dasharray=""/><path fill="white" stroke="black" paint-order="fill stroke markers" d=" M 294.0950629932942 475.10938798049995 L 310.4302662932942 475.10938798049995 L 310.4302662932942 520.8479572204999 L 294.0950629932942 520.8479572204999 L 294.0950629932942 475.10938798049995" stroke-miterlimit="10" stroke-width="1.3612669416666667" stroke-dasharray=""/><path fill="white" stroke="black" paint-order="fill stroke markers" d=" M 294.0950629932942 566.5865264604998 L 310.4302662932942 566.5865264604998 L 310.4302662932942 612.3250957004998 L 294.0950629932942 612.3250957004998 L 294.0950629932942 566.5865264604998" stroke-miterlimit="10" stroke-width="1.3612669416666667" stroke-dasharray=""/><path fill="white" stroke="black" paint-order="fill stroke markers" d=" M 294.0950629932942 702.1687138504998 L 310.4302662932942 702.1687138504998 L 310.4302662932942 747.9072830904997 L 294.0950629932942 747.9072830904997 L 294.0950629932942 702.1687138504998" stroke-miterlimit="10" stroke-width="1.3612669416666667" stroke-dasharray=""/><path fill="white" stroke="black" paint-order="fill stroke markers" d=" M 294.0950629932942 818.1486572804997 L 310.4302662932942 818.1486572804997 L 310.4302662932942 863.8872265204997 L 294.0950629932942 863.8872265204997 L 294.0950629932942 818.1486572804997" stroke-miterlimit="10" stroke-width="1.3612669416666667" stroke-dasharray=""/><path fill="none" stroke="none"/><g><g/><path fill="white" stroke="black" paint-order="fill stroke markers" d=" M 66.97433353 120.63547637049999 L 316.9643476132942 120.63547637049999 L 316.9643476132942 177.80868792049998 L 66.97433353 177.80868792049998 L 66.97433353 120.63547637049999 Z" stroke-miterlimit="10" stroke-width="2.3336004714285714" stroke-dasharray=""/><path fill="white" stroke="black" paint-order="fill stroke markers" d=" M 66.97433353 120.63547637049999 L 66.97433353 140.2377203305 L 115.09928515105713 140.2377203305 L 124.90040713105714 130.4365983505 L 124.90040713105714 120.63547637049999 L 66.97433353 120.63547637049999" stroke-miterlimit="10" stroke-width="2.3336004714285714" stroke-dasharray=""/><text fill="black" stroke="none" font-family="sans-serif" font-size="8.8pt" font-style="normal" font-weight="bold" text-decoration="normal" x="83.30953683" y="133.70363901049998" text-anchor="start" dominant-baseline="alphabetic" xml:space="preserve">ref</text></g><g><text fill="black" stroke="none" font-family="sans-serif" font-size="11pt" font-style="normal" font-weight="normal" text-decoration="normal" x="174.32388616490883" y="161.9402047147857" text-anchor="start" dominant-baseline="alphabetic" xml:space="preserve">Login</text></g><g><g><rect fill="white" stroke="none" x="128.26451295750647" y="246.41654178049995" width="127.40965522828125" height="21.23576429"/></g><text fill="black" stroke="none" font-family="sans-serif" font-size="11pt" font-style="normal" font-weight="normal" text-decoration="normal" x="130.71479345250646" y="261.11822475049996" text-anchor="start" dominant-baseline="alphabetic" xml:space="preserve">search(shopName)</text></g><g><path fill="none" stroke="black" paint-order="fill stroke markers" d=" M 89.84361814999998 267.65230607049995 L 280.64574560962757 267.65230607049995" stroke-miterlimit="10" stroke-width="1.3612669416666667" stroke-dasharray=""/><g transform="translate(294.0950629932942,267.65230607049995) translate(-294.0950629932942,-267.65230607049995)"><path fill="black" stroke="none" paint-order="stroke fill markers" d=" M 280.48239357662754 260.8459713621666 L 294.0950629932942 267.65230607049995 L 280.48239357662754 274.4586407788333 Z"/></g></g><g><g><rect fill="white" stroke="none" x="109.17360872166661" y="292.15511102049993" width="165.59146369996094" height="21.23576429"/></g><text fill="black" stroke="none" font-family="sans-serif" font-size="11pt" font-style="normal" font-weight="normal" text-decoration="normal" x="111.62388921666661" y="306.8567939904999" text-anchor="start" dominant-baseline="alphabetic" xml:space="preserve">showResults(shopName)</text></g><g><path fill="none" stroke="black" paint-order="fill stroke markers" d=" M 294.0950629932942 313.39087531049995 L 91.88551856249998 313.39087531049995" stroke-miterlimit="10" stroke-width="1.3612669416666667" stroke-dasharray="6.53408132"/><g transform="translate(89.84361814999998,313.39087531049995) translate(-89.84361814999998,-313.39087531049995)"><path fill="none" stroke="black" paint-order="fill stroke markers" d=" M 103.83886253305401 307.1474778248765 L 91.37391801554946 313.39087531049995 L 103.83886253305401 319.6342727961234" stroke-miterlimit="10" stroke-width="1.3612669416666667"/></g></g><g><g><rect fill="white" stroke="none" x="150.2826976193717" y="362.3964852104999" width="83.37328590455078" height="21.23576429"/></g><text fill="black" stroke="none" font-family="sans-serif" font-size="11pt" font-style="normal" font-weight="normal" text-decoration="normal" x="152.7329781143717" y="377.0981681804999" text-anchor="start" dominant-baseline="alphabetic" xml:space="preserve">select(shop)</text></g><g><path fill="none" stroke="black" paint-order="fill stroke markers" d=" M 89.84361814999998 383.63224950049994 L 280.64574560962757 383.63224950049994" stroke-miterlimit="10" stroke-width="1.3612669416666667" stroke-dasharray=""/><g transform="translate(294.0950629932942,383.63224950049994) translate(-294.0950629932942,-383.63224950049994)"><path fill="black" stroke="none" paint-order="stroke fill markers" d=" M 280.48239357662754 376.8259147921666 L 294.0950629932942 383.63224950049994 L 280.48239357662754 390.4385842088333 Z"/></g></g><g><g><rect fill="white" stroke="none" x="125.84633439915685" y="408.1350544504999" width="132.24601234498047" height="21.23576429"/></g><text fill="black" stroke="none" font-family="sans-serif" font-size="11pt" font-style="normal" font-weight="normal" text-decoration="normal" x="128.29661489415685" y="422.8367374204999" text-anchor="start" dominant-baseline="alphabetic" xml:space="preserve">show(bookingForm)</text></g><g><path fill="none" stroke="black" paint-order="fill stroke markers" d=" M 294.0950629932942 429.37081874049994 L 91.88551856249998 429.37081874049994" stroke-miterlimit="10" stroke-width="1.3612669416666667" stroke-dasharray="6.53408132"/><g transform="translate(89.84361814999998,429.37081874049994) translate(-89.84361814999998,-429.37081874049994)"><path fill="none" stroke="black" paint-order="fill stroke markers" d=" M 103.83886253305401 423.1274212548765 L 91.37391801554946 429.37081874049994 L 103.83886253305401 435.6142162261234" stroke-miterlimit="10" stroke-width="1.3612669416666667"/></g></g><g><g><rect fill="white" stroke="none" x="151.80996889012366" y="453.8736236904999" width="80.31874336304688" height="21.23576429"/></g><text fill="black" stroke="none" font-family="sans-serif" font-size="11pt" font-style="normal" font-weight="normal" text-decoration="normal" x="154.26024938512364" y="468.5753066604999" text-anchor="start" dominant-baseline="alphabetic" xml:space="preserve">select(date)</text></g><g><path fill="none" stroke="black" paint-order="fill stroke markers" d=" M 89.84361814999998 475.10938798049995 L 280.64574560962757 475.10938798049995" stroke-miterlimit="10" stroke-width="1.3612669416666667" stroke-dasharray=""/><g transform="translate(294.0950629932942,475.10938798049995) translate(-294.0950629932942,-475.10938798049995)"><path fill="black" stroke="none" paint-order="stroke fill markers" d=" M 280.48239357662754 468.3030532721666 L 294.0950629932942 475.10938798049995 L 280.48239357662754 481.9157226888333 Z"/></g></g><g><g><rect fill="white" stroke="none" x="136.1099681271842" y="499.6121929304999" width="111.71874488892578" height="21.23576429"/></g><text fill="black" stroke="none" font-family="sans-serif" font-size="11pt" font-style="normal" font-weight="normal" text-decoration="normal" x="138.5602486221842" y="514.3138759004999" text-anchor="start" dominant-baseline="alphabetic" xml:space="preserve">show(timeTable)</text></g><g><path fill="none" stroke="black" paint-order="fill stroke markers" d=" M 294.0950629932942 520.8479572204999 L 91.88551856249998 520.8479572204999" stroke-miterlimit="10" stroke-width="1.3612669416666667" stroke-dasharray="6.53408132"/><g transform="translate(89.84361814999998,520.8479572204999) translate(-89.84361814999998,-520.8479572204999)"><path fill="none" stroke="black" paint-order="fill stroke markers" d=" M 103.83886253305401 514.6045597348765 L 91.37391801554946 520.8479572204999 L 103.83886253305401 527.0913547061233" stroke-miterlimit="10" stroke-width="1.3612669416666667"/></g></g><g><g><rect fill="white" stroke="none" x="152.30996889012366" y="545.3507621704998" width="79.31874336304688" height="21.23576429"/></g><text fill="black" stroke="none" font-family="sans-serif" font-size="11pt" font-style="normal" font-weight="normal" text-decoration="normal" x="154.76024938512364" y="560.0524451404998" text-anchor="start" dominant-baseline="alphabetic" xml:space="preserve">select(time)</text></g><g><path fill="none" stroke="black" paint-order="fill stroke markers" d=" M 89.84361814999998 566.5865264604998 L 280.64574560962757 566.5865264604998" stroke-miterlimit="10" stroke-width="1.3612669416666667" stroke-dasharray=""/><g transform="translate(294.0950629932942,566.5865264604998) translate(-294.0950629932942,-566.5865264604998)"><path fill="black" stroke="none" paint-order="stroke fill markers" d=" M 280.48239357662754 559.7801917521665 L 294.0950629932942 566.5865264604998 L 280.48239357662754 573.3928611688332 Z"/></g></g><g><g><rect fill="white" stroke="none" x="135.70087999241858" y="591.0893314104998" width="112.53692115845703" height="21.23576429"/></g><text fill="black" stroke="none" font-family="sans-serif" font-size="11pt" font-style="normal" font-weight="normal" text-decoration="normal" x="138.15116048741857" y="605.7910143804997" text-anchor="start" dominant-baseline="alphabetic" xml:space="preserve">list(departments)</text></g><g><path fill="none" stroke="black" paint-order="fill stroke markers" d=" M 294.0950629932942 612.3250957004998 L 91.88551856249998 612.3250957004998" stroke-miterlimit="10" stroke-width="1.3612669416666667" stroke-dasharray="6.53408132"/><g transform="translate(89.84361814999998,612.3250957004998) translate(-89.84361814999998,-612.3250957004998)"><path fill="none" stroke="black" paint-order="fill stroke markers" d=" M 103.83886253305401 606.0816982148764 L 91.37391801554946 612.3250957004998 L 103.83886253305401 618.5684931861232" stroke-miterlimit="10" stroke-width="1.3612669416666667"/></g></g><g><g><rect fill="white" stroke="none" x="125.80087846653966" y="680.9329495604998" width="132.33692421021485" height="21.23576429"/></g><text fill="black" stroke="none" font-family="sans-serif" font-size="11pt" font-style="normal" font-weight="normal" text-decoration="normal" x="128.25115896153966" y="695.6346325304997" text-anchor="start" dominant-baseline="alphabetic" xml:space="preserve">select(departments)</text></g><g><path fill="none" stroke="black" paint-order="fill stroke markers" d=" M 89.84361814999998 702.1687138504998 L 280.64574560962757 702.1687138504998" stroke-miterlimit="10" stroke-width="1.3612669416666667" stroke-dasharray=""/><g transform="translate(294.0950629932942,702.1687138504998) translate(-294.0950629932942,-702.1687138504998)"><path fill="black" stroke="none" paint-order="stroke fill markers" d=" M 280.48239357662754 695.3623791421664 L 294.0950629932942 702.1687138504998 L 280.48239357662754 708.9750485588331 Z"/></g></g><g><g><rect fill="white" stroke="none" x="123.68269533055333" y="726.6715188004997" width="136.5732904821875" height="21.23576429"/></g><text fill="black" stroke="none" font-family="sans-serif" font-size="11pt" font-style="normal" font-weight="normal" text-decoration="normal" x="126.13297582555333" y="741.3732017704997" text-anchor="start" dominant-baseline="alphabetic" xml:space="preserve">confim(departments)</text></g><g><path fill="none" stroke="black" paint-order="fill stroke markers" d=" M 294.0950629932942 747.9072830904997 L 103.29293553366665 747.9072830904997" stroke-miterlimit="10" stroke-width="1.3612669416666667" stroke-dasharray="6.53408132"/><g transform="translate(89.84361814999998,747.9072830904997) translate(-89.84361814999998,-747.9072830904997)"><path fill="black" stroke="none" paint-order="stroke fill markers" d=" M 103.45628756666665 741.1009483821664 L 89.84361814999998 747.9072830904997 L 103.45628756666665 754.7136177988331 Z"/></g></g><g><g><rect fill="white" stroke="none" x="163.33724206822424" y="796.9128929904997" width="57.264197006845706" height="21.23576429"/></g><text fill="black" stroke="none" font-family="sans-serif" font-size="11pt" font-style="normal" font-weight="normal" text-decoration="normal" x="165.78752256322423" y="811.6145759604997" text-anchor="start" dominant-baseline="alphabetic" xml:space="preserve">submit()</text></g><g><path fill="none" stroke="black" paint-order="fill stroke markers" d=" M 89.84361814999998 818.1486572804997 L 280.64574560962757 818.1486572804997" stroke-miterlimit="10" stroke-width="1.3612669416666667" stroke-dasharray=""/><g transform="translate(294.0950629932942,818.1486572804997) translate(-294.0950629932942,-818.1486572804997)"><path fill="black" stroke="none" paint-order="stroke fill markers" d=" M 280.48239357662754 811.3423225721664 L 294.0950629932942 818.1486572804997 L 280.48239357662754 824.9549919888331 Z"/></g></g><g><g><rect fill="white" stroke="none" x="151.4736041440299" y="842.6514622304996" width="80.99147285523438" height="21.23576429"/></g><text fill="black" stroke="none" font-family="sans-serif" font-size="11pt" font-style="normal" font-weight="normal" text-decoration="normal" x="153.9238846390299" y="857.3531452004996" text-anchor="start" dominant-baseline="alphabetic" xml:space="preserve">send(token)</text></g><g><path fill="none" stroke="black" paint-order="fill stroke markers" d=" M 294.0950629932942 863.8872265204997 L 91.88551856249998 863.8872265204997" stroke-miterlimit="10" stroke-width="1.3612669416666667" stroke-dasharray="6.53408132"/><g transform="translate(89.84361814999998,863.8872265204997) translate(-89.84361814999998,-863.8872265204997)"><path fill="none" stroke="black" paint-order="fill stroke markers" d=" M 103.83886253305401 857.6438290348763 L 91.37391801554946 863.8872265204997 L 103.83886253305401 870.1306240061231" stroke-miterlimit="10" stroke-width="1.3612669416666667"/></g></g><g><g/><path fill="none" stroke="black" paint-order="fill stroke markers" d=" M 16.33520329999999 202.31149287049996 L 359.43587619329423 202.31149287049996 L 359.43587619329423 337.89368026049993 L 16.33520329999999 337.89368026049993 L 16.33520329999999 202.31149287049996 Z" stroke-miterlimit="10" stroke-width="2.3336004714285714" stroke-dasharray=""/><path fill="white" stroke="black" paint-order="fill stroke markers" d=" M 16.33520329999999 202.31149287049996 L 16.33520329999999 221.91373683049997 L 73.86015549326171 221.91373683049997 L 83.66127747326172 212.11261485049997 L 83.66127747326172 202.31149287049996 L 16.33520329999999 202.31149287049996" stroke-miterlimit="10" stroke-width="2.3336004714285714" stroke-dasharray=""/><text fill="black" stroke="none" font-family="sans-serif" font-size="8.8pt" font-style="normal" font-weight="bold" text-decoration="normal" x="32.67040659999999" y="215.37965551049996" text-anchor="start" dominant-baseline="alphabetic" xml:space="preserve">loop</text></g><g><g/><path fill="none" stroke="black" paint-order="fill stroke markers" d=" M 16.33520329999999 636.8279006504998 L 359.43587619329423 636.8279006504998 L 359.43587619329423 772.4100880404998 L 16.33520329999999 772.4100880404998 L 16.33520329999999 636.8279006504998 Z" stroke-miterlimit="10" stroke-width="2.3336004714285714" stroke-dasharray=""/><path fill="white" stroke="black" paint-order="fill stroke markers" d=" M 16.33520329999999 636.8279006504998 L 16.33520329999999 656.4301446104998 L 67.46015587473144 656.4301446104998 L 77.26127785473145 646.6290226304998 L 77.26127785473145 636.8279006504998 L 16.33520329999999 636.8279006504998" stroke-miterlimit="10" stroke-width="2.3336004714285714" stroke-dasharray=""/><text fill="black" stroke="none" font-family="sans-serif" font-size="8.8pt" font-style="normal" font-weight="bold" text-decoration="normal" x="32.67040659999999" y="649.8960632904998" text-anchor="start" dominant-baseline="alphabetic" xml:space="preserve">opt</text></g></g><g/></g></svg>