<svg version="1.1" xmlns="http://www.w3.org/2000/svg" xmlns:xlink="http://www.w3.org/1999/xlink" width="562" height="698"><defs/><g><g/><g/><g/><g/><g/><g/><g/><g/><g/><g/><g><rect fill="white" stroke="none" x="0" y="0" width="562" height="698"/></g><g/><g><path fill="none" stroke="black" paint-order="fill stroke markers" d=" M 81.67601649999999 87.9650697705 L 81.67601649999999 602.5239737204998" stroke-miterlimit="10" stroke-width="1.3612669416666667" stroke-dasharray="12.565541,5.445067766666667"/><path fill="none" stroke="black" paint-order="fill stroke markers" d=" M 232.38994583225912 87.9650697705 L 232.38994583225912 698.9016731904999" stroke-miterlimit="10" stroke-width="1.3612669416666667" stroke-dasharray="12.565541,5.445067766666667"/><path fill="none" stroke="black" paint-order="fill stroke markers" d=" M 413.2311487240885 87.9650697705 L 413.2311487240885 698.9016731904999" stroke-miterlimit="10" stroke-width="1.3612669416666667" stroke-dasharray="12.565541,5.445067766666667"/></g><g><g><path fill="white" stroke="black" paint-order="fill stroke markers" d=" M 90.987082381 18.867159811499988 A 9.311065881 9.311065881 0 1 1 90.98707772546743 18.857848747170827 M 81.67601649999999 28.17822569249999 L 81.67601649999999 48.10717371849999 M 69.914670124 35.36571514449999 L 93.43736287599998 35.36571514449999 M 81.67601649999999 48.10717371849999 L 69.914670124 66.72930548049999 M 81.67601649999999 48.10717371849999 L 93.43736287599998 66.72930548049999" stroke-miterlimit="10" stroke-width="2.7769845610000004" stroke-dasharray=""/></g><g><text fill="black" stroke="none" font-family="sans-serif" font-size="11pt" font-style="normal" font-weight="normal" text-decoration="normal" x="50.6487433218994" y="83.06450878049999" text-anchor="start" dominant-baseline="alphabetic" xml:space="preserve">Customer</text></g><g><path fill="white" stroke="black" paint-order="fill stroke markers" d=" M 241.7010117132591 18.867159811499988 A 9.311065881 9.311065881 0 1 1 241.70100705772657 18.857848747170827 M 232.38994583225912 28.17822569249999 L 232.38994583225912 48.10717371849999 M 220.6285994562591 35.36571514449999 L 244.15129220825912 35.36571514449999 M 232.38994583225912 48.10717371849999 L 220.6285994562591 66.72930548049999 M 232.38994583225912 48.10717371849999 L 244.15129220825912 66.72930548049999" stroke-miterlimit="10" stroke-width="2.7769845610000004" stroke-dasharray=""/></g><g><text fill="black" stroke="none" font-family="sans-serif" font-size="11pt" font-style="normal" font-weight="normal" text-decoration="normal" x="217.83540042973226" y="83.06450878049999" text-anchor="start" dominant-baseline="alphabetic" xml:space="preserve">Staff</text></g><path fill="none" stroke="none"/><g><path fill="white" stroke="black" paint-order="fill stroke markers" d=" M 380.6983625292696 43.8600208605 L 445.7639349189073 43.8600208605 L 445.7639349189073 87.9650697705 L 380.6983625292696 87.9650697705 L 380.6983625292696 43.8600208605 Z" stroke-miterlimit="10" stroke-width="2.613632528" stroke-dasharray=""/></g><g><g/><text fill="black" stroke="none" font-family="sans-serif" font-size="11pt" font-style="normal" font-weight="normal" text-decoration="normal" x="398.42205810976964" y="71.62986647049999" text-anchor="start" dominant-baseline="alphabetic" xml:space="preserve">Clup</text></g></g><g><path fill="white" stroke="black" paint-order="fill stroke markers" d=" M 224.22234418225912 223.54725716049998 L 240.5575474822591 223.54725716049998 L 240.5575474822591 641.7284616404999 L 224.22234418225912 641.7284616404999 L 224.22234418225912 223.54725716049998" stroke-miterlimit="10" stroke-width="1.3612669416666667" stroke-dasharray=""/><path fill="white" stroke="black" paint-order="fill stroke markers" d=" M 405.0635470740885 223.54725716049998 L 421.3987503740885 223.54725716049998 L 421.3987503740885 269.28582640049996 L 405.0635470740885 269.28582640049996 L 405.0635470740885 223.54725716049998" stroke-miterlimit="10" stroke-width="1.3612669416666667" stroke-dasharray=""/><path fill="white" stroke="black" paint-order="fill stroke markers" d=" M 73.50841485 359.12944455049995 L 89.84361814999998 359.12944455049995 L 89.84361814999998 563.3194858004998 L 73.50841485 563.3194858004998 L 73.50841485 359.12944455049995" stroke-miterlimit="10" stroke-width="1.3612669416666667" stroke-dasharray=""/><path fill="white" stroke="black" paint-order="fill stroke markers" d=" M 405.0635470740885 404.86801379049996 L 421.3987503740885 404.86801379049996 L 421.3987503740885 517.5809165604999 L 405.0635470740885 517.5809165604999 L 405.0635470740885 404.86801379049996" stroke-miterlimit="10" stroke-width="1.3612669416666667" stroke-dasharray=""/><path fill="none" stroke="none"/><g><g/><path fill="white" stroke="black" paint-order="fill stroke markers" d=" M 217.6882628622591 120.63547637049999 L 427.93283169408846 120.63547637049999 L 427.93283169408846 177.80868792049998 L 217.6882628622591 177.80868792049998 L 217.6882628622591 120.63547637049999 Z" stroke-miterlimit="10" stroke-width="2.3336004714285714" stroke-dasharray=""/><path fill="white" stroke="black" paint-order="fill stroke markers" d=" M 217.6882628622591 120.63547637049999 L 217.6882628622591 140.2377203305 L 265.81321448331624 140.2377203305 L 275.61433646331625 130.4365983505 L 275.61433646331625 120.63547637049999 L 217.6882628622591 120.63547637049999" stroke-miterlimit="10" stroke-width="2.3336004714285714" stroke-dasharray=""/><text fill="black" stroke="none" font-family="sans-serif" font-size="8.8pt" font-style="normal" font-weight="bold" text-decoration="normal" x="234.0234661622591" y="133.70363901049998" text-anchor="start" dominant-baseline="alphabetic" xml:space="preserve">ref</text></g><g><text fill="black" stroke="none" font-family="sans-serif" font-size="11pt" font-style="normal" font-weight="normal" text-decoration="normal" x="305.1650928714355" y="161.9402047147857" text-anchor="start" dominant-baseline="alphabetic" xml:space="preserve">Login</text></g><g><g><rect fill="white" stroke="none" x="273.48754034274407" y="202.3114928705" width="98.64601387085938" height="21.23576429"/></g><text fill="black" stroke="none" font-family="sans-serif" font-size="11pt" font-style="normal" font-weight="normal" text-decoration="normal" x="275.9378208377441" y="217.01317584049997" text-anchor="start" dominant-baseline="alphabetic" xml:space="preserve">get(scanPage)</text></g><g><path fill="none" stroke="black" paint-order="fill stroke markers" d=" M 240.5575474822591 223.54725716049998 L 391.61422969042184 223.54725716049998" stroke-miterlimit="10" stroke-width="1.3612669416666667" stroke-dasharray=""/><g transform="translate(405.0635470740885,223.54725716049998) translate(-405.0635470740885,-223.54725716049998)"><path fill="black" stroke="none" paint-order="stroke fill markers" d=" M 391.4508776574218 216.74092245216664 L 405.0635470740885 223.54725716049998 L 391.4508776574218 230.35359186883332 Z"/></g></g><g><g><rect fill="white" stroke="none" x="266.7148123764355" y="248.05006211049997" width="112.19146980347656" height="21.23576429"/></g><text fill="black" stroke="none" font-family="sans-serif" font-size="11pt" font-style="normal" font-weight="normal" text-decoration="normal" x="269.1650928714355" y="262.7517450805" text-anchor="start" dominant-baseline="alphabetic" xml:space="preserve">show(scanPage)</text></g><g><path fill="none" stroke="black" paint-order="fill stroke markers" d=" M 405.0635470740885 269.28582640049996 L 242.59944789475912 269.28582640049996" stroke-miterlimit="10" stroke-width="1.3612669416666667" stroke-dasharray="6.53408132"/><g transform="translate(240.5575474822591,269.28582640049996) translate(-240.5575474822591,-269.28582640049996)"><path fill="none" stroke="black" paint-order="fill stroke markers" d=" M 254.55279186531317 263.0424289148765 L 242.08784734780858 269.28582640049996 L 254.55279186531317 275.5292238861234" stroke-miterlimit="10" stroke-width="1.3612669416666667"/></g></g><g><g><rect fill="white" stroke="none" x="112.74633592503581" y="337.89368026049993" width="88.5732904821875" height="21.23576429"/></g><text fill="black" stroke="none" font-family="sans-serif" font-size="11pt" font-style="normal" font-weight="normal" text-decoration="normal" x="115.19661642003581" y="352.5953632304999" text-anchor="start" dominant-baseline="alphabetic" xml:space="preserve">show(Token)</text></g><g><path fill="none" stroke="black" paint-order="fill stroke markers" d=" M 89.84361814999998 359.12944455049995 L 210.77302679859247 359.12944455049995" stroke-miterlimit="10" stroke-width="1.3612669416666667" stroke-dasharray=""/><g transform="translate(224.22234418225912,359.12944455049995) translate(-224.22234418225912,-359.12944455049995)"><path fill="black" stroke="none" paint-order="stroke fill markers" d=" M 210.60967476559244 352.3231098421666 L 224.22234418225912 359.12944455049995 L 210.60967476559244 365.9357792588333 Z"/></g></g><g><g><rect fill="white" stroke="none" x="280.0511771225292" y="383.63224950049994" width="85.51874031128906" height="21.23576429"/></g><text fill="black" stroke="none" font-family="sans-serif" font-size="11pt" font-style="normal" font-weight="normal" text-decoration="normal" x="282.50145761752924" y="398.3339324704999" text-anchor="start" dominant-baseline="alphabetic" xml:space="preserve">scan(Token)</text></g><g><path fill="none" stroke="black" paint-order="fill stroke markers" d=" M 240.5575474822591 404.86801379049996 L 391.61422969042184 404.86801379049996" stroke-miterlimit="10" stroke-width="1.3612669416666667" stroke-dasharray=""/><g transform="translate(405.0635470740885,404.86801379049996) translate(-405.0635470740885,-404.86801379049996)"><path fill="black" stroke="none" paint-order="stroke fill markers" d=" M 391.4508776574218 398.0616790821666 L 405.0635470740885 404.86801379049996 L 391.4508776574218 411.6743484988333 Z"/></g></g><g><g><rect fill="white" stroke="none" x="440.72874094575513" y="429.37081874049994" width="99.59147132935547" height="21.23576429"/></g><text fill="black" stroke="none" font-family="sans-serif" font-size="11pt" font-style="normal" font-weight="normal" text-decoration="normal" x="443.17902144075515" y="444.0725017104999" text-anchor="start" dominant-baseline="alphabetic" xml:space="preserve">validate(token)</text></g><g><path fill="none" stroke="black" paint-order="fill stroke markers" d=" M 421.3987503740885 450.6065830304999 L 486.7395635740885 450.6065830304999 L 486.7395635740885 471.8423473204999 L 434.84806775775513 471.8423473204999" stroke-miterlimit="10" stroke-width="1.3612669416666667" stroke-dasharray=""/><g transform="translate(421.3987503740885,471.8423473204999) translate(-421.3987503740885,-471.8423473204999)"><path fill="black" stroke="none" paint-order="stroke fill markers" d=" M 435.01141979075516 465.0360126121666 L 421.3987503740885 471.8423473204999 L 435.01141979075516 478.64868202883326 Z"/></g></g><g><g><rect fill="white" stroke="none" x="259.8875380539257" y="496.34515227049985" width="125.8460184484961" height="21.23576429"/></g><text fill="black" stroke="none" font-family="sans-serif" font-size="11pt" font-style="normal" font-weight="normal" text-decoration="normal" x="262.3378185489257" y="511.04683524049983" text-anchor="start" dominant-baseline="alphabetic" xml:space="preserve">notifyInvalid(token)</text></g><g><path fill="none" stroke="black" paint-order="fill stroke markers" d=" M 405.0635470740885 517.5809165604999 L 242.59944789475912 517.5809165604999" stroke-miterlimit="10" stroke-width="1.3612669416666667" stroke-dasharray="6.53408132"/><g transform="translate(240.5575474822591,517.5809165604999) translate(-240.5575474822591,-517.5809165604999)"><path fill="none" stroke="black" paint-order="fill stroke markers" d=" M 254.55279186531317 511.3375190748764 L 242.08784734780858 517.5809165604999 L 254.55279186531317 523.8243140461233" stroke-miterlimit="10" stroke-width="1.3612669416666667"/></g></g><g><g><rect fill="white" stroke="none" x="109.17360872166667" y="542.0837215104998" width="95.71874488892578" height="21.23576429"/></g><text fill="black" stroke="none" font-family="sans-serif" font-size="11pt" font-style="normal" font-weight="normal" text-decoration="normal" x="111.62388921666667" y="556.7854044804998" text-anchor="start" dominant-baseline="alphabetic" xml:space="preserve">blockAccess()</text></g><g><path fill="none" stroke="black" paint-order="fill stroke markers" d=" M 224.22234418225912 563.3194858004998 L 91.88551856249998 563.3194858004998" stroke-miterlimit="10" stroke-width="1.3612669416666667" stroke-dasharray="6.53408132"/><g transform="translate(89.84361814999998,563.3194858004998) translate(-89.84361814999998,-563.3194858004998)"><path fill="none" stroke="black" paint-order="fill stroke markers" d=" M 103.83886253305401 557.0760883148764 L 91.37391801554946 563.3194858004998 L 103.83886253305401 569.5628832861232" stroke-miterlimit="10" stroke-width="1.3612669416666667"/></g></g><g><path fill="none" stroke="black" paint-order="fill stroke markers" d=" M 66.97433353 587.8222907504999 L 96.37769946999998 617.2256566904998 M 96.37769946999998 587.8222907504999 L 66.97433353 617.2256566904998" stroke-miterlimit="10" stroke-width="2.613632528" stroke-dasharray=""/></g><g><g/><path fill="none" stroke="black" paint-order="fill stroke markers" d=" M 16.33520329999999 293.78863135049994 L 546.0375334301107 293.78863135049994 L 546.0375334301107 641.7284616404999 L 16.33520329999999 641.7284616404999 L 16.33520329999999 293.78863135049994 Z" stroke-miterlimit="10" stroke-width="2.3336004714285714" stroke-dasharray=""/><path fill="white" stroke="black" paint-order="fill stroke markers" d=" M 16.33520329999999 293.78863135049994 L 16.33520329999999 313.39087531049995 L 73.86015549326171 313.39087531049995 L 83.66127747326172 303.58975333049995 L 83.66127747326172 293.78863135049994 L 16.33520329999999 293.78863135049994" stroke-miterlimit="10" stroke-width="2.3336004714285714" stroke-dasharray=""/><text fill="black" stroke="none" font-family="sans-serif" font-size="8.8pt" font-style="normal" font-weight="bold" text-decoration="normal" x="32.67040659999999" y="306.85679399049997" text-anchor="start" dominant-baseline="alphabetic" xml:space="preserve">loop</text></g></g><g/></g></svg>