<svg version="1.1" xmlns="http://www.w3.org/2000/svg" xmlns:xlink="http://www.w3.org/1999/xlink" width="396" height="403"><defs/><g><g/><g/><g/><g/><g/><g/><g><rect fill="white" stroke="none" x="0" y="0" width="396" height="403"/></g><g/><g><path fill="none" stroke="black" paint-order="fill stroke markers" d=" M 39.19487482810059 87.9650697705 L 39.19487482810059 403.2344934605" stroke-miterlimit="10" stroke-width="1.3612669416666667" stroke-dasharray="12.565541,5.445067766666667"/><path fill="none" stroke="black" paint-order="fill stroke markers" d=" M 244.52699111104326 87.9650697705 L 244.52699111104326 403.2344934605" stroke-miterlimit="10" stroke-width="1.3612669416666667" stroke-dasharray="12.565541,5.445067766666667"/></g><g><g><path fill="white" stroke="black" paint-order="fill stroke markers" d=" M 48.505940709100585 18.867159811499988 A 9.311065881 9.311065881 0 1 1 48.505936053568036 18.857848747170827 M 39.19487482810059 28.17822569249999 L 39.19487482810059 48.10717371849999 M 27.43352845210059 35.36571514449999 L 50.956221204100586 35.36571514449999 M 39.19487482810059 48.10717371849999 L 27.43352845210059 66.72930548049999 M 39.19487482810059 48.10717371849999 L 50.956221204100586 66.72930548049999" stroke-miterlimit="10" stroke-width="2.7769845610000004" stroke-dasharray=""/></g><g><text fill="black" stroke="none" font-family="sans-serif" font-size="11pt" font-style="normal" font-weight="normal" text-decoration="normal" x="8.167601650000002" y="83.06450878049999" text-anchor="start" dominant-baseline="alphabetic" xml:space="preserve">Customer</text></g><path fill="none" stroke="none"/><g><path fill="white" stroke="black" paint-order="fill stroke markers" d=" M 211.99420491622442 43.8600208605 L 277.0597773058621 43.8600208605 L 277.0597773058621 87.9650697705 L 211.99420491622442 87.9650697705 L 211.99420491622442 43.8600208605 Z" stroke-miterlimit="10" stroke-width="2.613632528" stroke-dasharray=""/></g><g><g/><text fill="black" stroke="none" font-family="sans-serif" font-size="11pt" font-style="normal" font-weight="normal" text-decoration="normal" x="229.7179004967244" y="71.62986647049999" text-anchor="start" dominant-baseline="alphabetic" xml:space="preserve">Clup</text></g></g><g><path fill="white" stroke="black" paint-order="fill stroke markers" d=" M 31.027273178100586 141.87124066049998 L 47.36247647810059 141.87124066049998 L 47.36247647810059 346.0612819105 L 31.027273178100586 346.0612819105 L 31.027273178100586 141.87124066049998" stroke-miterlimit="10" stroke-width="1.3612669416666667" stroke-dasharray=""/><path fill="white" stroke="black" paint-order="fill stroke markers" d=" M 236.35938946104326 141.87124066049998 L 252.69459276104325 141.87124066049998 L 252.69459276104325 187.60980990049998 L 236.35938946104326 187.60980990049998 L 236.35938946104326 141.87124066049998" stroke-miterlimit="10" stroke-width="1.3612669416666667" stroke-dasharray=""/><path fill="white" stroke="black" paint-order="fill stroke markers" d=" M 236.35938946104326 233.3483791405 L 252.69459276104325 233.3483791405 L 252.69459276104325 346.0612819105 L 236.35938946104326 346.0612819105 L 236.35938946104326 233.3483791405" stroke-miterlimit="10" stroke-width="1.3612669416666667" stroke-dasharray=""/><g><g><rect fill="white" stroke="none" x="105.57428772847818" y="120.63547637049999" width="72.5732904821875" height="21.23576429"/></g><text fill="black" stroke="none" font-family="sans-serif" font-size="11pt" font-style="normal" font-weight="normal" text-decoration="normal" x="108.02456822347818" y="135.3371593405" text-anchor="start" dominant-baseline="alphabetic" xml:space="preserve">openApp()</text></g><g><path fill="none" stroke="black" paint-order="fill stroke markers" d=" M 47.36247647810059 141.87124066049998 L 222.91007207737658 141.87124066049998" stroke-miterlimit="10" stroke-width="1.3612669416666667" stroke-dasharray=""/><g transform="translate(236.35938946104326,141.87124066049998) translate(-236.35938946104326,-141.87124066049998)"><path fill="black" stroke="none" paint-order="stroke fill markers" d=" M 222.7467200443766 135.06490595216664 L 236.35938946104326 141.87124066049998 L 222.7467200443766 148.67757536883332 Z"/></g></g><g><g><rect fill="white" stroke="none" x="85.95610840718912" y="166.3740456105" width="111.80964912476563" height="21.23576429"/></g><text fill="black" stroke="none" font-family="sans-serif" font-size="11pt" font-style="normal" font-weight="normal" text-decoration="normal" x="88.40638890218912" y="181.07572858049997" text-anchor="start" dominant-baseline="alphabetic" xml:space="preserve">show(loginForm)</text></g><g><path fill="none" stroke="black" paint-order="fill stroke markers" d=" M 236.35938946104326 187.60980990049998 L 49.40437689060059 187.60980990049998" stroke-miterlimit="10" stroke-width="1.3612669416666667" stroke-dasharray="6.53408132"/><g transform="translate(47.36247647810059,187.60980990049998) translate(-47.36247647810059,-187.60980990049998)"><path fill="none" stroke="black" paint-order="fill stroke markers" d=" M 61.357720861154625 181.36641241487655 L 48.89277634365007 187.60980990049998 L 61.357720861154625 193.85320738612342" stroke-miterlimit="10" stroke-width="1.3612669416666667"/></g></g><g><g><rect fill="white" stroke="none" x="84.57428772847818" y="212.1126148505" width="114.5732904821875" height="21.23576429"/></g><text fill="black" stroke="none" font-family="sans-serif" font-size="11pt" font-style="normal" font-weight="normal" text-decoration="normal" x="87.02456822347818" y="226.81429782049997" text-anchor="start" dominant-baseline="alphabetic" xml:space="preserve">login(credentials)</text></g><g><path fill="none" stroke="black" paint-order="fill stroke markers" d=" M 47.36247647810059 233.3483791405 L 222.91007207737658 233.3483791405" stroke-miterlimit="10" stroke-width="1.3612669416666667" stroke-dasharray=""/><g transform="translate(236.35938946104326,233.3483791405) translate(-236.35938946104326,-233.3483791405)"><path fill="black" stroke="none" paint-order="stroke fill markers" d=" M 222.7467200443766 226.54204443216665 L 236.35938946104326 233.3483791405 L 222.7467200443766 240.15471384883332 Z"/></g></g><g><g><rect fill="white" stroke="none" x="272.0245833327099" y="257.8511840905" width="118.73692573609375" height="21.23576429"/></g><text fill="black" stroke="none" font-family="sans-serif" font-size="11pt" font-style="normal" font-weight="normal" text-decoration="normal" x="274.4748638277099" y="272.5528670605" text-anchor="start" dominant-baseline="alphabetic" xml:space="preserve">verify(credentials)</text></g><g><path fill="none" stroke="black" paint-order="fill stroke markers" d=" M 252.69459276104325 279.08694838049996 L 318.03540596104324 279.08694838049996 L 318.03540596104324 300.3227126705 L 266.14391014470993 300.3227126705" stroke-miterlimit="10" stroke-width="1.3612669416666667" stroke-dasharray=""/><g transform="translate(252.69459276104325,300.3227126705) translate(-252.69459276104325,-300.3227126705)"><path fill="black" stroke="none" paint-order="stroke fill markers" d=" M 266.3072621777099 293.51637796216664 L 252.69459276104325 300.3227126705 L 266.3072621777099 307.1290473788333 Z"/></g></g><g><g><rect fill="white" stroke="none" x="66.69246704976725" y="324.82551762049997" width="150.33693183960938" height="21.23576429"/></g><text fill="black" stroke="none" font-family="sans-serif" font-size="11pt" font-style="normal" font-weight="normal" text-decoration="normal" x="69.14274754476725" y="339.52720059049994" text-anchor="start" dominant-baseline="alphabetic" xml:space="preserve">notifyError(credentials)</text></g><g><path fill="none" stroke="black" paint-order="fill stroke markers" d=" M 236.35938946104326 346.0612819105 L 49.40437689060059 346.0612819105" stroke-miterlimit="10" stroke-width="1.3612669416666667" stroke-dasharray="6.53408132"/><g transform="translate(47.36247647810059,346.0612819105) translate(-47.36247647810059,-346.0612819105)"><path fill="none" stroke="black" paint-order="fill stroke markers" d=" M 61.357720861154625 339.8178844248765 L 48.89277634365007 346.0612819105 L 61.357720861154625 352.30467939612345" stroke-miterlimit="10" stroke-width="1.3612669416666667"/></g></g></g><g/></g></svg>