<svg version="1.1" xmlns="http://www.w3.org/2000/svg" xmlns:xlink="http://www.w3.org/1999/xlink" width="398" height="448"><defs/><g><g/><g/><g/><g/><g/><g/><g/><g><rect fill="white" stroke="none" x="0" y="0" width="398" height="448"/></g><g/><g><path fill="none" stroke="black" paint-order="fill stroke markers" d=" M 75.83123690390624 87.9650697705 L 75.83123690390624 448.9730627005" stroke-miterlimit="10" stroke-width="1.3612669416666667" stroke-dasharray="12.565541,5.445067766666667"/><path fill="none" stroke="black" paint-order="fill stroke markers" d=" M 246.54516623616533 87.9650697705 L 246.54516623616533 448.9730627005" stroke-miterlimit="10" stroke-width="1.3612669416666667" stroke-dasharray="12.565541,5.445067766666667"/></g><g><g><path fill="white" stroke="black" paint-order="fill stroke markers" d=" M 85.14230278490625 18.867159811499988 A 9.311065881 9.311065881 0 1 1 85.14229812937369 18.857848747170827 M 75.83123690390624 28.17822569249999 L 75.83123690390624 48.10717371849999 M 64.06989052790624 35.36571514449999 L 87.59258327990625 35.36571514449999 M 75.83123690390624 48.10717371849999 L 64.06989052790624 66.72930548049999 M 75.83123690390624 48.10717371849999 L 87.59258327990625 66.72930548049999" stroke-miterlimit="10" stroke-width="2.7769845610000004" stroke-dasharray=""/></g><g><text fill="black" stroke="none" font-family="sans-serif" font-size="11pt" font-style="normal" font-weight="normal" text-decoration="normal" x="8.167601649999995" y="83.06450878049999" text-anchor="start" dominant-baseline="alphabetic" xml:space="preserve">Registered Customer</text></g><path fill="none" stroke="none"/><g><path fill="white" stroke="black" paint-order="fill stroke markers" d=" M 214.0123800413465 43.8600208605 L 279.07795243098417 43.8600208605 L 279.07795243098417 87.9650697705 L 214.0123800413465 87.9650697705 L 214.0123800413465 43.8600208605 Z" stroke-miterlimit="10" stroke-width="2.613632528" stroke-dasharray=""/></g><g><g/><text fill="black" stroke="none" font-family="sans-serif" font-size="11pt" font-style="normal" font-weight="normal" text-decoration="normal" x="231.73607562184648" y="71.62986647049999" text-anchor="start" dominant-baseline="alphabetic" xml:space="preserve">Clup</text></g></g><g><path fill="white" stroke="black" paint-order="fill stroke markers" d=" M 67.66363525390625 141.87124066049998 L 83.99883855390624 141.87124066049998 L 83.99883855390624 187.60980990049998 L 67.66363525390625 187.60980990049998 L 67.66363525390625 141.87124066049998" stroke-miterlimit="10" stroke-width="1.3612669416666667" stroke-dasharray=""/><path fill="white" stroke="black" paint-order="fill stroke markers" d=" M 238.37756458616533 141.87124066049998 L 254.71276788616532 141.87124066049998 L 254.71276788616532 187.60980990049998 L 238.37756458616533 187.60980990049998 L 238.37756458616533 141.87124066049998" stroke-miterlimit="10" stroke-width="1.3612669416666667" stroke-dasharray=""/><path fill="white" stroke="black" paint-order="fill stroke markers" d=" M 67.66363525390625 233.3483791405 L 83.99883855390624 233.3483791405 L 83.99883855390624 391.7998511505 L 67.66363525390625 391.7998511505 L 67.66363525390625 233.3483791405" stroke-miterlimit="10" stroke-width="1.3612669416666667" stroke-dasharray=""/><path fill="white" stroke="black" paint-order="fill stroke markers" d=" M 238.37756458616533 233.3483791405 L 254.71276788616532 233.3483791405 L 254.71276788616532 391.7998511505 L 238.37756458616533 391.7998511505 L 238.37756458616533 233.3483791405" stroke-miterlimit="10" stroke-width="1.3612669416666667" stroke-dasharray=""/><g><g><rect fill="white" stroke="none" x="124.90155632894205" y="120.63547637049999" width="72.5732904821875" height="21.23576429"/></g><text fill="black" stroke="none" font-family="sans-serif" font-size="11pt" font-style="normal" font-weight="normal" text-decoration="normal" x="127.35183682394205" y="135.3371593405" text-anchor="start" dominant-baseline="alphabetic" xml:space="preserve">openApp()</text></g><g><path fill="none" stroke="black" paint-order="fill stroke markers" d=" M 83.99883855390624 141.87124066049998 L 224.92824720249865 141.87124066049998" stroke-miterlimit="10" stroke-width="1.3612669416666667" stroke-dasharray=""/><g transform="translate(238.37756458616533,141.87124066049998) translate(-238.37756458616533,-141.87124066049998)"><path fill="black" stroke="none" paint-order="stroke fill markers" d=" M 224.76489516949866 135.06490595216664 L 238.37756458616533 141.87124066049998 L 224.76489516949866 148.67757536883332 Z"/></g></g><g><g><rect fill="white" stroke="none" x="105.28337700765299" y="166.3740456105" width="111.80964912476563" height="21.23576429"/></g><text fill="black" stroke="none" font-family="sans-serif" font-size="11pt" font-style="normal" font-weight="normal" text-decoration="normal" x="107.73365750265299" y="181.07572858049997" text-anchor="start" dominant-baseline="alphabetic" xml:space="preserve">show(loginForm)</text></g><g><path fill="none" stroke="black" paint-order="fill stroke markers" d=" M 238.37756458616533 187.60980990049998 L 86.04073896640624 187.60980990049998" stroke-miterlimit="10" stroke-width="1.3612669416666667" stroke-dasharray="6.53408132"/><g transform="translate(83.99883855390624,187.60980990049998) translate(-83.99883855390624,-187.60980990049998)"><path fill="none" stroke="black" paint-order="fill stroke markers" d=" M 97.99408293696027 181.36641241487655 L 85.52913841945572 187.60980990049998 L 97.99408293696027 193.85320738612342" stroke-miterlimit="10" stroke-width="1.3612669416666667"/></g></g><g><g><rect fill="white" stroke="none" x="103.90155632894205" y="212.1126148505" width="114.5732904821875" height="21.23576429"/></g><text fill="black" stroke="none" font-family="sans-serif" font-size="11pt" font-style="normal" font-weight="normal" text-decoration="normal" x="106.35183682394205" y="226.81429782049997" text-anchor="start" dominant-baseline="alphabetic" xml:space="preserve">login(credentials)</text></g><g><path fill="none" stroke="black" paint-order="fill stroke markers" d=" M 83.99883855390624 233.3483791405 L 224.92824720249865 233.3483791405" stroke-miterlimit="10" stroke-width="1.3612669416666667" stroke-dasharray=""/><g transform="translate(238.37756458616533,233.3483791405) translate(-238.37756458616533,-233.3483791405)"><path fill="black" stroke="none" paint-order="stroke fill markers" d=" M 224.76489516949866 226.54204443216665 L 238.37756458616533 233.3483791405 L 224.76489516949866 240.15471384883332 Z"/></g></g><g><g><rect fill="white" stroke="none" x="274.04275845783195" y="257.8511840905" width="118.73692573609375" height="21.23576429"/></g><text fill="black" stroke="none" font-family="sans-serif" font-size="11pt" font-style="normal" font-weight="normal" text-decoration="normal" x="276.49303895283197" y="272.5528670605" text-anchor="start" dominant-baseline="alphabetic" xml:space="preserve">verify(credentials)</text></g><g><path fill="none" stroke="black" paint-order="fill stroke markers" d=" M 254.71276788616532 279.08694838049996 L 320.0535810861653 279.08694838049996 L 320.0535810861653 300.3227126705 L 268.162085269832 300.3227126705" stroke-miterlimit="10" stroke-width="1.3612669416666667" stroke-dasharray=""/><g transform="translate(254.71276788616532,300.3227126705) translate(-254.71276788616532,-300.3227126705)"><path fill="black" stroke="none" paint-order="stroke fill markers" d=" M 268.325437302832 293.51637796216664 L 254.71276788616532 300.3227126705 L 268.325437302832 307.1290473788333 Z"/></g></g><g><g><rect fill="white" stroke="none" x="112.8742850581901" y="324.82551762049997" width="96.62783302369141" height="21.23576429"/></g><text fill="black" stroke="none" font-family="sans-serif" font-size="11pt" font-style="normal" font-weight="normal" text-decoration="normal" x="115.3245655531901" y="339.52720059049994" text-anchor="start" dominant-baseline="alphabetic" xml:space="preserve">confirmLogin()</text></g><g><path fill="none" stroke="black" paint-order="fill stroke markers" d=" M 238.37756458616533 346.0612819105 L 86.04073896640624 346.0612819105" stroke-miterlimit="10" stroke-width="1.3612669416666667" stroke-dasharray="6.53408132"/><g transform="translate(83.99883855390624,346.0612819105) translate(-83.99883855390624,-346.0612819105)"><path fill="none" stroke="black" paint-order="fill stroke markers" d=" M 97.99408293696027 339.8178844248765 L 85.52913841945572 346.0612819105 L 97.99408293696027 352.30467939612345" stroke-miterlimit="10" stroke-width="1.3612669416666667"/></g></g><g><g><rect fill="white" stroke="none" x="103.32882912557291" y="370.56408686049997" width="115.71874488892578" height="21.23576429"/></g><text fill="black" stroke="none" font-family="sans-serif" font-size="11pt" font-style="normal" font-weight="normal" text-decoration="normal" x="105.77910962057291" y="385.26576983049995" text-anchor="start" dominant-baseline="alphabetic" xml:space="preserve">show(homepage)</text></g><g><path fill="none" stroke="black" paint-order="fill stroke markers" d=" M 238.37756458616533 391.7998511505 L 86.04073896640624 391.7998511505" stroke-miterlimit="10" stroke-width="1.3612669416666667" stroke-dasharray="6.53408132"/><g transform="translate(83.99883855390624,391.7998511505) translate(-83.99883855390624,-391.7998511505)"><path fill="none" stroke="black" paint-order="fill stroke markers" d=" M 97.99408293696027 385.5564536648765 L 85.52913841945572 391.7998511505 L 97.99408293696027 398.04324863612345" stroke-miterlimit="10" stroke-width="1.3612669416666667"/></g></g></g><g/></g></svg>