<svg version="1.1" xmlns="http://www.w3.org/2000/svg" xmlns:xlink="http://www.w3.org/1999/xlink" width="597" height="1010"><defs/><g><g/><g/><g/><g/><g/><g/><g/><g/><g/><g/><g/><g/><g/><g/><g><rect fill="white" stroke="none" x="0" y="0" width="597" height="1010"/></g><g/><g><path fill="none" stroke="black" paint-order="fill stroke markers" d=" M 81.67601649999999 87.9650697705 L 81.67601649999999 1010.9040562204998" stroke-miterlimit="10" stroke-width="1.3612669416666667" stroke-dasharray="12.565541,5.445067766666667"/><path fill="none" stroke="black" paint-order="fill stroke markers" d=" M 277.4808500680989 87.9650697705 L 277.4808500680989 1010.9040562204998" stroke-miterlimit="10" stroke-width="1.3612669416666667" stroke-dasharray="12.565541,5.445067766666667"/><path fill="none" stroke="black" paint-order="fill stroke markers" d=" M 515.4129571957682 87.9650697705 L 515.4129571957682 1010.9040562204998" stroke-miterlimit="10" stroke-width="1.3612669416666667" stroke-dasharray="12.565541,5.445067766666667"/></g><g><g><path fill="white" stroke="black" paint-order="fill stroke markers" d=" M 90.987082381 18.867159811499988 A 9.311065881 9.311065881 0 1 1 90.98707772546743 18.857848747170827 M 81.67601649999999 28.17822569249999 L 81.67601649999999 48.10717371849999 M 69.914670124 35.36571514449999 L 93.43736287599998 35.36571514449999 M 81.67601649999999 48.10717371849999 L 69.914670124 66.72930548049999 M 81.67601649999999 48.10717371849999 L 93.43736287599998 66.72930548049999" stroke-miterlimit="10" stroke-width="2.7769845610000004" stroke-dasharray=""/></g><g><g/><text fill="black" stroke="none" font-family="sans-serif" font-size="11pt" font-style="normal" font-weight="normal" text-decoration="normal" x="50.6487433218994" y="83.06450878049999" text-anchor="start" dominant-baseline="alphabetic" xml:space="preserve">Customer</text></g><g><path fill="white" stroke="black" paint-order="fill stroke markers" d=" M 286.7919159490989 18.867159811499988 A 9.311065881 9.311065881 0 1 1 286.79191129356633 18.857848747170827 M 277.4808500680989 28.17822569249999 L 277.4808500680989 48.10717371849999 M 265.7195036920989 35.36571514449999 L 289.2421964440989 35.36571514449999 M 277.4808500680989 48.10717371849999 L 265.7195036920989 66.72930548049999 M 277.4808500680989 48.10717371849999 L 289.2421964440989 66.72930548049999" stroke-miterlimit="10" stroke-width="2.7769845610000004" stroke-dasharray=""/></g><g><g/><text fill="black" stroke="none" font-family="sans-serif" font-size="11pt" font-style="normal" font-weight="normal" text-decoration="normal" x="262.92630466557205" y="83.06450878049999" text-anchor="start" dominant-baseline="alphabetic" xml:space="preserve">Staff</text></g><path fill="none" stroke="none"/><g><path fill="white" stroke="black" paint-order="fill stroke markers" d=" M 482.8801710009493 43.8600208605 L 547.945743390587 43.8600208605 L 547.945743390587 87.9650697705 L 482.8801710009493 87.9650697705 L 482.8801710009493 43.8600208605 Z" stroke-miterlimit="10" stroke-width="2.613632528" stroke-dasharray=""/></g><g><g/><text fill="black" stroke="none" font-family="sans-serif" font-size="11pt" font-style="normal" font-weight="normal" text-decoration="normal" x="500.6038665814493" y="71.62986647049999" text-anchor="start" dominant-baseline="alphabetic" xml:space="preserve">Clup</text></g></g><g><path fill="white" stroke="black" paint-order="fill stroke markers" d=" M 269.3132484180989 223.54725716049998 L 285.6484517180989 223.54725716049998 L 285.6484517180989 965.1654869804997 L 269.3132484180989 965.1654869804997 L 269.3132484180989 223.54725716049998" stroke-miterlimit="10" stroke-width="1.3612669416666667" stroke-dasharray=""/><path fill="white" stroke="black" paint-order="fill stroke markers" d=" M 507.2453555457682 223.54725716049998 L 523.5805588457682 223.54725716049998 L 523.5805588457682 269.28582640049996 L 507.2453555457682 269.28582640049996 L 507.2453555457682 223.54725716049998" stroke-miterlimit="10" stroke-width="1.3612669416666667" stroke-dasharray=""/><path fill="white" stroke="black" paint-order="fill stroke markers" d=" M 507.2453555457682 315.02439564049996 L 523.5805588457682 315.02439564049996 L 523.5805588457682 360.76296488049996 L 507.2453555457682 360.76296488049996 L 507.2453555457682 315.02439564049996" stroke-miterlimit="10" stroke-width="1.3612669416666667" stroke-dasharray=""/><path fill="white" stroke="black" paint-order="fill stroke markers" d=" M 73.50841485 450.60658303049996 L 89.84361814999998 450.60658303049996 L 89.84361814999998 496.34515227049997 L 73.50841485 496.34515227049997 L 73.50841485 450.60658303049996" stroke-miterlimit="10" stroke-width="1.3612669416666667" stroke-dasharray=""/><path fill="white" stroke="black" paint-order="fill stroke markers" d=" M 507.2453555457682 542.0837215104999 L 523.5805588457682 542.0837215104999 L 523.5805588457682 587.8222907504999 L 507.2453555457682 587.8222907504999 L 507.2453555457682 542.0837215104999" stroke-miterlimit="10" stroke-width="1.3612669416666667" stroke-dasharray=""/><path fill="white" stroke="black" paint-order="fill stroke markers" d=" M 507.2453555457682 658.0636649404998 L 523.5805588457682 658.0636649404998 L 523.5805588457682 883.4894704804998 L 507.2453555457682 883.4894704804998 L 507.2453555457682 658.0636649404998" stroke-miterlimit="10" stroke-width="1.3612669416666667" stroke-dasharray=""/><path fill="none" stroke="none"/><g><g/><path fill="white" stroke="black" paint-order="fill stroke markers" d=" M 262.7791670980989 120.63547637049999 L 530.1146401657682 120.63547637049999 L 530.1146401657682 177.80868792049998 L 262.7791670980989 177.80868792049998 L 262.7791670980989 120.63547637049999 Z" stroke-miterlimit="10" stroke-width="2.3336004714285714" stroke-dasharray=""/><path fill="white" stroke="black" paint-order="fill stroke markers" d=" M 262.7791670980989 120.63547637049999 L 262.7791670980989 140.2377203305 L 310.90411871915603 140.2377203305 L 320.70524069915604 130.4365983505 L 320.70524069915604 120.63547637049999 L 262.7791670980989 120.63547637049999" stroke-miterlimit="10" stroke-width="2.3336004714285714" stroke-dasharray=""/><text fill="black" stroke="none" font-family="sans-serif" font-size="8.8pt" font-style="normal" font-weight="bold" text-decoration="normal" x="279.1143703980989" y="133.70363901049998" text-anchor="start" dominant-baseline="alphabetic" xml:space="preserve">ref</text></g><g><text fill="black" stroke="none" font-family="sans-serif" font-size="11pt" font-style="normal" font-weight="normal" text-decoration="normal" x="378.80144922519526" y="161.9402047147857" text-anchor="start" dominant-baseline="alphabetic" xml:space="preserve">Login</text></g><g><g><rect fill="white" stroke="none" x="311.75117025607415" y="202.3114928705" width="169.39146675171875" height="21.23576429"/></g><text fill="black" stroke="none" font-family="sans-serif" font-size="11pt" font-style="normal" font-weight="normal" text-decoration="normal" x="314.20145075107416" y="217.01317584049997" text-anchor="start" dominant-baseline="alphabetic" xml:space="preserve">get(substituteTicketPage)</text></g><g><path fill="none" stroke="black" paint-order="fill stroke markers" d=" M 285.6484517180989 223.54725716049998 L 493.7960381621015 223.54725716049998" stroke-miterlimit="10" stroke-width="1.3612669416666667" stroke-dasharray=""/><g transform="translate(507.2453555457682,223.54725716049998) translate(-507.2453555457682,-223.54725716049998)"><path fill="black" stroke="none" paint-order="stroke fill markers" d=" M 493.6326861291015 216.74092245216664 L 507.2453555457682 223.54725716049998 L 493.6326861291015 230.35359186883332 Z"/></g></g><g><g><rect fill="white" stroke="none" x="304.97844228976555" y="248.05006211049997" width="182.93692268433594" height="21.23576429"/></g><text fill="black" stroke="none" font-family="sans-serif" font-size="11pt" font-style="normal" font-weight="normal" text-decoration="normal" x="307.42872278476557" y="262.7517450805" text-anchor="start" dominant-baseline="alphabetic" xml:space="preserve">show(substituteTicketPage)</text></g><g><path fill="none" stroke="black" paint-order="fill stroke markers" d=" M 507.2453555457682 269.28582640049996 L 287.6903521305989 269.28582640049996" stroke-miterlimit="10" stroke-width="1.3612669416666667" stroke-dasharray="6.53408132"/><g transform="translate(285.6484517180989,269.28582640049996) translate(-285.6484517180989,-269.28582640049996)"><path fill="none" stroke="black" paint-order="fill stroke markers" d=" M 299.64369610115295 263.0424289148765 L 287.17875158364836 269.28582640049996 L 299.64369610115295 275.5292238861234" stroke-miterlimit="10" stroke-width="1.3612669416666667"/></g></g><g><g><rect fill="white" stroke="none" x="343.8238974594433" y="293.78863135049994" width="105.24601234498047" height="21.23576429"/></g><text fill="black" stroke="none" font-family="sans-serif" font-size="11pt" font-style="normal" font-weight="normal" text-decoration="normal" x="346.2741779544433" y="308.4903143204999" text-anchor="start" dominant-baseline="alphabetic" xml:space="preserve">getTicket(shop)</text></g><g><path fill="none" stroke="black" paint-order="fill stroke markers" d=" M 285.6484517180989 315.02439564049996 L 493.7960381621015 315.02439564049996" stroke-miterlimit="10" stroke-width="1.3612669416666667" stroke-dasharray=""/><g transform="translate(507.2453555457682,315.02439564049996) translate(-507.2453555457682,-315.02439564049996)"><path fill="black" stroke="none" paint-order="stroke fill markers" d=" M 493.6326861291015 308.2180609321666 L 507.2453555457682 315.02439564049996 L 493.6326861291015 321.8307303488333 Z"/></g></g><g><g><rect fill="white" stroke="none" x="340.178443052705" y="339.52720059049994" width="112.53692115845703" height="21.23576429"/></g><text fill="black" stroke="none" font-family="sans-serif" font-size="11pt" font-style="normal" font-weight="normal" text-decoration="normal" x="342.628723547705" y="354.2288835604999" text-anchor="start" dominant-baseline="alphabetic" xml:space="preserve">list(departments)</text></g><g><path fill="none" stroke="black" paint-order="fill stroke markers" d=" M 507.2453555457682 360.76296488049996 L 287.6903521305989 360.76296488049996" stroke-miterlimit="10" stroke-width="1.3612669416666667" stroke-dasharray="6.53408132"/><g transform="translate(285.6484517180989,360.76296488049996) translate(-285.6484517180989,-360.76296488049996)"><path fill="none" stroke="black" paint-order="fill stroke markers" d=" M 299.64369610115295 354.5195673948765 L 287.17875158364836 360.76296488049996 L 299.64369610115295 367.0063623661234" stroke-miterlimit="10" stroke-width="1.3612669416666667"/></g></g><g><g><rect fill="white" stroke="none" x="119.79178804295567" y="429.37081874049994" width="119.5732904821875" height="21.23576429"/></g><text fill="black" stroke="none" font-family="sans-serif" font-size="11pt" font-style="normal" font-weight="normal" text-decoration="normal" x="122.24206853795567" y="444.0725017104999" text-anchor="start" dominant-baseline="alphabetic" xml:space="preserve">askDepartments()</text></g><g><path fill="none" stroke="black" paint-order="fill stroke markers" d=" M 269.3132484180989 450.60658303049996 L 103.29293553366665 450.60658303049996" stroke-miterlimit="10" stroke-width="1.3612669416666667" stroke-dasharray=""/><g transform="translate(89.84361814999998,450.60658303049996) translate(-89.84361814999998,-450.60658303049996)"><path fill="black" stroke="none" paint-order="stroke fill markers" d=" M 103.45628756666665 443.8002483221666 L 89.84361814999998 450.60658303049996 L 103.45628756666665 457.4129177388333 Z"/></g></g><g><g><rect fill="white" stroke="none" x="109.17360872166661" y="475.10938798049995" width="140.80964912476563" height="21.23576429"/></g><text fill="black" stroke="none" font-family="sans-serif" font-size="11pt" font-style="normal" font-weight="normal" text-decoration="normal" x="111.62388921666661" y="489.8110709504999" text-anchor="start" dominant-baseline="alphabetic" xml:space="preserve">choose(departments)</text></g><g><path fill="none" stroke="black" paint-order="fill stroke markers" d=" M 89.84361814999998 496.34515227049997 L 267.2713480055989 496.34515227049997" stroke-miterlimit="10" stroke-width="1.3612669416666667" stroke-dasharray="6.53408132"/><g transform="translate(269.3132484180989,496.34515227049997) translate(-269.3132484180989,-496.34515227049997)"><path fill="none" stroke="black" paint-order="fill stroke markers" d=" M 255.31800403504485 490.1017547848765 L 267.78294855254944 496.34515227049997 L 255.31800403504485 502.5885497561234" stroke-miterlimit="10" stroke-width="1.3612669416666667"/></g></g><g><g><rect fill="white" stroke="none" x="330.2784415268261" y="520.8479572204999" width="132.33692421021485" height="21.23576429"/></g><text fill="black" stroke="none" font-family="sans-serif" font-size="11pt" font-style="normal" font-weight="normal" text-decoration="normal" x="332.7287220218261" y="535.5496401904999" text-anchor="start" dominant-baseline="alphabetic" xml:space="preserve">select(departments)</text></g><g><path fill="none" stroke="black" paint-order="fill stroke markers" d=" M 285.6484517180989 542.0837215104999 L 493.7960381621015 542.0837215104999" stroke-miterlimit="10" stroke-width="1.3612669416666667" stroke-dasharray=""/><g transform="translate(507.2453555457682,542.0837215104999) translate(-507.2453555457682,-542.0837215104999)"><path fill="black" stroke="none" paint-order="stroke fill markers" d=" M 493.6326861291015 535.2773868021666 L 507.2453555457682 542.0837215104999 L 493.6326861291015 548.8900562188333 Z"/></g></g><g><g><rect fill="white" stroke="none" x="328.1602583908398" y="566.5865264604998" width="136.5732904821875" height="21.23576429"/></g><text fill="black" stroke="none" font-family="sans-serif" font-size="11pt" font-style="normal" font-weight="normal" text-decoration="normal" x="330.6105388858398" y="581.2882094304998" text-anchor="start" dominant-baseline="alphabetic" xml:space="preserve">confim(departments)</text></g><g><path fill="none" stroke="black" paint-order="fill stroke markers" d=" M 507.2453555457682 587.8222907504999 L 287.6903521305989 587.8222907504999" stroke-miterlimit="10" stroke-width="1.3612669416666667" stroke-dasharray="6.53408132"/><g transform="translate(285.6484517180989,587.8222907504999) translate(-285.6484517180989,-587.8222907504999)"><path fill="none" stroke="black" paint-order="fill stroke markers" d=" M 299.64369610115295 581.5788932648765 L 287.17875158364836 587.8222907504999 L 299.64369610115295 594.0656882361233" stroke-miterlimit="10" stroke-width="1.3612669416666667"/></g></g><g><g><rect fill="white" stroke="none" x="367.81480512851067" y="636.8279006504998" width="57.264197006845706" height="21.23576429"/></g><text fill="black" stroke="none" font-family="sans-serif" font-size="11pt" font-style="normal" font-weight="normal" text-decoration="normal" x="370.2650856235107" y="651.5295836204998" text-anchor="start" dominant-baseline="alphabetic" xml:space="preserve">submit()</text></g><g><path fill="none" stroke="black" paint-order="fill stroke markers" d=" M 285.6484517180989 658.0636649404998 L 493.7960381621015 658.0636649404998" stroke-miterlimit="10" stroke-width="1.3612669416666667" stroke-dasharray=""/><g transform="translate(507.2453555457682,658.0636649404998) translate(-507.2453555457682,-658.0636649404998)"><path fill="black" stroke="none" paint-order="stroke fill markers" d=" M 493.6326861291015 651.2573302321665 L 507.2453555457682 658.0636649404998 L 493.6326861291015 664.8699996488332 Z"/></g></g><g><g><rect fill="white" stroke="none" x="355.95116720431633" y="726.6715188004998" width="80.99147285523438" height="21.23576429"/></g><text fill="black" stroke="none" font-family="sans-serif" font-size="11pt" font-style="normal" font-weight="normal" text-decoration="normal" x="358.40144769931635" y="741.3732017704998" text-anchor="start" dominant-baseline="alphabetic" xml:space="preserve">send(token)</text></g><g><path fill="none" stroke="black" paint-order="fill stroke markers" d=" M 507.2453555457682 747.9072830904998 L 287.6903521305989 747.9072830904998" stroke-miterlimit="10" stroke-width="1.3612669416666667" stroke-dasharray="6.53408132"/><g transform="translate(285.6484517180989,747.9072830904998) translate(-285.6484517180989,-747.9072830904998)"><path fill="none" stroke="black" paint-order="fill stroke markers" d=" M 299.64369610115295 741.6638856048764 L 287.17875158364836 747.9072830904998 L 299.64369610115295 754.1506805761232" stroke-miterlimit="10" stroke-width="1.3612669416666667"/></g></g><g><g><rect fill="white" stroke="none" x="136.40798798089517" y="772.4100880404998" width="78.1732889563086" height="21.23576429"/></g><text fill="black" stroke="none" font-family="sans-serif" font-size="11pt" font-style="normal" font-weight="normal" text-decoration="normal" x="138.85826847589516" y="787.1117710104998" text-anchor="start" dominant-baseline="alphabetic" xml:space="preserve">print(token)</text></g><g><path fill="none" stroke="black" paint-order="fill stroke markers" d=" M 269.3132484180989 793.6458523304998 L 83.71791691249999 793.6458523304998" stroke-miterlimit="10" stroke-width="1.3612669416666667" stroke-dasharray=""/><g transform="translate(81.67601649999999,793.6458523304998) translate(-81.67601649999999,-793.6458523304998)"><path fill="none" stroke="black" paint-order="fill stroke markers" d=" M 95.67126088305402 787.4024548448764 L 83.20631636554947 793.6458523304998 L 95.67126088305402 799.8892498161232" stroke-miterlimit="10" stroke-width="1.3612669416666667"/></g></g><g><g><rect fill="white" stroke="none" x="358.5238944076855" y="862.2537061904998" width="75.8460184484961" height="21.23576429"/></g><text fill="black" stroke="none" font-family="sans-serif" font-size="11pt" font-style="normal" font-weight="normal" text-decoration="normal" x="360.9741749026855" y="876.9553891604997" text-anchor="start" dominant-baseline="alphabetic" xml:space="preserve">fullQueue()</text></g><g><path fill="none" stroke="black" paint-order="fill stroke markers" d=" M 507.2453555457682 883.4894704804998 L 287.6903521305989 883.4894704804998" stroke-miterlimit="10" stroke-width="1.3612669416666667" stroke-dasharray="6.53408132"/><g transform="translate(285.6484517180989,883.4894704804998) translate(-285.6484517180989,-883.4894704804998)"><path fill="none" stroke="black" paint-order="fill stroke markers" d=" M 299.64369610115295 877.2460729948764 L 287.17875158364836 883.4894704804998 L 299.64369610115295 889.7328679661232" stroke-miterlimit="10" stroke-width="1.3612669416666667"/></g></g><g><g><rect fill="white" stroke="none" x="150.35344353204263" y="907.9922754304997" width="50.282377854013674" height="21.23576429"/></g><text fill="black" stroke="none" font-family="sans-serif" font-size="11pt" font-style="normal" font-weight="normal" text-decoration="normal" x="152.80372402704262" y="922.6939584004997" text-anchor="start" dominant-baseline="alphabetic" xml:space="preserve">reject()</text></g><g><path fill="none" stroke="black" paint-order="fill stroke markers" d=" M 269.3132484180989 929.2280397204997 L 83.71791691249999 929.2280397204997" stroke-miterlimit="10" stroke-width="1.3612669416666667" stroke-dasharray=""/><g transform="translate(81.67601649999999,929.2280397204997) translate(-81.67601649999999,-929.2280397204997)"><path fill="none" stroke="black" paint-order="fill stroke markers" d=" M 95.67126088305402 922.9846422348763 L 83.20631636554947 929.2280397204997 L 95.67126088305402 935.4714372061231" stroke-miterlimit="10" stroke-width="1.3612669416666667"/></g></g><g><g/><path fill="none" stroke="black" paint-order="fill stroke markers" d=" M 16.33520329999999 385.26576983049995 L 572.5861687457682 385.26576983049995 L 572.5861687457682 612.3250957004999 L 16.33520329999999 612.3250957004999 L 16.33520329999999 385.26576983049995 Z" stroke-miterlimit="10" stroke-width="2.3336004714285714" stroke-dasharray=""/><path fill="white" stroke="black" paint-order="fill stroke markers" d=" M 16.33520329999999 385.26576983049995 L 16.33520329999999 404.86801379049996 L 67.46015587473144 404.86801379049996 L 77.26127785473145 395.06689181049995 L 77.26127785473145 385.26576983049995 L 16.33520329999999 385.26576983049995" stroke-miterlimit="10" stroke-width="2.3336004714285714" stroke-dasharray=""/><text fill="black" stroke="none" font-family="sans-serif" font-size="8.8pt" font-style="normal" font-weight="bold" text-decoration="normal" x="32.67040659999999" y="398.3339324705" text-anchor="start" dominant-baseline="alphabetic" xml:space="preserve">opt</text></g><g><g/><path fill="none" stroke="black" paint-order="fill stroke markers" d=" M 24.50280494999999 682.5664698904999 L 572.5861687457682 682.5664698904999 L 572.5861687457682 953.7308446704998 L 24.50280494999999 953.7308446704998 L 24.50280494999999 682.5664698904999 Z" stroke-miterlimit="10" stroke-width="2.3336004714285714" stroke-dasharray=""/><path fill="white" stroke="black" paint-order="fill stroke markers" d=" M 24.50280494999999 682.5664698904999 L 24.50280494999999 702.1687138504999 L 70.93684813905028 702.1687138504999 L 80.73797011905029 692.3675918704998 L 80.73797011905029 682.5664698904999 L 24.50280494999999 682.5664698904999" stroke-miterlimit="10" stroke-width="2.3336004714285714" stroke-dasharray=""/><text fill="black" stroke="none" font-family="sans-serif" font-size="8.8pt" font-style="normal" font-weight="bold" text-decoration="normal" x="40.83800824999999" y="695.6346325304999" text-anchor="start" dominant-baseline="alphabetic" xml:space="preserve">alt</text><text fill="black" stroke="none" font-family="sans-serif" font-size="8.8pt" font-style="normal" font-weight="bold" text-decoration="normal" x="97.07317341905029" y="695.6346325304999" text-anchor="start" dominant-baseline="alphabetic" xml:space="preserve">[queue is not full]</text><g><path fill="none" stroke="black" paint-order="fill stroke markers" d=" M 24.50280494999999 818.1486572804998 L 572.5861687457682 818.1486572804998" stroke-miterlimit="10" stroke-width="2.3336004714285714" stroke-dasharray="4.083800825"/></g><g/><text fill="black" stroke="none" font-family="sans-serif" font-size="8.8pt" font-style="normal" font-weight="bold" text-decoration="normal" x="97.07317341905029" y="831.2168199204998" text-anchor="start" dominant-baseline="alphabetic" xml:space="preserve">[queue is full]</text></g><g/></g><g/><g/><g/></g></svg>