<svg version="1.1" xmlns="http://www.w3.org/2000/svg" xmlns:xlink="http://www.w3.org/1999/xlink" width="1101" height="1502"><defs/><g><g/><g/><g/><g/><g/><g/><g/><g/><g/><g/><g/><g/><g/><g/><g/><g/><g/><g/><g/><g/><g/><g/><g/><g/><g/><g/><g/><g/><g><rect fill="white" stroke="none" x="0" y="0" width="1101" height="1502"/></g><g/><g><path fill="none" stroke="black" paint-order="fill stroke markers" d=" M 107.81234178 136.97067967049998 L 107.81234178 1468.2897486204997" stroke-miterlimit="10" stroke-width="1.3612669416666667" stroke-dasharray="12.565541,5.445067766666667"/><path fill="none" stroke="black" paint-order="fill stroke markers" d=" M 330.9808075502474 136.97067967049998 L 330.9808075502474 1468.2897486204997" stroke-miterlimit="10" stroke-width="1.3612669416666667" stroke-dasharray="12.565541,5.445067766666667"/><path fill="none" stroke="black" paint-order="fill stroke markers" d=" M 705.1168780222526 136.97067967049998 L 705.1168780222526 1468.2897486204997" stroke-miterlimit="10" stroke-width="1.3612669416666667" stroke-dasharray="12.565541,5.445067766666667"/><path fill="none" stroke="black" paint-order="fill stroke markers" d=" M 877.9540150247566 136.97067967049998 L 877.9540150247566 1468.2897486204997" stroke-miterlimit="10" stroke-width="1.3612669416666667" stroke-dasharray="12.565541,5.445067766666667"/><path fill="none" stroke="black" paint-order="fill stroke markers" d=" M 994.1184282571189 136.97067967049998 L 994.1184282571189 1468.2897486204997" stroke-miterlimit="10" stroke-width="1.3612669416666667" stroke-dasharray="12.565541,5.445067766666667"/></g><g><g><path fill="white" stroke="black" paint-order="fill stroke markers" d=" M 117.123407661 67.87276971150001 A 9.311065881 9.311065881 0 1 1 117.12340300546744 67.86345864717084 M 107.81234178 77.18383559250002 L 107.81234178 97.11278361850002 M 96.05099540399999 84.37132504450001 L 119.573688156 84.37132504450001 M 107.81234178 97.11278361850002 L 96.05099540399999 115.73491538050001 M 107.81234178 97.11278361850002 L 119.573688156 115.73491538050001" stroke-miterlimit="10" stroke-width="2.7769845610000004" stroke-dasharray=""/></g><g><g/><text fill="black" stroke="none" font-family="sans-serif" font-size="11pt" font-style="normal" font-weight="normal" text-decoration="normal" x="76.78506860189941" y="132.0701186805" text-anchor="start" dominant-baseline="alphabetic" xml:space="preserve">Customer</text></g><path fill="none" stroke="none"/><g><path fill="white" stroke="black" paint-order="fill stroke markers" d=" M 248.26620620802862 93.02898279350002 L 413.69540889246616 93.02898279350002 L 413.69540889246616 136.9706796705 L 248.26620620802862 136.9706796705 L 248.26620620802862 93.02898279350002 Z" stroke-miterlimit="10" stroke-width="2.613632528" stroke-dasharray=""/></g><g><text fill="black" stroke="none" font-family="sans-serif" font-size="11pt" font-style="normal" font-weight="normal" text-decoration="normal" x="265.98990178852864" y="120.6354763705" text-anchor="start" dominant-baseline="alphabetic" xml:space="preserve">Clup Webapp (Staff)</text></g><path fill="none" stroke="none"/><g><path fill="white" stroke="black" paint-order="fill stroke markers" d=" M 609.6295487137253 93.02898279350002 L 800.60420733078 93.02898279350002 L 800.60420733078 136.9706796705 L 609.6295487137253 136.9706796705 L 609.6295487137253 93.02898279350002 Z" stroke-miterlimit="10" stroke-width="2.613632528" stroke-dasharray=""/></g><g><text fill="black" stroke="none" font-family="sans-serif" font-size="11pt" font-style="normal" font-weight="normal" text-decoration="normal" x="627.3532442942253" y="120.6354763705" text-anchor="start" dominant-baseline="alphabetic" xml:space="preserve">CLup Application Server</text></g><path fill="none" stroke="none"/><g><path fill="white" stroke="black" paint-order="fill stroke markers" d=" M 816.93941063078 93.02898279350002 L 938.9686194187332 93.02898279350002 L 938.9686194187332 136.9706796705 L 816.93941063078 136.9706796705 L 816.93941063078 93.02898279350002 Z" stroke-miterlimit="10" stroke-width="2.613632528" stroke-dasharray=""/></g><g><text fill="black" stroke="none" font-family="sans-serif" font-size="11pt" font-style="normal" font-weight="normal" text-decoration="normal" x="834.66310621128" y="120.6354763705" text-anchor="start" dominant-baseline="alphabetic" xml:space="preserve">Session store</text></g><path fill="none" stroke="none"/><g><path fill="white" stroke="black" paint-order="fill stroke markers" d=" M 955.3038227187332 93.02898279350002 L 1032.9330337955046 93.02898279350002 L 1032.9330337955046 136.9706796705 L 955.3038227187332 136.9706796705 L 955.3038227187332 93.02898279350002 Z" stroke-miterlimit="10" stroke-width="2.613632528" stroke-dasharray=""/></g><g><text fill="black" stroke="none" font-family="sans-serif" font-size="11pt" font-style="normal" font-weight="normal" text-decoration="normal" x="973.0275182992332" y="120.6354763705" text-anchor="start" dominant-baseline="alphabetic" xml:space="preserve">DBMS</text></g></g><g><path fill="white" stroke="black" paint-order="fill stroke markers" d=" M 99.64474013 145.13828132049997 L 115.97994342999999 145.13828132049997 L 115.97994342999999 1394.7813337705 L 99.64474013 1394.7813337705 L 99.64474013 145.13828132049997" stroke-miterlimit="10" stroke-width="1.3612669416666667" stroke-dasharray=""/><path fill="white" stroke="black" paint-order="fill stroke markers" d=" M 322.8132059002474 190.87685056049997 L 339.1484092002474 190.87685056049997 L 339.1484092002474 803.4469743104996 L 322.8132059002474 803.4469743104996 L 322.8132059002474 190.87685056049997" stroke-miterlimit="10" stroke-width="1.3612669416666667" stroke-dasharray=""/><path fill="white" stroke="black" paint-order="fill stroke markers" d=" M 330.9808075502474 257.85118409049994 L 347.3160108502474 257.85118409049994 L 347.3160108502474 269.28582640049996 L 330.9808075502474 269.28582640049996 L 330.9808075502474 257.85118409049994" stroke-miterlimit="10" stroke-width="1.3612669416666667" stroke-dasharray=""/><path fill="white" stroke="black" paint-order="fill stroke markers" d=" M 696.9492763722526 303.58975333049995 L 713.2844796722527 303.58975333049995 L 713.2844796722527 757.7084050704997 L 696.9492763722526 757.7084050704997 L 696.9492763722526 303.58975333049995" stroke-miterlimit="10" stroke-width="1.3612669416666667" stroke-dasharray=""/><path fill="white" stroke="black" paint-order="fill stroke markers" d=" M 869.7864133747565 349.32832257049995 L 886.1216166747566 349.32832257049995 L 886.1216166747566 395.06689181049995 L 869.7864133747565 395.06689181049995 L 869.7864133747565 349.32832257049995" stroke-miterlimit="10" stroke-width="1.3612669416666667" stroke-dasharray=""/><path fill="white" stroke="black" paint-order="fill stroke markers" d=" M 985.9508266071189 440.80546105049996 L 1002.286029907119 440.80546105049996 L 1002.286029907119 486.54403029049996 L 985.9508266071189 486.54403029049996 L 985.9508266071189 440.80546105049996" stroke-miterlimit="10" stroke-width="1.3612669416666667" stroke-dasharray=""/><path fill="white" stroke="black" paint-order="fill stroke markers" d=" M 985.9508266071189 666.2312665904998 L 1002.286029907119 666.2312665904998 L 1002.286029907119 711.9698358304997 L 985.9508266071189 711.9698358304997 L 985.9508266071189 666.2312665904998" stroke-miterlimit="10" stroke-width="1.3612669416666667" stroke-dasharray=""/><path fill="white" stroke="black" paint-order="fill stroke markers" d=" M 322.8132059002474 916.1598770804995 L 339.1484092002474 916.1598770804995 L 339.1484092002474 1394.7813337705 L 322.8132059002474 1394.7813337705 L 322.8132059002474 916.1598770804995" stroke-miterlimit="10" stroke-width="1.3612669416666667" stroke-dasharray=""/><path fill="white" stroke="black" paint-order="fill stroke markers" d=" M 330.9808075502474 983.1342106104995 L 347.3160108502474 983.1342106104995 L 347.3160108502474 994.5688529204995 L 330.9808075502474 994.5688529204995 L 330.9808075502474 983.1342106104995" stroke-miterlimit="10" stroke-width="1.3612669416666667" stroke-dasharray=""/><path fill="white" stroke="black" paint-order="fill stroke markers" d=" M 696.9492763722526 1028.8727798504995 L 713.2844796722527 1028.8727798504995 L 713.2844796722527 1349.0427645304999 L 696.9492763722526 1349.0427645304999 L 696.9492763722526 1028.8727798504995" stroke-miterlimit="10" stroke-width="1.3612669416666667" stroke-dasharray=""/><path fill="white" stroke="black" paint-order="fill stroke markers" d=" M 869.7864133747565 1074.6113490904995 L 886.1216166747566 1074.6113490904995 L 886.1216166747566 1120.3499183304996 L 869.7864133747565 1120.3499183304996 L 869.7864133747565 1074.6113490904995" stroke-miterlimit="10" stroke-width="1.3612669416666667" stroke-dasharray=""/><path fill="white" stroke="black" paint-order="fill stroke markers" d=" M 985.9508266071189 1166.0884875704996 L 1002.286029907119 1166.0884875704996 L 1002.286029907119 1211.8270568104997 L 985.9508266071189 1211.8270568104997 L 985.9508266071189 1166.0884875704996" stroke-miterlimit="10" stroke-width="1.3612669416666667" stroke-dasharray=""/><path fill="white" stroke="black" paint-order="fill stroke markers" d=" M 985.9508266071189 1257.5656260504998 L 1002.286029907119 1257.5656260504998 L 1002.286029907119 1303.3041952904998 L 985.9508266071189 1303.3041952904998 L 985.9508266071189 1257.5656260504998" stroke-miterlimit="10" stroke-width="1.3612669416666667" stroke-dasharray=""/><g><g/><g/><path fill="none" stroke="black" paint-order="fill stroke markers" d=" M 8.16760165 8.16760165 L 1093.7631683871189 8.16760165 L 1093.7631683871189 1494.4260739004997 L 8.16760165 1494.4260739004997 L 8.16760165 8.16760165 Z" stroke-miterlimit="10" stroke-width="1.3612669416666667" stroke-dasharray=""/><path fill="white" stroke="black" paint-order="fill stroke markers" d=" M 8.16760165 8.16760165 L 8.16760165 31.036886269999997 L 154.12892087817383 31.036886269999997 L 165.56356318817382 19.60224396 L 165.56356318817382 8.16760165 L 8.16760165 8.16760165" stroke-miterlimit="10" stroke-width="1.3612669416666667" stroke-dasharray=""/><text fill="black" stroke="none" font-family="sans-serif" font-size="11pt" font-style="normal" font-weight="bold" text-decoration="normal" x="24.502804949999998" y="23.686044784999996" text-anchor="start" dominant-baseline="alphabetic" xml:space="preserve">sd</text><text fill="black" stroke="none" font-family="sans-serif" font-size="11pt" font-style="normal" font-weight="normal" text-decoration="normal" x="45.84826011967773" y="23.686044784999996" text-anchor="start" dominant-baseline="alphabetic" xml:space="preserve">logged-in Staff</text></g><g><g><rect fill="white" stroke="none" x="135.30993400166668" y="169.64108627049998" width="168.17328132691406" height="21.23576429"/></g><text fill="black" stroke="none" font-family="sans-serif" font-size="11pt" font-style="normal" font-weight="normal" text-decoration="normal" x="137.76021449666666" y="184.34276924049996" text-anchor="start" dominant-baseline="alphabetic" xml:space="preserve">show QR code (entrance)</text></g><g><path fill="none" stroke="black" paint-order="fill stroke markers" d=" M 115.97994342999999 190.87685056049997 L 309.36388851658074 190.87685056049997" stroke-miterlimit="10" stroke-width="1.3612669416666667" stroke-dasharray=""/><g transform="translate(322.8132059002474,190.87685056049997) translate(-322.8132059002474,-190.87685056049997)"><path fill="black" stroke="none" paint-order="stroke fill markers" d=" M 309.2005364835807 184.07051585216664 L 322.8132059002474 190.87685056049997 L 309.2005364835807 197.6831852688333 Z"/></g></g><g><g><rect fill="white" stroke="none" x="366.64600142191404" y="215.37965551049996" width="95.91874183716797" height="21.23576429"/></g><text fill="black" stroke="none" font-family="sans-serif" font-size="11pt" font-style="normal" font-weight="normal" text-decoration="normal" x="369.09628191691405" y="230.08133848049994" text-anchor="start" dominant-baseline="alphabetic" xml:space="preserve">scan QR code</text></g><g><path fill="none" stroke="black" paint-order="fill stroke markers" d=" M 339.1484092002474 236.61541980049995 L 412.6568240502474 236.61541980049995 L 412.6568240502474 257.85118409049994 L 360.76532823391403 257.85118409049994" stroke-miterlimit="10" stroke-width="1.3612669416666667" stroke-dasharray=""/><g transform="translate(347.3160108502474,257.85118409049994) translate(-347.3160108502474,-257.85118409049994)"><path fill="black" stroke="none" paint-order="stroke fill markers" d=" M 360.92868026691406 251.0448493821666 L 347.3160108502474 257.85118409049994 L 360.92868026691406 264.6575187988333 Z"/></g></g><g><g><rect fill="white" stroke="none" x="362.56220059691407" y="282.3539890404999" width="310.97328437867185" height="21.23576429"/></g><text fill="black" stroke="none" font-family="sans-serif" font-size="11pt" font-style="normal" font-weight="normal" text-decoration="normal" x="365.0124810919141" y="297.0556720104999" text-anchor="start" dominant-baseline="alphabetic" xml:space="preserve">POST /staff/shop/{shop_id}/token/log-entry (uid)</text></g><g><path fill="none" stroke="black" paint-order="fill stroke markers" d=" M 339.1484092002474 303.58975333049995 L 683.499958988586 303.58975333049995" stroke-miterlimit="10" stroke-width="1.3612669416666667" stroke-dasharray=""/><g transform="translate(696.9492763722526,303.58975333049995) translate(-696.9492763722526,-303.58975333049995)"><path fill="black" stroke="none" paint-order="stroke fill markers" d=" M 683.3366069555859 296.7834186221666 L 696.9492763722526 303.58975333049995 L 683.3366069555859 310.3960880388333 Z"/></g></g><g><g><rect fill="white" stroke="none" x="736.8306189093639" y="328.09255828049993" width="109.40965522828125" height="21.23576429"/></g><text fill="black" stroke="none" font-family="sans-serif" font-size="11pt" font-style="normal" font-weight="normal" text-decoration="normal" x="739.2808994043639" y="342.7942412504999" text-anchor="start" dominant-baseline="alphabetic" xml:space="preserve">check_session()</text></g><g><path fill="none" stroke="black" paint-order="fill stroke markers" d=" M 713.2844796722527 349.32832257049995 L 856.3370959910899 349.32832257049995" stroke-miterlimit="10" stroke-width="1.3612669416666667" stroke-dasharray=""/><g transform="translate(869.7864133747565,349.32832257049995) translate(-869.7864133747565,-349.32832257049995)"><path fill="black" stroke="none" paint-order="stroke fill markers" d=" M 856.1737439580899 342.5219878621666 L 869.7864133747565 349.32832257049995 L 856.1737439580899 356.1346572788333 Z"/></g></g><g><g><rect fill="white" stroke="none" x="789.0851660285045" y="373.83112752049993" width="4.90056099" height="21.23576429"/></g><text fill="black" stroke="none" font-family="sans-serif" font-size="11pt" font-style="normal" font-weight="normal" text-decoration="normal" x="791.5354465235046" y="388.5328104904999" text-anchor="start" dominant-baseline="alphabetic" xml:space="preserve"></text></g><g><path fill="none" stroke="black" paint-order="fill stroke markers" d=" M 869.7864133747565 395.06689181049995 L 715.3263800847527 395.06689181049995" stroke-miterlimit="10" stroke-width="1.3612669416666667" stroke-dasharray="6.53408132"/><g transform="translate(713.2844796722527,395.06689181049995) translate(-713.2844796722527,-395.06689181049995)"><path fill="none" stroke="black" paint-order="fill stroke markers" d=" M 727.2797240553067 388.8234943248765 L 714.8147795378022 395.06689181049995 L 727.2797240553067 401.3102892961234" stroke-miterlimit="10" stroke-width="1.3612669416666667"/></g></g><g><g><rect fill="white" stroke="none" x="801.5673741705647" y="419.56969676049994" width="96.10055793824219" height="21.23576429"/></g><text fill="black" stroke="none" font-family="sans-serif" font-size="11pt" font-style="normal" font-weight="normal" text-decoration="normal" x="804.0176546655647" y="434.2713797304999" text-anchor="start" dominant-baseline="alphabetic" xml:space="preserve">check_token()</text></g><g><path fill="none" stroke="black" paint-order="fill stroke markers" d=" M 713.2844796722527 440.80546105049996 L 972.5015092234522 440.80546105049996" stroke-miterlimit="10" stroke-width="1.3612669416666667" stroke-dasharray=""/><g transform="translate(985.9508266071189,440.80546105049996) translate(-985.9508266071189,-440.80546105049996)"><path fill="black" stroke="none" paint-order="stroke fill markers" d=" M 972.3381571904522 433.9991263421666 L 985.9508266071189 440.80546105049996 L 972.3381571904522 447.6117957588333 Z"/></g></g><g><g><rect fill="white" stroke="none" x="847.1673726446858" y="465.30826600049994" width="4.90056099" height="21.23576429"/></g><text fill="black" stroke="none" font-family="sans-serif" font-size="11pt" font-style="normal" font-weight="normal" text-decoration="normal" x="849.6176531396858" y="480.0099489704999" text-anchor="start" dominant-baseline="alphabetic" xml:space="preserve"></text></g><g><path fill="none" stroke="black" paint-order="fill stroke markers" d=" M 985.9508266071189 486.54403029049996 L 715.3263800847527 486.54403029049996" stroke-miterlimit="10" stroke-width="1.3612669416666667" stroke-dasharray="6.53408132"/><g transform="translate(713.2844796722527,486.54403029049996) translate(-713.2844796722527,-486.54403029049996)"><path fill="none" stroke="black" paint-order="fill stroke markers" d=" M 727.2797240553067 480.3006328048765 L 714.8147795378022 486.54403029049996 L 727.2797240553067 492.7874277761234" stroke-miterlimit="10" stroke-width="1.3612669416666667"/></g></g><g><g><rect fill="white" stroke="none" x="459.9985638171289" y="555.1518841504999" width="116.10055793824219" height="21.23576429"/></g><text fill="black" stroke="none" font-family="sans-serif" font-size="11pt" font-style="normal" font-weight="normal" text-decoration="normal" x="462.4488443121289" y="569.8535671204999" text-anchor="start" dominant-baseline="alphabetic" xml:space="preserve">400 Bad Request</text></g><g><path fill="none" stroke="black" paint-order="fill stroke markers" d=" M 696.9492763722526 576.3876484404999 L 341.1903096127474 576.3876484404999" stroke-miterlimit="10" stroke-width="1.3612669416666667" stroke-dasharray="6.53408132"/><g transform="translate(339.1484092002474,576.3876484404999) translate(-339.1484092002474,-576.3876484404999)"><path fill="none" stroke="black" paint-order="fill stroke markers" d=" M 353.14365358330144 570.1442509548765 L 340.67870906579685 576.3876484404999 L 353.14365358330144 582.6310459261233" stroke-miterlimit="10" stroke-width="1.3612669416666667"/></g></g><g><g><rect fill="white" stroke="none" x="812.821917475008" y="644.9955023004998" width="73.59147132935547" height="21.23576429"/></g><text fill="black" stroke="none" font-family="sans-serif" font-size="11pt" font-style="normal" font-weight="normal" text-decoration="normal" x="815.272197970008" y="659.6971852704997" text-anchor="start" dominant-baseline="alphabetic" xml:space="preserve">log_entry()</text></g><g><path fill="none" stroke="black" paint-order="fill stroke markers" d=" M 713.2844796722527 666.2312665904998 L 972.5015092234522 666.2312665904998" stroke-miterlimit="10" stroke-width="1.3612669416666667" stroke-dasharray=""/><g transform="translate(985.9508266071189,666.2312665904998) translate(-985.9508266071189,-666.2312665904998)"><path fill="black" stroke="none" paint-order="stroke fill markers" d=" M 972.3381571904522 659.4249318821664 L 985.9508266071189 666.2312665904998 L 972.3381571904522 673.0376012988331 Z"/></g></g><g><g><rect fill="white" stroke="none" x="847.1673726446858" y="690.7340715404997" width="4.90056099" height="21.23576429"/></g><text fill="black" stroke="none" font-family="sans-serif" font-size="11pt" font-style="normal" font-weight="normal" text-decoration="normal" x="849.6176531396858" y="705.4357545104997" text-anchor="start" dominant-baseline="alphabetic" xml:space="preserve"></text></g><g><path fill="none" stroke="black" paint-order="fill stroke markers" d=" M 985.9508266071189 711.9698358304997 L 715.3263800847527 711.9698358304997" stroke-miterlimit="10" stroke-width="1.3612669416666667" stroke-dasharray="6.53408132"/><g transform="translate(713.2844796722527,711.9698358304997) translate(-713.2844796722527,-711.9698358304997)"><path fill="none" stroke="black" paint-order="fill stroke markers" d=" M 727.2797240553067 705.7264383448763 L 714.8147795378022 711.9698358304997 L 727.2797240553067 718.2132333161231" stroke-miterlimit="10" stroke-width="1.3612669416666667"/></g></g><g><g><rect fill="white" stroke="none" x="490.8167439013574" y="736.4726407804997" width="54.46419776978516" height="21.23576429"/></g><text fill="black" stroke="none" font-family="sans-serif" font-size="11pt" font-style="normal" font-weight="normal" text-decoration="normal" x="493.26702439635744" y="751.1743237504996" text-anchor="start" dominant-baseline="alphabetic" xml:space="preserve">200 OK</text></g><g><path fill="none" stroke="black" paint-order="fill stroke markers" d=" M 696.9492763722526 757.7084050704997 L 341.1903096127474 757.7084050704997" stroke-miterlimit="10" stroke-width="1.3612669416666667" stroke-dasharray="6.53408132"/><g transform="translate(339.1484092002474,757.7084050704997) translate(-339.1484092002474,-757.7084050704997)"><path fill="none" stroke="black" paint-order="fill stroke markers" d=" M 353.14365358330144 751.4650075848763 L 340.67870906579685 757.7084050704997 L 353.14365358330144 763.9518025561231" stroke-miterlimit="10" stroke-width="1.3612669416666667"/></g></g><g><g><rect fill="white" stroke="none" x="182.91902289937175" y="782.2112100204996" width="72.95510353150391" height="21.23576429"/></g><text fill="black" stroke="none" font-family="sans-serif" font-size="11pt" font-style="normal" font-weight="normal" text-decoration="normal" x="185.36930339437174" y="796.9128929904996" text-anchor="start" dominant-baseline="alphabetic" xml:space="preserve">allow entry</text></g><g><path fill="none" stroke="black" paint-order="fill stroke markers" d=" M 322.8132059002474 803.4469743104996 L 129.42926081366664 803.4469743104996" stroke-miterlimit="10" stroke-width="1.3612669416666667" stroke-dasharray="6.53408132"/><g transform="translate(115.97994342999999,803.4469743104996) translate(-115.97994342999999,-803.4469743104996)"><path fill="black" stroke="none" paint-order="stroke fill markers" d=" M 129.59261284666667 796.6406396021663 L 115.97994342999999 803.4469743104996 L 129.59261284666667 810.253309018833 Z"/></g></g><g><g><rect fill="white" stroke="none" x="135.30993400166668" y="827.9497792604996" width="67.39147056641602" height="21.23576429"/></g><text fill="black" stroke="none" font-family="sans-serif" font-size="11pt" font-style="normal" font-weight="normal" text-decoration="normal" x="137.76021449666666" y="842.6514622304995" text-anchor="start" dominant-baseline="alphabetic" xml:space="preserve">visit Shop</text></g><g><path fill="none" stroke="black" paint-order="fill stroke markers" d=" M 115.97994342999999 849.1855435504996 L 181.32075663 849.1855435504996 L 181.32075663 870.4213078404996 L 129.42926081366664 870.4213078404996" stroke-miterlimit="10" stroke-width="1.3612669416666667" stroke-dasharray=""/><g transform="translate(115.97994342999999,870.4213078404996) translate(-115.97994342999999,-870.4213078404996)"><path fill="black" stroke="none" paint-order="stroke fill markers" d=" M 129.59261284666667 863.6149731321663 L 115.97994342999999 870.4213078404996 L 129.59261284666667 877.2276425488329 Z"/></g></g><g><g><rect fill="white" stroke="none" x="152.10084281514324" y="894.9241127904995" width="134.59146369996094" height="21.23576429"/></g><text fill="black" stroke="none" font-family="sans-serif" font-size="11pt" font-style="normal" font-weight="normal" text-decoration="normal" x="154.55112331014323" y="909.6257957604995" text-anchor="start" dominant-baseline="alphabetic" xml:space="preserve">show QR code (exit)</text></g><g><path fill="none" stroke="black" paint-order="fill stroke markers" d=" M 115.97994342999999 916.1598770804995 L 309.36388851658074 916.1598770804995" stroke-miterlimit="10" stroke-width="1.3612669416666667" stroke-dasharray=""/><g transform="translate(322.8132059002474,916.1598770804995) translate(-322.8132059002474,-916.1598770804995)"><path fill="black" stroke="none" paint-order="stroke fill markers" d=" M 309.2005364835807 909.3535423721662 L 322.8132059002474 916.1598770804995 L 309.2005364835807 922.9662117888329 Z"/></g></g><g><g><rect fill="white" stroke="none" x="366.64600142191404" y="940.6626820304995" width="95.91874183716797" height="21.23576429"/></g><text fill="black" stroke="none" font-family="sans-serif" font-size="11pt" font-style="normal" font-weight="normal" text-decoration="normal" x="369.09628191691405" y="955.3643650004994" text-anchor="start" dominant-baseline="alphabetic" xml:space="preserve">scan QR code</text></g><g><path fill="none" stroke="black" paint-order="fill stroke markers" d=" M 339.1484092002474 961.8984463204995 L 412.6568240502474 961.8984463204995 L 412.6568240502474 983.1342106104995 L 360.76532823391403 983.1342106104995" stroke-miterlimit="10" stroke-width="1.3612669416666667" stroke-dasharray=""/><g transform="translate(347.3160108502474,983.1342106104995) translate(-347.3160108502474,-983.1342106104995)"><path fill="black" stroke="none" paint-order="stroke fill markers" d=" M 360.92868026691406 976.3278759021662 L 347.3160108502474 983.1342106104995 L 360.92868026691406 989.9405453188328 Z"/></g></g><g><g><rect fill="white" stroke="none" x="367.32584195433594" y="1007.6370155604994" width="301.4460016638281" height="21.23576429"/></g><text fill="black" stroke="none" font-family="sans-serif" font-size="11pt" font-style="normal" font-weight="normal" text-decoration="normal" x="369.77612244933596" y="1022.3386985304994" text-anchor="start" dominant-baseline="alphabetic" xml:space="preserve">POST /staff/shop/{shop_id}/token/log-exit (uid)</text></g><g><path fill="none" stroke="black" paint-order="fill stroke markers" d=" M 339.1484092002474 1028.8727798504995 L 683.499958988586 1028.8727798504995" stroke-miterlimit="10" stroke-width="1.3612669416666667" stroke-dasharray=""/><g transform="translate(696.9492763722526,1028.8727798504995) translate(-696.9492763722526,-1028.8727798504995)"><path fill="black" stroke="none" paint-order="stroke fill markers" d=" M 683.3366069555859 1022.0664451421661 L 696.9492763722526 1028.8727798504995 L 683.3366069555859 1035.6791145588327 Z"/></g></g><g><g><rect fill="white" stroke="none" x="736.8306189093639" y="1053.3755848004996" width="109.40965522828125" height="21.23576429"/></g><text fill="black" stroke="none" font-family="sans-serif" font-size="11pt" font-style="normal" font-weight="normal" text-decoration="normal" x="739.2808994043639" y="1068.0772677704997" text-anchor="start" dominant-baseline="alphabetic" xml:space="preserve">check_session()</text></g><g><path fill="none" stroke="black" paint-order="fill stroke markers" d=" M 713.2844796722527 1074.6113490904995 L 856.3370959910899 1074.6113490904995" stroke-miterlimit="10" stroke-width="1.3612669416666667" stroke-dasharray=""/><g transform="translate(869.7864133747565,1074.6113490904995) translate(-869.7864133747565,-1074.6113490904995)"><path fill="black" stroke="none" paint-order="stroke fill markers" d=" M 856.1737439580899 1067.8050143821663 L 869.7864133747565 1074.6113490904995 L 856.1737439580899 1081.4176837988327 Z"/></g></g><g><g><rect fill="white" stroke="none" x="789.0851660285045" y="1099.1141540404997" width="4.90056099" height="21.23576429"/></g><text fill="black" stroke="none" font-family="sans-serif" font-size="11pt" font-style="normal" font-weight="normal" text-decoration="normal" x="791.5354465235046" y="1113.8158370104998" text-anchor="start" dominant-baseline="alphabetic" xml:space="preserve"></text></g><g><path fill="none" stroke="black" paint-order="fill stroke markers" d=" M 869.7864133747565 1120.3499183304996 L 715.3263800847527 1120.3499183304996" stroke-miterlimit="10" stroke-width="1.3612669416666667" stroke-dasharray="6.53408132"/><g transform="translate(713.2844796722527,1120.3499183304996) translate(-713.2844796722527,-1120.3499183304996)"><path fill="none" stroke="black" paint-order="fill stroke markers" d=" M 727.2797240553067 1114.1065208448763 L 714.8147795378022 1120.3499183304996 L 727.2797240553067 1126.5933158161229" stroke-miterlimit="10" stroke-width="1.3612669416666667"/></g></g><g><g><rect fill="white" stroke="none" x="801.5673741705647" y="1144.8527232804997" width="96.10055793824219" height="21.23576429"/></g><text fill="black" stroke="none" font-family="sans-serif" font-size="11pt" font-style="normal" font-weight="normal" text-decoration="normal" x="804.0176546655647" y="1159.5544062504998" text-anchor="start" dominant-baseline="alphabetic" xml:space="preserve">check_token()</text></g><g><path fill="none" stroke="black" paint-order="fill stroke markers" d=" M 713.2844796722527 1166.0884875704996 L 972.5015092234522 1166.0884875704996" stroke-miterlimit="10" stroke-width="1.3612669416666667" stroke-dasharray=""/><g transform="translate(985.9508266071189,1166.0884875704996) translate(-985.9508266071189,-1166.0884875704996)"><path fill="black" stroke="none" paint-order="stroke fill markers" d=" M 972.3381571904522 1159.2821528621664 L 985.9508266071189 1166.0884875704996 L 972.3381571904522 1172.8948222788329 Z"/></g></g><g><g><rect fill="white" stroke="none" x="847.1673726446858" y="1190.5912925204998" width="4.90056099" height="21.23576429"/></g><text fill="black" stroke="none" font-family="sans-serif" font-size="11pt" font-style="normal" font-weight="normal" text-decoration="normal" x="849.6176531396858" y="1205.2929754904999" text-anchor="start" dominant-baseline="alphabetic" xml:space="preserve"></text></g><g><path fill="none" stroke="black" paint-order="fill stroke markers" d=" M 985.9508266071189 1211.8270568104997 L 715.3263800847527 1211.8270568104997" stroke-miterlimit="10" stroke-width="1.3612669416666667" stroke-dasharray="6.53408132"/><g transform="translate(713.2844796722527,1211.8270568104997) translate(-713.2844796722527,-1211.8270568104997)"><path fill="none" stroke="black" paint-order="fill stroke markers" d=" M 727.2797240553067 1205.5836593248764 L 714.8147795378022 1211.8270568104997 L 727.2797240553067 1218.070454296123" stroke-miterlimit="10" stroke-width="1.3612669416666667"/></g></g><g><g><rect fill="white" stroke="none" x="817.5855550177326" y="1236.3298617604999" width="64.06419624390625" height="21.23576429"/></g><text fill="black" stroke="none" font-family="sans-serif" font-size="11pt" font-style="normal" font-weight="normal" text-decoration="normal" x="820.0358355127327" y="1251.0315447305" text-anchor="start" dominant-baseline="alphabetic" xml:space="preserve">log_exit()</text></g><g><path fill="none" stroke="black" paint-order="fill stroke markers" d=" M 713.2844796722527 1257.5656260504998 L 972.5015092234522 1257.5656260504998" stroke-miterlimit="10" stroke-width="1.3612669416666667" stroke-dasharray=""/><g transform="translate(985.9508266071189,1257.5656260504998) translate(-985.9508266071189,-1257.5656260504998)"><path fill="black" stroke="none" paint-order="stroke fill markers" d=" M 972.3381571904522 1250.7592913421665 L 985.9508266071189 1257.5656260504998 L 972.3381571904522 1264.371960758833 Z"/></g></g><g><g><rect fill="white" stroke="none" x="847.1673726446858" y="1282.0684310005" width="4.90056099" height="21.23576429"/></g><text fill="black" stroke="none" font-family="sans-serif" font-size="11pt" font-style="normal" font-weight="normal" text-decoration="normal" x="849.6176531396858" y="1296.7701139705" text-anchor="start" dominant-baseline="alphabetic" xml:space="preserve"></text></g><g><path fill="none" stroke="black" paint-order="fill stroke markers" d=" M 985.9508266071189 1303.3041952904998 L 715.3263800847527 1303.3041952904998" stroke-miterlimit="10" stroke-width="1.3612669416666667" stroke-dasharray="6.53408132"/><g transform="translate(713.2844796722527,1303.3041952904998) translate(-713.2844796722527,-1303.3041952904998)"><path fill="none" stroke="black" paint-order="fill stroke markers" d=" M 727.2797240553067 1297.0607978048765 L 714.8147795378022 1303.3041952904998 L 727.2797240553067 1309.547592776123" stroke-miterlimit="10" stroke-width="1.3612669416666667"/></g></g><g><g><rect fill="white" stroke="none" x="490.8167439013574" y="1327.8070002405" width="54.46419776978516" height="21.23576429"/></g><text fill="black" stroke="none" font-family="sans-serif" font-size="11pt" font-style="normal" font-weight="normal" text-decoration="normal" x="493.26702439635744" y="1342.5086832105" text-anchor="start" dominant-baseline="alphabetic" xml:space="preserve">200 OK</text></g><g><path fill="none" stroke="black" paint-order="fill stroke markers" d=" M 696.9492763722526 1349.0427645304999 L 341.1903096127474 1349.0427645304999" stroke-miterlimit="10" stroke-width="1.3612669416666667" stroke-dasharray="6.53408132"/><g transform="translate(339.1484092002474,1349.0427645304999) translate(-339.1484092002474,-1349.0427645304999)"><path fill="none" stroke="black" paint-order="fill stroke markers" d=" M 353.14365358330144 1342.7993670448766 L 340.67870906579685 1349.0427645304999 L 353.14365358330144 1355.2861620161232" stroke-miterlimit="10" stroke-width="1.3612669416666667"/></g></g><g><g><rect fill="white" stroke="none" x="187.68265853474773" y="1373.5455694805" width="63.427832260751956" height="21.23576429"/></g><text fill="black" stroke="none" font-family="sans-serif" font-size="11pt" font-style="normal" font-weight="normal" text-decoration="normal" x="190.13293902974772" y="1388.2472524505001" text-anchor="start" dominant-baseline="alphabetic" xml:space="preserve">allow exit</text></g><g><path fill="none" stroke="black" paint-order="fill stroke markers" d=" M 322.8132059002474 1394.7813337705 L 129.42926081366664 1394.7813337705" stroke-miterlimit="10" stroke-width="1.3612669416666667" stroke-dasharray="6.53408132"/><g transform="translate(115.97994342999999,1394.7813337705) translate(-115.97994342999999,-1394.7813337705)"><path fill="black" stroke="none" paint-order="stroke fill markers" d=" M 129.59261284666667 1387.9749990621667 L 115.97994342999999 1394.7813337705 L 129.59261284666667 1401.5876684788332 Z"/></g></g><g><g/><path fill="none" stroke="black" paint-order="fill stroke markers" d=" M 42.47152858 511.04683524049995 L 1051.2916398071188 511.04683524049995 L 1051.2916398071188 1419.2841387204999 L 42.47152858 1419.2841387204999 L 42.47152858 511.04683524049995 Z" stroke-miterlimit="10" stroke-width="2.3336004714285714" stroke-dasharray=""/><path fill="white" stroke="black" paint-order="fill stroke markers" d=" M 42.47152858 511.04683524049995 L 42.47152858 530.6490792005 L 88.90557176905028 530.6490792005 L 98.70669374905029 520.8479572204999 L 98.70669374905029 511.04683524049995 L 42.47152858 511.04683524049995" stroke-miterlimit="10" stroke-width="2.3336004714285714" stroke-dasharray=""/><text fill="black" stroke="none" font-family="sans-serif" font-size="8.8pt" font-style="normal" font-weight="bold" text-decoration="normal" x="58.80673188" y="524.1149978804999" text-anchor="start" dominant-baseline="alphabetic" xml:space="preserve">alt</text><text fill="black" stroke="none" font-family="sans-serif" font-size="8.8pt" font-style="normal" font-weight="bold" text-decoration="normal" x="115.04189704905029" y="524.1149978804999" text-anchor="start" dominant-baseline="alphabetic" xml:space="preserve">[invalid token]</text><g><path fill="none" stroke="black" paint-order="fill stroke markers" d=" M 42.47152858 600.8904533904998 L 1051.2916398071188 600.8904533904998" stroke-miterlimit="10" stroke-width="2.3336004714285714" stroke-dasharray="4.083800825"/></g><g/><text fill="black" stroke="none" font-family="sans-serif" font-size="8.8pt" font-style="normal" font-weight="bold" text-decoration="normal" x="115.04189704905029" y="613.9586160304998" text-anchor="start" dominant-baseline="alphabetic" xml:space="preserve">[valid token]</text></g><g/></g><g/></g></svg>