<svg version="1.1" xmlns="http://www.w3.org/2000/svg" xmlns:xlink="http://www.w3.org/1999/xlink" width="767" height="1414"><defs/><g><g/><g/><g/><g/><g/><g/><g/><g/><g/><g/><g/><g/><g/><g/><g/><g/><g/><g/><g/><g/><g/><g/><g/><g/><g/><g/><g/><g/><g/><g/><g/><g><rect fill="white" stroke="none" x="0" y="0" width="767" height="1414"/></g><g/><g><path fill="none" stroke="black" paint-order="fill stroke markers" d=" M 62.827704999999995 67.66543828500001 L 62.827704999999995 1414.6914334850003" stroke-miterlimit="10" stroke-width="1.0471284166666666" stroke-dasharray="9.665800769230769,4.188513666666666"/><path fill="none" stroke="black" paint-order="fill stroke markers" d=" M 204.61044651985674 67.66543828500001 L 204.61044651985674 1414.6914334850003" stroke-miterlimit="10" stroke-width="1.0471284166666666" stroke-dasharray="9.665800769230769,4.188513666666666"/><path fill="none" stroke="black" paint-order="fill stroke markers" d=" M 345.58504667447914 67.66543828500001 L 345.58504667447914 1414.6914334850003" stroke-miterlimit="10" stroke-width="1.0471284166666666" stroke-dasharray="9.665800769230769,4.188513666666666"/><path fill="none" stroke="black" paint-order="fill stroke markers" d=" M 480.2768763291015 67.66543828500001 L 480.2768763291015 1414.6914334850003" stroke-miterlimit="10" stroke-width="1.0471284166666666" stroke-dasharray="9.665800769230769,4.188513666666666"/><path fill="none" stroke="black" paint-order="fill stroke markers" d=" M 618.1256513014323 67.66543828500001 L 618.1256513014323 1414.6914334850003" stroke-miterlimit="10" stroke-width="1.0471284166666666" stroke-dasharray="9.665800769230769,4.188513666666666"/><path fill="none" stroke="black" paint-order="fill stroke markers" d=" M 704.7856886865934 67.66543828500001 L 704.7856886865934 1414.6914334850003" stroke-miterlimit="10" stroke-width="1.0471284166666666" stroke-dasharray="9.665800769230769,4.188513666666666"/></g><g><g><path fill="white" stroke="black" paint-order="fill stroke markers" d=" M 69.99006336999999 14.513199855000003 A 7.162358369999999 7.162358369999999 0 1 1 69.9900597888211 14.506037497823726 M 62.827704999999995 21.675558225000003 L 62.827704999999995 37.005518245000005 M 53.78051547999999 27.204396265 L 71.87489452 27.204396265 M 62.827704999999995 37.005518245000005 L 53.78051547999999 51.330234985000004 M 62.827704999999995 37.005518245000005 L 71.87489452 51.330234985000004" stroke-miterlimit="10" stroke-width="2.13614197" stroke-dasharray=""/></g><g><g/><text fill="black" stroke="none" font-family="sans-serif" font-size="8pt" font-style="normal" font-weight="normal" text-decoration="normal" x="40.26406822021484" y="63.89577598500001" text-anchor="start" dominant-baseline="alphabetic" xml:space="preserve">Customer</text></g><path fill="none" stroke="none"/><g><path fill="white" stroke="black" paint-order="fill stroke markers" d=" M 159.1768352977962 33.86413299500001 L 250.0440577419173 33.86413299500001 L 250.0440577419173 67.66543828500001 L 159.1768352977962 67.66543828500001 L 159.1768352977962 33.86413299500001 Z" stroke-miterlimit="10" stroke-width="2.01048656" stroke-dasharray=""/></g><g><text fill="black" stroke="none" font-family="sans-serif" font-size="8pt" font-style="normal" font-weight="normal" text-decoration="normal" x="172.8104472827962" y="55.099897285" text-anchor="start" dominant-baseline="alphabetic" xml:space="preserve">Clup Webapp</text></g><path fill="none" stroke="none"/><g><path fill="white" stroke="black" paint-order="fill stroke markers" d=" M 298.04234274001624 33.86413299500001 L 393.127750608942 33.86413299500001 L 393.127750608942 67.66543828500001 L 298.04234274001624 67.66543828500001 L 298.04234274001624 33.86413299500001 Z" stroke-miterlimit="10" stroke-width="2.01048656" stroke-dasharray=""/></g><g><text fill="black" stroke="none" font-family="sans-serif" font-size="8pt" font-style="normal" font-weight="normal" text-decoration="normal" x="311.67595472501625" y="55.099897285" text-anchor="start" dominant-baseline="alphabetic" xml:space="preserve">Reverse Proxy</text></g><path fill="none" stroke="none"/><g><path fill="white" stroke="black" paint-order="fill stroke markers" d=" M 410.07053714073237 33.86413299500001 L 550.4832155174706 33.86413299500001 L 550.4832155174706 67.66543828500001 L 410.07053714073237 67.66543828500001 L 410.07053714073237 33.86413299500001 Z" stroke-miterlimit="10" stroke-width="2.01048656" stroke-dasharray=""/></g><g><text fill="black" stroke="none" font-family="sans-serif" font-size="8pt" font-style="normal" font-weight="normal" text-decoration="normal" x="423.7041491257324" y="55.099897285" text-anchor="start" dominant-baseline="alphabetic" xml:space="preserve">CLup Application Server</text></g><path fill="none" stroke="none"/><g><path fill="white" stroke="black" paint-order="fill stroke markers" d=" M 573.0193124945329 33.86413299500001 L 663.2319901083317 33.86413299500001 L 663.2319901083317 67.66543828500001 L 573.0193124945329 67.66543828500001 L 573.0193124945329 33.86413299500001 Z" stroke-miterlimit="10" stroke-width="2.01048656" stroke-dasharray=""/></g><g><text fill="black" stroke="none" font-family="sans-serif" font-size="8pt" font-style="normal" font-weight="normal" text-decoration="normal" x="586.6529244795329" y="55.099897285" text-anchor="start" dominant-baseline="alphabetic" xml:space="preserve">Session store</text></g><path fill="none" stroke="none"/><g><path fill="white" stroke="black" paint-order="fill stroke markers" d=" M 675.7975311083317 33.86413299500001 L 733.7738462648551 33.86413299500001 L 733.7738462648551 67.66543828500001 L 675.7975311083317 67.66543828500001 L 675.7975311083317 33.86413299500001 Z" stroke-miterlimit="10" stroke-width="2.01048656" stroke-dasharray=""/></g><g><text fill="black" stroke="none" font-family="sans-serif" font-size="8pt" font-style="normal" font-weight="normal" text-decoration="normal" x="689.4311430933317" y="55.099897285" text-anchor="start" dominant-baseline="alphabetic" xml:space="preserve">DBMS</text></g></g><g><path fill="white" stroke="black" paint-order="fill stroke markers" d=" M 56.5449345 109.131723585 L 69.11047549999999 109.131723585 L 69.11047549999999 546.412550385 L 56.5449345 546.412550385 L 56.5449345 109.131723585" stroke-miterlimit="10" stroke-width="1.0471284166666666" stroke-dasharray=""/><path fill="white" stroke="black" paint-order="fill stroke markers" d=" M 198.32767601985674 144.315238385 L 210.89321701985673 144.315238385 L 210.89321701985673 546.412550385 L 198.32767601985674 546.412550385 L 198.32767601985674 144.315238385" stroke-miterlimit="10" stroke-width="1.0471284166666666" stroke-dasharray=""/><path fill="white" stroke="black" paint-order="fill stroke markers" d=" M 339.3022761744791 144.315238385 L 351.86781717447917 144.315238385 L 351.86781717447917 179.498753185 L 339.3022761744791 179.498753185 L 339.3022761744791 144.315238385" stroke-miterlimit="10" stroke-width="1.0471284166666666" stroke-dasharray=""/><path fill="white" stroke="black" paint-order="fill stroke markers" d=" M 204.61044651985674 248.609228685 L 217.17598751985673 248.609228685 L 217.17598751985673 283.792743485 L 204.61044651985674 283.792743485 L 204.61044651985674 248.609228685" stroke-miterlimit="10" stroke-width="1.0471284166666666" stroke-dasharray=""/><path fill="white" stroke="black" paint-order="fill stroke markers" d=" M 339.3022761744791 248.609228685 L 351.86781717447917 248.609228685 L 351.86781717447917 283.792743485 L 339.3022761744791 283.792743485 L 339.3022761744791 248.609228685" stroke-miterlimit="10" stroke-width="1.0471284166666666" stroke-dasharray=""/><path fill="white" stroke="black" paint-order="fill stroke markers" d=" M 204.61044651985674 352.903218985 L 217.17598751985673 352.903218985 L 217.17598751985673 388.08673378500004 L 204.61044651985674 388.08673378500004 L 204.61044651985674 352.903218985" stroke-miterlimit="10" stroke-width="1.0471284166666666" stroke-dasharray=""/><path fill="white" stroke="black" paint-order="fill stroke markers" d=" M 339.3022761744791 352.903218985 L 351.86781717447917 352.903218985 L 351.86781717447917 388.08673378500004 L 339.3022761744791 388.08673378500004 L 339.3022761744791 352.903218985" stroke-miterlimit="10" stroke-width="1.0471284166666666" stroke-dasharray=""/><path fill="white" stroke="black" paint-order="fill stroke markers" d=" M 204.61044651985674 457.19720928500004 L 217.17598751985673 457.19720928500004 L 217.17598751985673 492.38072408500005 L 204.61044651985674 492.38072408500005 L 204.61044651985674 457.19720928500004" stroke-miterlimit="10" stroke-width="1.0471284166666666" stroke-dasharray=""/><path fill="white" stroke="black" paint-order="fill stroke markers" d=" M 339.3022761744791 457.19720928500004 L 351.86781717447917 457.19720928500004 L 351.86781717447917 492.38072408500005 L 339.3022761744791 492.38072408500005 L 339.3022761744791 457.19720928500004" stroke-miterlimit="10" stroke-width="1.0471284166666666" stroke-dasharray=""/><path fill="white" stroke="black" paint-order="fill stroke markers" d=" M 56.5449345 581.596065185 L 69.11047549999999 581.596065185 L 69.11047549999999 1360.6596071850004 L 56.5449345 1360.6596071850004 L 56.5449345 581.596065185" stroke-miterlimit="10" stroke-width="1.0471284166666666" stroke-dasharray=""/><path fill="white" stroke="black" paint-order="fill stroke markers" d=" M 198.32767601985674 581.596065185 L 210.89321701985673 581.596065185 L 210.89321701985673 1351.8637284850004 L 198.32767601985674 1351.8637284850004 L 198.32767601985674 581.596065185" stroke-miterlimit="10" stroke-width="1.0471284166666666" stroke-dasharray=""/><path fill="white" stroke="black" paint-order="fill stroke markers" d=" M 339.3022761744791 616.779579985 L 351.86781717447917 616.779579985 L 351.86781717447917 651.9630947850001 L 339.3022761744791 651.9630947850001 L 339.3022761744791 616.779579985" stroke-miterlimit="10" stroke-width="1.0471284166666666" stroke-dasharray=""/><path fill="white" stroke="black" paint-order="fill stroke markers" d=" M 473.9941058291015 651.9630947850001 L 486.55964682910155 651.9630947850001 L 486.55964682910155 1281.4966988850003 L 473.9941058291015 1281.4966988850003 L 473.9941058291015 651.9630947850001" stroke-miterlimit="10" stroke-width="1.0471284166666666" stroke-dasharray=""/><path fill="white" stroke="black" paint-order="fill stroke markers" d=" M 611.8428808014323 721.0735702850001 L 624.4084218014323 721.0735702850001 L 624.4084218014323 756.2570850850001 L 611.8428808014323 756.2570850850001 L 611.8428808014323 721.0735702850001" stroke-miterlimit="10" stroke-width="1.0471284166666666" stroke-dasharray=""/><path fill="white" stroke="black" paint-order="fill stroke markers" d=" M 698.5029181865934 844.2158720850001 L 711.0684591865934 844.2158720850001 L 711.0684591865934 879.3993868850001 L 698.5029181865934 879.3993868850001 L 698.5029181865934 844.2158720850001" stroke-miterlimit="10" stroke-width="1.0471284166666666" stroke-dasharray=""/><path fill="white" stroke="black" paint-order="fill stroke markers" d=" M 480.2768763291015 949.7664164850001 L 492.8424173291016 949.7664164850001 L 492.8424173291016 958.5622951850002 L 480.2768763291015 958.5622951850002 L 480.2768763291015 949.7664164850001" stroke-miterlimit="10" stroke-width="1.0471284166666666" stroke-dasharray=""/><path fill="white" stroke="black" paint-order="fill stroke markers" d=" M 698.5029181865934 1018.8768919850002 L 711.0684591865934 1018.8768919850002 L 711.0684591865934 1054.0604067850002 L 698.5029181865934 1054.0604067850002 L 698.5029181865934 1018.8768919850002" stroke-miterlimit="10" stroke-width="1.0471284166666666" stroke-dasharray=""/><path fill="white" stroke="black" paint-order="fill stroke markers" d=" M 339.3022761744791 1142.0191937850002 L 351.86781717447917 1142.0191937850002 L 351.86781717447917 1177.2027085850002 L 339.3022761744791 1177.2027085850002 L 339.3022761744791 1142.0191937850002" stroke-miterlimit="10" stroke-width="1.0471284166666666" stroke-dasharray=""/><path fill="white" stroke="black" paint-order="fill stroke markers" d=" M 339.3022761744791 1281.4966988850003 L 351.86781717447917 1281.4966988850003 L 351.86781717447917 1316.6802136850004 L 339.3022761744791 1316.6802136850004 L 339.3022761744791 1281.4966988850003" stroke-miterlimit="10" stroke-width="1.0471284166666666" stroke-dasharray=""/><g><g><rect fill="white" stroke="none" x="103.5574474868815" y="92.796520285" width="66.60602704609374" height="16.3352033"/></g><text fill="black" stroke="none" font-family="sans-serif" font-size="8pt" font-style="normal" font-weight="normal" text-decoration="normal" x="105.4422786368815" y="104.105507185" text-anchor="start" dominant-baseline="alphabetic" xml:space="preserve">open webapp</text></g><g><path fill="none" stroke="black" paint-order="fill stroke markers" d=" M 69.11047549999999 109.131723585 L 194.26481776319008 109.131723585" stroke-miterlimit="10" stroke-width="1.0471284166666666" stroke-dasharray=""/><g transform="translate(204.61044651985674,109.131723585) translate(-204.61044651985674,-109.131723585)"><path fill="black" stroke="none" paint-order="stroke fill markers" d=" M 194.13916235319007 103.89608150166667 L 204.61044651985674 109.131723585 L 194.13916235319007 114.36736566833333 Z"/></g></g><g><g><rect fill="white" stroke="none" x="259.55836966317133" y="127.98003508499998" width="31.078753867993164" height="16.3352033"/></g><text fill="black" stroke="none" font-family="sans-serif" font-size="8pt" font-style="normal" font-weight="normal" text-decoration="normal" x="261.44320081317136" y="139.28902198499998" text-anchor="start" dominant-baseline="alphabetic" xml:space="preserve">GET /</text></g><g><path fill="none" stroke="black" paint-order="fill stroke markers" d=" M 210.89321701985673 144.315238385 L 328.95664741781246 144.315238385" stroke-miterlimit="10" stroke-width="1.0471284166666666" stroke-dasharray=""/><g transform="translate(339.3022761744791,144.315238385) translate(-339.3022761744791,-144.315238385)"><path fill="black" stroke="none" paint-order="stroke fill markers" d=" M 328.8309920078124 139.07959630166664 L 339.3022761744791 144.315238385 L 328.8309920078124 149.55088046833333 Z"/></g></g><g><g><rect fill="white" stroke="none" x="255.20382502358396" y="163.163549885" width="39.78784314716797" height="16.3352033"/></g><text fill="black" stroke="none" font-family="sans-serif" font-size="8pt" font-style="normal" font-weight="normal" text-decoration="normal" x="257.08865617358396" y="174.47253678500002" text-anchor="start" dominant-baseline="alphabetic" xml:space="preserve">200 OK</text></g><g><path fill="none" stroke="black" paint-order="fill stroke markers" d=" M 339.3022761744791 179.498753185 L 212.46390964485673 179.498753185" stroke-miterlimit="10" stroke-width="1.0471284166666666" stroke-dasharray="5.0262164"/><g transform="translate(210.89321701985673,179.498753185) translate(-210.89321701985673,-179.498753185)"><path fill="none" stroke="black" paint-order="fill stroke markers" d=" M 221.658789622206 174.69613973452041 L 212.0703707625871 179.498753185 L 221.658789622206 184.30136663547958" stroke-miterlimit="10" stroke-width="1.0471284166666666"/></g></g><g><g><rect fill="white" stroke="none" x="241.71793671401363" y="232.27402538500002" width="73.04239026630859" height="16.3352033"/></g><text fill="black" stroke="none" font-family="sans-serif" font-size="8pt" font-style="normal" font-weight="normal" text-decoration="normal" x="243.60276786401363" y="243.58301228500002" text-anchor="start" dominant-baseline="alphabetic" xml:space="preserve">GET /script1.js</text></g><g><path fill="none" stroke="black" paint-order="fill stroke markers" d=" M 217.17598751985673 248.609228685 L 328.95664741781246 248.609228685" stroke-miterlimit="10" stroke-width="1.0471284166666666" stroke-dasharray=""/><g transform="translate(339.3022761744791,248.609228685) translate(-339.3022761744791,-248.609228685)"><path fill="black" stroke="none" paint-order="stroke fill markers" d=" M 328.8309920078124 243.37358660166666 L 339.3022761744791 248.609228685 L 328.8309920078124 253.84487076833335 Z"/></g></g><g><g><rect fill="white" stroke="none" x="258.3452102735839" y="267.457540185" width="39.78784314716797" height="16.3352033"/></g><text fill="black" stroke="none" font-family="sans-serif" font-size="8pt" font-style="normal" font-weight="normal" text-decoration="normal" x="260.23004142358394" y="278.766527085" text-anchor="start" dominant-baseline="alphabetic" xml:space="preserve">200 OK</text></g><g><path fill="none" stroke="black" paint-order="fill stroke markers" d=" M 339.3022761744791 283.792743485 L 218.74668014485673 283.792743485" stroke-miterlimit="10" stroke-width="1.0471284166666666" stroke-dasharray="5.0262164"/><g transform="translate(217.17598751985673,283.792743485) translate(-217.17598751985673,-283.792743485)"><path fill="none" stroke="black" paint-order="fill stroke markers" d=" M 227.941560122206 278.99013003452046 L 218.3531412625871 283.792743485 L 227.941560122206 288.5953569354796" stroke-miterlimit="10" stroke-width="1.0471284166666666"/></g></g><g><g><rect fill="white" stroke="none" x="241.71793671401363" y="336.56801568500003" width="73.04239026630859" height="16.3352033"/></g><text fill="black" stroke="none" font-family="sans-serif" font-size="8pt" font-style="normal" font-weight="normal" text-decoration="normal" x="243.60276786401363" y="347.877002585" text-anchor="start" dominant-baseline="alphabetic" xml:space="preserve">GET /script2.js</text></g><g><path fill="none" stroke="black" paint-order="fill stroke markers" d=" M 217.17598751985673 352.903218985 L 328.95664741781246 352.903218985" stroke-miterlimit="10" stroke-width="1.0471284166666666" stroke-dasharray=""/><g transform="translate(339.3022761744791,352.903218985) translate(-339.3022761744791,-352.903218985)"><path fill="black" stroke="none" paint-order="stroke fill markers" d=" M 328.8309920078124 347.6675769016667 L 339.3022761744791 352.903218985 L 328.8309920078124 358.13886106833337 Z"/></g></g><g><g><rect fill="white" stroke="none" x="258.3452102735839" y="371.75153048500005" width="39.78784314716797" height="16.3352033"/></g><text fill="black" stroke="none" font-family="sans-serif" font-size="8pt" font-style="normal" font-weight="normal" text-decoration="normal" x="260.23004142358394" y="383.060517385" text-anchor="start" dominant-baseline="alphabetic" xml:space="preserve">200 OK</text></g><g><path fill="none" stroke="black" paint-order="fill stroke markers" d=" M 339.3022761744791 388.08673378500004 L 218.74668014485673 388.08673378500004" stroke-miterlimit="10" stroke-width="1.0471284166666666" stroke-dasharray="5.0262164"/><g transform="translate(217.17598751985673,388.08673378500004) translate(-217.17598751985673,-388.08673378500004)"><path fill="none" stroke="black" paint-order="fill stroke markers" d=" M 227.941560122206 383.2841203345205 L 218.3531412625871 388.08673378500004 L 227.941560122206 392.8893472354796" stroke-miterlimit="10" stroke-width="1.0471284166666666"/></g></g><g><g><rect fill="white" stroke="none" x="238.38157196791988" y="440.86200598500005" width="79.71511975849609" height="16.3352033"/></g><text fill="black" stroke="none" font-family="sans-serif" font-size="8pt" font-style="normal" font-weight="normal" text-decoration="normal" x="240.26640311791988" y="452.17099288500003" text-anchor="start" dominant-baseline="alphabetic" xml:space="preserve">GET /image.png</text></g><g><path fill="none" stroke="black" paint-order="fill stroke markers" d=" M 217.17598751985673 457.19720928500004 L 328.95664741781246 457.19720928500004" stroke-miterlimit="10" stroke-width="1.0471284166666666" stroke-dasharray=""/><g transform="translate(339.3022761744791,457.19720928500004) translate(-339.3022761744791,-457.19720928500004)"><path fill="black" stroke="none" paint-order="stroke fill markers" d=" M 328.8309920078124 451.9615672016667 L 339.3022761744791 457.19720928500004 L 328.8309920078124 462.4328513683334 Z"/></g></g><g><g><rect fill="white" stroke="none" x="258.3452102735839" y="476.04552078500006" width="39.78784314716797" height="16.3352033"/></g><text fill="black" stroke="none" font-family="sans-serif" font-size="8pt" font-style="normal" font-weight="normal" text-decoration="normal" x="260.23004142358394" y="487.35450768500004" text-anchor="start" dominant-baseline="alphabetic" xml:space="preserve">200 OK</text></g><g><path fill="none" stroke="black" paint-order="fill stroke markers" d=" M 339.3022761744791 492.38072408500005 L 218.74668014485673 492.38072408500005" stroke-miterlimit="10" stroke-width="1.0471284166666666" stroke-dasharray="5.0262164"/><g transform="translate(217.17598751985673,492.38072408500005) translate(-217.17598751985673,-492.38072408500005)"><path fill="none" stroke="black" paint-order="fill stroke markers" d=" M 227.941560122206 487.5781106345205 L 218.3531412625871 492.38072408500005 L 227.941560122206 497.1833375354796" stroke-miterlimit="10" stroke-width="1.0471284166666666"/></g></g><g><g><rect fill="white" stroke="none" x="94.33424460992839" y="530.077347085" width="78.7696623" height="16.3352033"/></g><text fill="black" stroke="none" font-family="sans-serif" font-size="8pt" font-style="normal" font-weight="normal" text-decoration="normal" x="96.21907575992839" y="541.3863339850001" text-anchor="start" dominant-baseline="alphabetic" xml:space="preserve">show login page</text></g><g><path fill="none" stroke="black" paint-order="fill stroke markers" d=" M 198.32767601985674 546.412550385 L 70.681168125 546.412550385" stroke-miterlimit="10" stroke-width="1.0471284166666666" stroke-dasharray="5.0262164"/><g transform="translate(69.11047549999999,546.412550385) translate(-69.11047549999999,-546.412550385)"><path fill="none" stroke="black" paint-order="fill stroke markers" d=" M 79.87604810234924 541.6099369345204 L 70.28762924273036 546.412550385 L 79.87604810234924 551.2151638354796" stroke-miterlimit="10" stroke-width="1.0471284166666666"/></g></g><g><g><rect fill="white" stroke="none" x="83.97969901666667" y="565.260861885" width="99.47875348652343" height="16.3352033"/></g><text fill="black" stroke="none" font-family="sans-serif" font-size="8pt" font-style="normal" font-weight="normal" text-decoration="normal" x="85.86453016666667" y="576.5698487850001" text-anchor="start" dominant-baseline="alphabetic" xml:space="preserve">interact with webapp</text></g><g><path fill="none" stroke="black" paint-order="fill stroke markers" d=" M 69.11047549999999 581.596065185 L 187.98204726319008 581.596065185" stroke-miterlimit="10" stroke-width="1.0471284166666666" stroke-dasharray=""/><g transform="translate(198.32767601985674,581.596065185) translate(-198.32767601985674,-581.596065185)"><path fill="black" stroke="none" paint-order="stroke fill markers" d=" M 187.85639185319008 576.3604231016667 L 198.32767601985674 581.596065185 L 187.85639185319008 586.8317072683334 Z"/></g></g><g><g><rect fill="white" stroke="none" x="228.9038257865234" y="600.4443766850001" width="92.38784162128906" height="16.3352033"/></g><text fill="black" stroke="none" font-family="sans-serif" font-size="8pt" font-style="normal" font-weight="normal" text-decoration="normal" x="230.7886569365234" y="611.7533635850001" text-anchor="start" dominant-baseline="alphabetic" xml:space="preserve">POST /{API-query}</text></g><g><path fill="none" stroke="black" paint-order="fill stroke markers" d=" M 210.89321701985673 616.779579985 L 328.95664741781246 616.779579985" stroke-miterlimit="10" stroke-width="1.0471284166666666" stroke-dasharray=""/><g transform="translate(339.3022761744791,616.779579985) translate(-339.3022761744791,-616.779579985)"><path fill="black" stroke="none" paint-order="stroke fill markers" d=" M 328.8309920078124 611.5439379016667 L 339.3022761744791 616.779579985 L 328.8309920078124 622.0152220683334 Z"/></g></g><g><g><rect fill="white" stroke="none" x="366.73704069114575" y="635.6278914850001" width="92.38784162128906" height="16.3352033"/></g><text fill="black" stroke="none" font-family="sans-serif" font-size="8pt" font-style="normal" font-weight="normal" text-decoration="normal" x="368.6218718411458" y="646.9368783850001" text-anchor="start" dominant-baseline="alphabetic" xml:space="preserve">POST /{API-query}</text></g><g><path fill="none" stroke="black" paint-order="fill stroke markers" d=" M 351.86781717447917 651.9630947850001 L 463.64847707243484 651.9630947850001" stroke-miterlimit="10" stroke-width="1.0471284166666666" stroke-dasharray=""/><g transform="translate(473.9941058291015,651.9630947850001) translate(-473.9941058291015,-651.9630947850001)"><path fill="black" stroke="none" paint-order="stroke fill markers" d=" M 463.5228216624348 646.7274527016667 L 473.9941058291015 651.9630947850001 L 463.5228216624348 657.1987368683334 Z"/></g></g><g><g><rect fill="white" stroke="none" x="509.3346135124348" y="704.7383669850001" width="79.73330060566406" height="16.3352033"/></g><text fill="black" stroke="none" font-family="sans-serif" font-size="8pt" font-style="normal" font-weight="normal" text-decoration="normal" x="511.21944466243485" y="716.0473538850001" text-anchor="start" dominant-baseline="alphabetic" xml:space="preserve">check_session()</text></g><g><path fill="none" stroke="black" paint-order="fill stroke markers" d=" M 486.55964682910155 721.0735702850001 L 601.4972520447657 721.0735702850001" stroke-miterlimit="10" stroke-width="1.0471284166666666" stroke-dasharray=""/><g transform="translate(611.8428808014323,721.0735702850001) translate(-611.8428808014323,-721.0735702850001)"><path fill="black" stroke="none" paint-order="stroke fill markers" d=" M 601.3715966347656 715.8379282016667 L 611.8428808014323 721.0735702850001 L 601.3715966347656 726.3092123683334 Z"/></g></g><g><g><rect fill="white" stroke="none" x="547.3164326652669" y="739.9218817850001" width="3.7696623" height="16.3352033"/></g><text fill="black" stroke="none" font-family="sans-serif" font-size="8pt" font-style="normal" font-weight="normal" text-decoration="normal" x="549.2012638152669" y="751.2308686850001" text-anchor="start" dominant-baseline="alphabetic" xml:space="preserve"></text></g><g><path fill="none" stroke="black" paint-order="fill stroke markers" d=" M 611.8428808014323 756.2570850850001 L 488.13033945410155 756.2570850850001" stroke-miterlimit="10" stroke-width="1.0471284166666666" stroke-dasharray="5.0262164"/><g transform="translate(486.55964682910155,756.2570850850001) translate(-486.55964682910155,-756.2570850850001)"><path fill="none" stroke="black" paint-order="fill stroke markers" d=" M 497.3252194314508 751.4544716345205 L 487.7368005718319 756.2570850850001 L 497.3252194314508 761.0596985354797" stroke-miterlimit="10" stroke-width="1.0471284166666666"/></g></g><g><g><rect fill="white" stroke="none" x="558.3555425443709" y="827.8806687850001" width="68.35147992695312" height="16.3352033"/></g><text fill="black" stroke="none" font-family="sans-serif" font-size="8pt" font-style="normal" font-weight="normal" text-decoration="normal" x="560.2403736943709" y="839.1896556850002" text-anchor="start" dominant-baseline="alphabetic" xml:space="preserve">retrieve_info()</text></g><g><path fill="none" stroke="black" paint-order="fill stroke markers" d=" M 486.55964682910155 844.2158720850001 L 688.1572894299268 844.2158720850001" stroke-miterlimit="10" stroke-width="1.0471284166666666" stroke-dasharray=""/><g transform="translate(698.5029181865934,844.2158720850001) translate(-698.5029181865934,-844.2158720850001)"><path fill="black" stroke="none" paint-order="stroke fill markers" d=" M 688.0316340199267 838.9802300016668 L 698.5029181865934 844.2158720850001 L 688.0316340199267 849.4515141683335 Z"/></g></g><g><g><rect fill="white" stroke="none" x="590.6464513578475" y="863.0641835850001" width="3.7696623" height="16.3352033"/></g><text fill="black" stroke="none" font-family="sans-serif" font-size="8pt" font-style="normal" font-weight="normal" text-decoration="normal" x="592.5312825078474" y="874.3731704850002" text-anchor="start" dominant-baseline="alphabetic" xml:space="preserve"></text></g><g><path fill="none" stroke="black" paint-order="fill stroke markers" d=" M 698.5029181865934 879.3993868850001 L 488.13033945410155 879.3993868850001" stroke-miterlimit="10" stroke-width="1.0471284166666666" stroke-dasharray="5.0262164"/><g transform="translate(486.55964682910155,879.3993868850001) translate(-486.55964682910155,-879.3993868850001)"><path fill="none" stroke="black" paint-order="fill stroke markers" d=" M 497.3252194314508 874.5967734345205 L 487.7368005718319 879.3993868850001 L 497.3252194314508 884.2020003354797" stroke-miterlimit="10" stroke-width="1.0471284166666666"/></g></g><g><g><rect fill="white" stroke="none" x="507.7116408457682" y="917.0960098850002" width="99.73330060566406" height="16.3352033"/></g><text fill="black" stroke="none" font-family="sans-serif" font-size="8pt" font-style="normal" font-weight="normal" text-decoration="normal" x="509.59647199576824" y="928.4049967850002" text-anchor="start" dominant-baseline="alphabetic" xml:space="preserve">compute_response()</text></g><g><path fill="none" stroke="black" paint-order="fill stroke markers" d=" M 486.55964682910155 933.4312131850002 L 543.1045813291015 933.4312131850002 L 543.1045813291015 949.7664164850001 L 503.1880460857682 949.7664164850001" stroke-miterlimit="10" stroke-width="1.0471284166666666" stroke-dasharray=""/><g transform="translate(492.8424173291015,949.7664164850001) translate(-492.8424173291015,-949.7664164850001)"><path fill="black" stroke="none" paint-order="stroke fill markers" d=" M 503.3137014957682 944.5307744016668 L 492.8424173291015 949.7664164850001 L 503.3137014957682 955.0020585683335 Z"/></g></g><g><g><rect fill="white" stroke="none" x="559.691905383116" y="1002.5416886850002" width="65.67875424946288" height="16.3352033"/></g><text fill="black" stroke="none" font-family="sans-serif" font-size="8pt" font-style="normal" font-weight="normal" text-decoration="normal" x="561.576736533116" y="1013.8506755850002" text-anchor="start" dominant-baseline="alphabetic" xml:space="preserve">update_info()</text></g><g><path fill="none" stroke="black" paint-order="fill stroke markers" d=" M 486.55964682910155 1018.8768919850002 L 688.1572894299268 1018.8768919850002" stroke-miterlimit="10" stroke-width="1.0471284166666666" stroke-dasharray=""/><g transform="translate(698.5029181865934,1018.8768919850002) translate(-698.5029181865934,-1018.8768919850002)"><path fill="black" stroke="none" paint-order="stroke fill markers" d=" M 688.0316340199267 1013.6412499016668 L 698.5029181865934 1018.8768919850002 L 688.0316340199267 1024.1125340683334 Z"/></g></g><g><g><rect fill="white" stroke="none" x="590.6464513578475" y="1037.725203485" width="3.7696623" height="16.3352033"/></g><text fill="black" stroke="none" font-family="sans-serif" font-size="8pt" font-style="normal" font-weight="normal" text-decoration="normal" x="592.5312825078474" y="1049.034190385" text-anchor="start" dominant-baseline="alphabetic" xml:space="preserve"></text></g><g><path fill="none" stroke="black" paint-order="fill stroke markers" d=" M 698.5029181865934 1054.0604067850002 L 488.13033945410155 1054.0604067850002" stroke-miterlimit="10" stroke-width="1.0471284166666666" stroke-dasharray="5.0262164"/><g transform="translate(486.55964682910155,1054.0604067850002) translate(-486.55964682910155,-1054.0604067850002)"><path fill="none" stroke="black" paint-order="fill stroke markers" d=" M 497.3252194314508 1049.2577933345208 L 487.7368005718319 1054.0604067850002 L 497.3252194314508 1058.8630202354796" stroke-miterlimit="10" stroke-width="1.0471284166666666"/></g></g><g><g><rect fill="white" stroke="none" x="370.6188575551594" y="1125.683990485" width="84.62420789326171" height="16.3352033"/></g><text fill="black" stroke="none" font-family="sans-serif" font-size="8pt" font-style="normal" font-weight="normal" text-decoration="normal" x="372.50368870515945" y="1136.9929773850001" text-anchor="start" dominant-baseline="alphabetic" xml:space="preserve">400 Bad Request</text></g><g><path fill="none" stroke="black" paint-order="fill stroke markers" d=" M 473.9941058291015 1142.0191937850002 L 353.43850979947916 1142.0191937850002" stroke-miterlimit="10" stroke-width="1.0471284166666666" stroke-dasharray="5.0262164"/><g transform="translate(351.86781717447917,1142.0191937850002) translate(-351.86781717447917,-1142.0191937850002)"><path fill="none" stroke="black" paint-order="fill stroke markers" d=" M 362.63338977682844 1137.2165803345208 L 353.0449709172095 1142.0191937850002 L 362.63338977682844 1146.8218072354796" stroke-miterlimit="10" stroke-width="1.0471284166666666"/></g></g><g><g><rect fill="white" stroke="none" x="232.78564265053708" y="1160.867505285" width="84.62420789326171" height="16.3352033"/></g><text fill="black" stroke="none" font-family="sans-serif" font-size="8pt" font-style="normal" font-weight="normal" text-decoration="normal" x="234.67047380053708" y="1172.1764921850001" text-anchor="start" dominant-baseline="alphabetic" xml:space="preserve">400 Bad Request</text></g><g><path fill="none" stroke="black" paint-order="fill stroke markers" d=" M 339.3022761744791 1177.2027085850002 L 212.46390964485673 1177.2027085850002" stroke-miterlimit="10" stroke-width="1.0471284166666666" stroke-dasharray="5.0262164"/><g transform="translate(210.89321701985673,1177.2027085850002) translate(-210.89321701985673,-1177.2027085850002)"><path fill="none" stroke="black" paint-order="fill stroke markers" d=" M 221.658789622206 1172.4000951345208 L 212.0703707625871 1177.2027085850002 L 221.658789622206 1182.0053220354796" stroke-miterlimit="10" stroke-width="1.0471284166666666"/></g></g><g><g><rect fill="white" stroke="none" x="101.77969825372722" y="1196.0510200850001" width="63.878755012402344" height="16.3352033"/></g><text fill="black" stroke="none" font-family="sans-serif" font-size="8pt" font-style="normal" font-weight="normal" text-decoration="normal" x="103.66452940372722" y="1207.3600069850002" text-anchor="start" dominant-baseline="alphabetic" xml:space="preserve">display error </text></g><g><path fill="none" stroke="black" paint-order="fill stroke markers" d=" M 198.32767601985674 1212.3862233850002 L 70.681168125 1212.3862233850002" stroke-miterlimit="10" stroke-width="1.0471284166666666" stroke-dasharray="5.0262164"/><g transform="translate(69.11047549999999,1212.3862233850002) translate(-69.11047549999999,-1212.3862233850002)"><path fill="none" stroke="black" paint-order="fill stroke markers" d=" M 79.87604810234924 1207.5836099345208 L 70.28762924273036 1212.3862233850002 L 79.87604810234924 1217.1888368354796" stroke-miterlimit="10" stroke-width="1.0471284166666666"/></g></g><g><g><rect fill="white" stroke="none" x="393.0370399282063" y="1265.1614955850002" width="39.78784314716797" height="16.3352033"/></g><text fill="black" stroke="none" font-family="sans-serif" font-size="8pt" font-style="normal" font-weight="normal" text-decoration="normal" x="394.9218710782063" y="1276.4704824850003" text-anchor="start" dominant-baseline="alphabetic" xml:space="preserve">200 OK</text></g><g><path fill="none" stroke="black" paint-order="fill stroke markers" d=" M 473.9941058291015 1281.4966988850003 L 353.43850979947916 1281.4966988850003" stroke-miterlimit="10" stroke-width="1.0471284166666666" stroke-dasharray="5.0262164"/><g transform="translate(351.86781717447917,1281.4966988850003) translate(-351.86781717447917,-1281.4966988850003)"><path fill="none" stroke="black" paint-order="fill stroke markers" d=" M 362.63338977682844 1276.694085434521 L 353.0449709172095 1281.4966988850003 L 362.63338977682844 1286.2993123354797" stroke-miterlimit="10" stroke-width="1.0471284166666666"/></g></g><g><g><rect fill="white" stroke="none" x="255.20382502358396" y="1300.3450103850003" width="39.78784314716797" height="16.3352033"/></g><text fill="black" stroke="none" font-family="sans-serif" font-size="8pt" font-style="normal" font-weight="normal" text-decoration="normal" x="257.08865617358396" y="1311.6539972850003" text-anchor="start" dominant-baseline="alphabetic" xml:space="preserve">200 OK</text></g><g><path fill="none" stroke="black" paint-order="fill stroke markers" d=" M 339.3022761744791 1316.6802136850004 L 212.46390964485673 1316.6802136850004" stroke-miterlimit="10" stroke-width="1.0471284166666666" stroke-dasharray="5.0262164"/><g transform="translate(210.89321701985673,1316.6802136850004) translate(-210.89321701985673,-1316.6802136850004)"><path fill="none" stroke="black" paint-order="fill stroke markers" d=" M 221.658789622206 1311.877600234521 L 212.0703707625871 1316.6802136850004 L 221.658789622206 1321.4828271354797" stroke-miterlimit="10" stroke-width="1.0471284166666666"/></g></g><g><g><rect fill="white" stroke="none" x="91.20697105035808" y="1335.5285251850003" width="85.02420941914062" height="16.3352033"/></g><text fill="black" stroke="none" font-family="sans-serif" font-size="8pt" font-style="normal" font-weight="normal" text-decoration="normal" x="93.09180220035807" y="1346.8375120850003" text-anchor="start" dominant-baseline="alphabetic" xml:space="preserve">show query result</text></g><g><path fill="none" stroke="black" paint-order="fill stroke markers" d=" M 198.32767601985674 1351.8637284850004 L 70.681168125 1351.8637284850004" stroke-miterlimit="10" stroke-width="1.0471284166666666" stroke-dasharray="5.0262164"/><g transform="translate(69.11047549999999,1351.8637284850004) translate(-69.11047549999999,-1351.8637284850004)"><path fill="none" stroke="black" paint-order="fill stroke markers" d=" M 79.87604810234924 1347.061115034521 L 70.28762924273036 1351.8637284850004 L 79.87604810234924 1356.6663419354797" stroke-miterlimit="10" stroke-width="1.0471284166666666"/></g></g><g><g/><path fill="none" stroke="black" paint-order="fill stroke markers" d=" M 148.06551201985673 198.347064685 L 389.56444017447916 198.347064685 L 389.56444017447916 511.229035585 L 148.06551201985673 511.229035585 L 148.06551201985673 198.347064685 Z" stroke-miterlimit="10" stroke-width="1.7950772857142856" stroke-dasharray=""/><path fill="white" stroke="black" paint-order="fill stroke markers" d=" M 148.06551201985673 198.347064685 L 148.06551201985673 213.425713885 L 186.65113904091385 213.425713885 L 194.19046364091383 205.88638928499998 L 194.19046364091383 198.347064685 L 148.06551201985673 198.347064685" stroke-miterlimit="10" stroke-width="1.7950772857142856" stroke-dasharray=""/><text fill="black" stroke="none" font-family="sans-serif" font-size="6.4pt" font-style="normal" font-weight="bold" text-decoration="normal" x="160.63105301985672" y="208.39949748499998" text-anchor="start" dominant-baseline="alphabetic" xml:space="preserve">par</text><g><path fill="none" stroke="black" paint-order="fill stroke markers" d=" M 148.06551201985673 302.64105498500004 L 389.56444017447916 302.64105498500004" stroke-miterlimit="10" stroke-width="1.7950772857142856" stroke-dasharray="3.14138525"/></g><g><path fill="none" stroke="black" paint-order="fill stroke markers" d=" M 148.06551201985673 406.93504528500006 L 389.56444017447916 406.93504528500006" stroke-miterlimit="10" stroke-width="1.7950772857142856" stroke-dasharray="3.14138525"/></g></g><g/><g/><g><g/><path fill="none" stroke="black" paint-order="fill stroke markers" d=" M 430.0147123291015 670.8114062850001 L 662.1050448014323 670.8114062850001 L 662.1050448014323 775.1053965850001 L 430.0147123291015 775.1053965850001 L 430.0147123291015 670.8114062850001 Z" stroke-miterlimit="10" stroke-width="1.7950772857142856" stroke-dasharray=""/><path fill="white" stroke="black" paint-order="fill stroke markers" d=" M 430.0147123291015 670.8114062850001 L 430.0147123291015 685.8900554850001 L 468.56397574847404 685.8900554850001 L 476.103300348474 678.3507308850001 L 476.103300348474 670.8114062850001 L 430.0147123291015 670.8114062850001" stroke-miterlimit="10" stroke-width="1.7950772857142856" stroke-dasharray=""/><text fill="black" stroke="none" font-family="sans-serif" font-size="6.4pt" font-style="normal" font-weight="bold" text-decoration="normal" x="442.5802533291015" y="680.8638390850001" text-anchor="start" dominant-baseline="alphabetic" xml:space="preserve">opt</text><text fill="black" stroke="none" font-family="sans-serif" font-size="6.4pt" font-style="normal" font-weight="bold" text-decoration="normal" x="488.668841348474" y="680.8638390850001" text-anchor="start" dominant-baseline="alphabetic" xml:space="preserve">[endpoint needs authentication]</text></g><g><g/><path fill="none" stroke="black" paint-order="fill stroke markers" d=" M 430.0147123291015 793.9537080850001 L 748.7650821865934 793.9537080850001 L 748.7650821865934 898.2476983850001 L 430.0147123291015 898.2476983850001 L 430.0147123291015 793.9537080850001 Z" stroke-miterlimit="10" stroke-width="1.7950772857142856" stroke-dasharray=""/><path fill="white" stroke="black" paint-order="fill stroke markers" d=" M 430.0147123291015 793.9537080850001 L 430.0147123291015 809.0323572850001 L 468.56397574847404 809.0323572850001 L 476.103300348474 801.4930326850001 L 476.103300348474 793.9537080850001 L 430.0147123291015 793.9537080850001" stroke-miterlimit="10" stroke-width="1.7950772857142856" stroke-dasharray=""/><text fill="black" stroke="none" font-family="sans-serif" font-size="6.4pt" font-style="normal" font-weight="bold" text-decoration="normal" x="442.5802533291015" y="804.0061408850001" text-anchor="start" dominant-baseline="alphabetic" xml:space="preserve">opt</text><text fill="black" stroke="none" font-family="sans-serif" font-size="6.4pt" font-style="normal" font-weight="bold" text-decoration="normal" x="488.668841348474" y="804.0061408850001" text-anchor="start" dominant-baseline="alphabetic" xml:space="preserve">[additional data are needed]</text></g><g><g/><path fill="none" stroke="black" paint-order="fill stroke markers" d=" M 430.0147123291015 968.6147279850002 L 748.7650821865934 968.6147279850002 L 748.7650821865934 1072.908718285 L 430.0147123291015 1072.908718285 L 430.0147123291015 968.6147279850002 Z" stroke-miterlimit="10" stroke-width="1.7950772857142856" stroke-dasharray=""/><path fill="white" stroke="black" paint-order="fill stroke markers" d=" M 430.0147123291015 968.6147279850002 L 430.0147123291015 983.6933771850001 L 468.56397574847404 983.6933771850001 L 476.103300348474 976.1540525850002 L 476.103300348474 968.6147279850002 L 430.0147123291015 968.6147279850002" stroke-miterlimit="10" stroke-width="1.7950772857142856" stroke-dasharray=""/><text fill="black" stroke="none" font-family="sans-serif" font-size="6.4pt" font-style="normal" font-weight="bold" text-decoration="normal" x="442.5802533291015" y="978.6671607850002" text-anchor="start" dominant-baseline="alphabetic" xml:space="preserve">opt</text><text fill="black" stroke="none" font-family="sans-serif" font-size="6.4pt" font-style="normal" font-weight="bold" text-decoration="normal" x="488.668841348474" y="978.6671607850002" text-anchor="start" dominant-baseline="alphabetic" xml:space="preserve">[data must be updated]</text></g><g><g/><path fill="none" stroke="black" paint-order="fill stroke markers" d=" M 12.565540999999994 1091.7570297850002 L 524.2562698291015 1091.7570297850002 L 524.2562698291015 1370.7120399850003 L 12.565540999999994 1370.7120399850003 L 12.565540999999994 1091.7570297850002 Z" stroke-miterlimit="10" stroke-width="1.7950772857142856" stroke-dasharray=""/><path fill="white" stroke="black" paint-order="fill stroke markers" d=" M 12.565540999999994 1091.7570297850002 L 12.565540999999994 1106.8356789850002 L 47.71480480084228 1106.8356789850002 L 55.25412940084228 1099.2963543850003 L 55.25412940084228 1091.7570297850002 L 12.565540999999994 1091.7570297850002" stroke-miterlimit="10" stroke-width="1.7950772857142856" stroke-dasharray=""/><text fill="black" stroke="none" font-family="sans-serif" font-size="6.4pt" font-style="normal" font-weight="bold" text-decoration="normal" x="25.131081999999992" y="1101.8094625850001" text-anchor="start" dominant-baseline="alphabetic" xml:space="preserve">alt</text><text fill="black" stroke="none" font-family="sans-serif" font-size="6.4pt" font-style="normal" font-weight="bold" text-decoration="normal" x="67.81967040084228" y="1101.8094625850001" text-anchor="start" dominant-baseline="alphabetic" xml:space="preserve">[invalid query]</text><g><path fill="none" stroke="black" paint-order="fill stroke markers" d=" M 12.565540999999994 1231.2345348850004 L 524.2562698291015 1231.2345348850004" stroke-miterlimit="10" stroke-width="1.7950772857142856" stroke-dasharray="3.14138525"/></g><g/><text fill="black" stroke="none" font-family="sans-serif" font-size="6.4pt" font-style="normal" font-weight="bold" text-decoration="normal" x="67.81967040084228" y="1241.2869676850003" text-anchor="start" dominant-baseline="alphabetic" xml:space="preserve">[valid query]</text></g><g/></g><g/></g></svg>