<svg version="1.1" xmlns="http://www.w3.org/2000/svg" xmlns:xlink="http://www.w3.org/1999/xlink" width="859" height="1232"><defs/><g><g/><g/><g/><g/><g/><g/><g/><g/><g/><g/><g/><g/><g/><g/><g/><g/><g/><g/><g/><g/><g/><g/><g/><g/><g/><g/><g/><g><rect fill="white" stroke="none" x="0" y="0" width="859" height="1232"/></g><g/><g><path fill="none" stroke="black" paint-order="fill stroke markers" d=" M 99.51908472000001 96.050995404 L 99.51908472000001 1201.315981764" stroke-miterlimit="10" stroke-width="1.2565541" stroke-dasharray="11.598960923076923,5.0262164"/><path fill="none" stroke="black" paint-order="fill stroke markers" d=" M 389.7347417313281 96.050995404 L 389.7347417313281 1201.315981764" stroke-miterlimit="10" stroke-width="1.2565541" stroke-dasharray="11.598960923076923,5.0262164"/><path fill="none" stroke="black" paint-order="fill stroke markers" d=" M 551.360545562871 96.050995404 L 551.360545562871 1201.315981764" stroke-miterlimit="10" stroke-width="1.2565541" stroke-dasharray="11.598960923076923,5.0262164"/><path fill="none" stroke="black" paint-order="fill stroke markers" d=" M 660.7076956167773 96.050995404 L 660.7076956167773 1201.315981764" stroke-miterlimit="10" stroke-width="1.2565541" stroke-dasharray="11.598960923076923,5.0262164"/><path fill="none" stroke="black" paint-order="fill stroke markers" d=" M 769.5251963352939 96.050995404 L 769.5251963352939 1201.315981764" stroke-miterlimit="10" stroke-width="1.2565541" stroke-dasharray="11.598960923076923,5.0262164"/></g><g><path fill="none" stroke="none"/><g><path fill="white" stroke="black" paint-order="fill stroke markers" d=" M 43.431478304308605 55.489429056000006 L 155.60669113569142 55.489429056000006 L 155.60669113569142 96.050995404 L 43.431478304308605 96.050995404 L 43.431478304308605 55.489429056000006 Z" stroke-miterlimit="10" stroke-width="2.4125838720000004" stroke-dasharray=""/></g><g><text fill="black" stroke="none" font-family="sans-serif" font-size="10pt" font-style="normal" font-weight="normal" text-decoration="normal" x="59.7918126863086" y="80.97234620399999" text-anchor="start" dominant-baseline="alphabetic" xml:space="preserve">Clup Webapp</text></g><path fill="none" stroke="none"/><g><path fill="white" stroke="black" paint-order="fill stroke markers" d=" M 302.70167785714057 55.489429056000006 L 476.7678056055156 55.489429056000006 L 476.7678056055156 96.050995404 L 302.70167785714057 96.050995404 L 302.70167785714057 55.489429056000006 Z" stroke-miterlimit="10" stroke-width="2.4125838720000004" stroke-dasharray=""/></g><g><text fill="black" stroke="none" font-family="sans-serif" font-size="10pt" font-style="normal" font-weight="normal" text-decoration="normal" x="319.0620122391406" y="80.97234620399999" text-anchor="start" dominant-baseline="alphabetic" xml:space="preserve">CLup Application Server</text></g><path fill="none" stroke="none"/><g><path fill="white" stroke="black" paint-order="fill stroke markers" d=" M 495.6911215202265 55.489429056000006 L 607.0299696055156 55.489429056000006 L 607.0299696055156 96.050995404 L 495.6911215202265 96.050995404 L 495.6911215202265 55.489429056000006 Z" stroke-miterlimit="10" stroke-width="2.4125838720000004" stroke-dasharray=""/></g><g><text fill="black" stroke="none" font-family="sans-serif" font-size="10pt" font-style="normal" font-weight="normal" text-decoration="normal" x="512.0514559022265" y="80.97234620399999" text-anchor="start" dominant-baseline="alphabetic" xml:space="preserve">Session store</text></g><path fill="none" stroke="none"/><g><path fill="white" stroke="black" paint-order="fill stroke markers" d=" M 625.1837240735224 55.489429056000006 L 696.2316671600322 55.489429056000006 L 696.2316671600322 96.050995404 L 625.1837240735224 96.050995404 L 625.1837240735224 55.489429056000006 Z" stroke-miterlimit="10" stroke-width="2.4125838720000004" stroke-dasharray=""/></g><g><text fill="black" stroke="none" font-family="sans-serif" font-size="10pt" font-style="normal" font-weight="normal" text-decoration="normal" x="641.5440584555224" y="80.97234620399999" text-anchor="start" dominant-baseline="alphabetic" xml:space="preserve">DBMS</text></g><path fill="none" stroke="none"/><g><path fill="white" stroke="black" paint-order="fill stroke markers" d=" M 711.3103163600322 55.489429056000006 L 827.7400763105557 55.489429056000006 L 827.7400763105557 96.050995404 L 711.3103163600322 96.050995404 L 711.3103163600322 55.489429056000006 Z" stroke-miterlimit="10" stroke-width="2.4125838720000004" stroke-dasharray=""/></g><g><text fill="black" stroke="none" font-family="sans-serif" font-size="10pt" font-style="normal" font-weight="normal" text-decoration="normal" x="727.6706507420322" y="80.97234620399999" text-anchor="start" dominant-baseline="alphabetic" xml:space="preserve">Search engine</text></g></g><g><path fill="white" stroke="black" paint-order="fill stroke markers" d=" M 91.97976012000001 145.810537764 L 107.05840932000001 145.810537764 L 107.05840932000001 1133.4620603639999 L 91.97976012000001 1133.4620603639999 L 91.97976012000001 145.810537764" stroke-miterlimit="10" stroke-width="1.2565541" stroke-dasharray=""/><path fill="white" stroke="black" paint-order="fill stroke markers" d=" M 382.1954171313281 145.810537764 L 397.2740663313281 145.810537764 L 397.2740663313281 272.471191044 L 382.1954171313281 272.471191044 L 382.1954171313281 145.810537764" stroke-miterlimit="10" stroke-width="1.2565541" stroke-dasharray=""/><path fill="white" stroke="black" paint-order="fill stroke markers" d=" M 761.9858717352939 188.030755524 L 777.0645209352939 188.030755524 L 777.0645209352939 230.250973284 L 761.9858717352939 230.250973284 L 761.9858717352939 188.030755524" stroke-miterlimit="10" stroke-width="1.2565541" stroke-dasharray=""/><path fill="white" stroke="black" paint-order="fill stroke markers" d=" M 382.1954171313281 314.69140880400005 L 397.2740663313281 314.69140880400005 L 397.2740663313281 441.3520620840001 L 382.1954171313281 441.3520620840001 L 382.1954171313281 314.69140880400005" stroke-miterlimit="10" stroke-width="1.2565541" stroke-dasharray=""/><path fill="white" stroke="black" paint-order="fill stroke markers" d=" M 653.1683710167773 356.9116265640001 L 668.2470202167773 356.9116265640001 L 668.2470202167773 399.1318443240001 L 653.1683710167773 399.1318443240001 L 653.1683710167773 356.9116265640001" stroke-miterlimit="10" stroke-width="1.2565541" stroke-dasharray=""/><path fill="white" stroke="black" paint-order="fill stroke markers" d=" M 382.1954171313281 483.57227984400015 L 397.2740663313281 483.57227984400015 L 397.2740663313281 610.232933124 L 382.1954171313281 610.232933124 L 382.1954171313281 483.57227984400015" stroke-miterlimit="10" stroke-width="1.2565541" stroke-dasharray=""/><path fill="white" stroke="black" paint-order="fill stroke markers" d=" M 653.1683710167773 525.7924976040001 L 668.2470202167773 525.7924976040001 L 668.2470202167773 568.0127153640001 L 653.1683710167773 568.0127153640001 L 653.1683710167773 525.7924976040001" stroke-miterlimit="10" stroke-width="1.2565541" stroke-dasharray=""/><path fill="white" stroke="black" paint-order="fill stroke markers" d=" M 382.1954171313281 652.453150884 L 397.2740663313281 652.453150884 L 397.2740663313281 1133.4620603639999 L 382.1954171313281 1133.4620603639999 L 382.1954171313281 652.453150884" stroke-miterlimit="10" stroke-width="1.2565541" stroke-dasharray=""/><path fill="white" stroke="black" paint-order="fill stroke markers" d=" M 543.821220962871 694.673368644 L 558.899870162871 694.673368644 L 558.899870162871 736.893586404 L 543.821220962871 736.893586404 L 543.821220962871 694.673368644" stroke-miterlimit="10" stroke-width="1.2565541" stroke-dasharray=""/><path fill="white" stroke="black" paint-order="fill stroke markers" d=" M 653.1683710167773 779.1138041639999 L 668.2470202167773 779.1138041639999 L 668.2470202167773 821.3340219239999 L 653.1683710167773 821.3340219239999 L 653.1683710167773 779.1138041639999" stroke-miterlimit="10" stroke-width="1.2565541" stroke-dasharray=""/><path fill="white" stroke="black" paint-order="fill stroke markers" d=" M 389.7347417313281 883.1564836439999 L 404.81339093132806 883.1564836439999 L 404.81339093132806 893.7115380839999 L 389.7347417313281 893.7115380839999 L 389.7347417313281 883.1564836439999" stroke-miterlimit="10" stroke-width="1.2565541" stroke-dasharray=""/><path fill="white" stroke="black" paint-order="fill stroke markers" d=" M 653.1683710167773 1049.021624844 L 668.2470202167773 1049.021624844 L 668.2470202167773 1091.2418426039999 L 653.1683710167773 1091.2418426039999 L 653.1683710167773 1049.021624844" stroke-miterlimit="10" stroke-width="1.2565541" stroke-dasharray=""/><g><g/><g/><path fill="none" stroke="black" paint-order="fill stroke markers" d=" M 7.5393246000000005 7.5393246000000005 L 851.8659150305557 7.5393246000000005 L 851.8659150305557 1225.4418204840001 L 7.5393246000000005 1225.4418204840001 L 7.5393246000000005 7.5393246000000005 Z" stroke-miterlimit="10" stroke-width="1.2565541" stroke-dasharray=""/><path fill="white" stroke="black" paint-order="fill stroke markers" d=" M 7.5393246000000005 7.5393246000000005 L 7.5393246000000005 28.64943348 L 170.5329858387451 28.64943348 L 181.0880402787451 18.09437904 L 181.0880402787451 7.5393246000000005 L 7.5393246000000005 7.5393246000000005" stroke-miterlimit="10" stroke-width="1.2565541" stroke-dasharray=""/><text fill="black" stroke="none" font-family="sans-serif" font-size="10pt" font-style="normal" font-weight="bold" text-decoration="normal" x="22.6179738" y="21.86404134" text-anchor="start" dominant-baseline="alphabetic" xml:space="preserve">sd</text><text fill="black" stroke="none" font-family="sans-serif" font-size="10pt" font-style="normal" font-weight="normal" text-decoration="normal" x="42.017973418530275" y="21.86404134" text-anchor="start" dominant-baseline="alphabetic" xml:space="preserve">logged-in Customer</text></g><g><g><rect fill="white" stroke="none" x="183.4469334726172" y="126.208293804" width="122.35995950609374" height="19.602243960000003"/></g><text fill="black" stroke="none" font-family="sans-serif" font-size="10pt" font-style="normal" font-weight="normal" text-decoration="normal" x="185.70873085261718" y="139.779078084" text-anchor="start" dominant-baseline="alphabetic" xml:space="preserve">GET /search (name)</text></g><g><path fill="none" stroke="black" paint-order="fill stroke markers" d=" M 107.05840932000001 145.810537764 L 369.7806626233281 145.810537764" stroke-miterlimit="10" stroke-width="1.2565541" stroke-dasharray=""/><g transform="translate(382.1954171313281,145.810537764) translate(-382.1954171313281,-145.810537764)"><path fill="black" stroke="none" paint-order="stroke fill markers" d=" M 369.6298761313281 139.527767264 L 382.1954171313281 145.810537764 L 369.6298761313281 152.093308264 Z"/></g></g><g><g><rect fill="white" stroke="none" x="519.3136252971099" y="168.428511564" width="120.63268747240234" height="19.602243960000003"/></g><text fill="black" stroke="none" font-family="sans-serif" font-size="10pt" font-style="normal" font-weight="normal" text-decoration="normal" x="521.5754226771098" y="181.999295844" text-anchor="start" dominant-baseline="alphabetic" xml:space="preserve">search_shop(name)</text></g><g><path fill="none" stroke="black" paint-order="fill stroke markers" d=" M 397.2740663313281 188.030755524 L 749.5711172272939 188.030755524" stroke-miterlimit="10" stroke-width="1.2565541" stroke-dasharray=""/><g transform="translate(761.9858717352939,188.030755524) translate(-761.9858717352939,-188.030755524)"><path fill="black" stroke="none" paint-order="stroke fill markers" d=" M 749.4203307352939 181.747985024 L 761.9858717352939 188.030755524 L 749.4203307352939 194.313526024 Z"/></g></g><g><g><rect fill="white" stroke="none" x="530.4136275859282" y="210.648729324" width="98.43268289476562" height="19.602243960000003"/></g><text fill="black" stroke="none" font-family="sans-serif" font-size="10pt" font-style="normal" font-weight="normal" text-decoration="normal" x="532.6754249659282" y="224.21951360399999" text-anchor="start" dominant-baseline="alphabetic" xml:space="preserve">search_results()</text></g><g><path fill="none" stroke="black" paint-order="fill stroke markers" d=" M 761.9858717352939 230.250973284 L 399.1588974813281 230.250973284" stroke-miterlimit="10" stroke-width="1.2565541" stroke-dasharray="6.03145968"/><g transform="translate(397.2740663313281,230.250973284) translate(-397.2740663313281,-230.250973284)"><path fill="none" stroke="black" paint-order="fill stroke markers" d=" M 410.1927534541472 224.4878371434245 L 398.6866508226045 230.250973284 L 410.1927534541472 236.01410942457548" stroke-miterlimit="10" stroke-width="1.2565541"/></g></g><g><g><rect fill="white" stroke="none" x="164.1742055063086" y="252.868947084" width="160.90541543871095" height="19.602243960000003"/></g><text fill="black" stroke="none" font-family="sans-serif" font-size="10pt" font-style="normal" font-weight="normal" text-decoration="normal" x="166.4360028863086" y="266.439731364" text-anchor="start" dominant-baseline="alphabetic" xml:space="preserve">200 OK (shop_id, name,...)</text></g><g><path fill="none" stroke="black" paint-order="fill stroke markers" d=" M 382.1954171313281 272.471191044 L 108.94324047 272.471191044" stroke-miterlimit="10" stroke-width="1.2565541" stroke-dasharray="6.03145968"/><g transform="translate(107.05840932000001,272.471191044) translate(-107.05840932000001,-272.471191044)"><path fill="none" stroke="black" paint-order="fill stroke markers" d=" M 119.97709644281912 266.7080549034245 L 108.47099381127646 272.471191044 L 119.97709644281912 278.23432718457553" stroke-miterlimit="10" stroke-width="1.2565541"/></g></g><g><g><rect fill="white" stroke="none" x="181.8378445749121" y="295.08916484400004" width="125.5781373015039" height="19.602243960000003"/></g><text fill="black" stroke="none" font-family="sans-serif" font-size="10pt" font-style="normal" font-weight="normal" text-decoration="normal" x="184.0996419549121" y="308.65994912400004" text-anchor="start" dominant-baseline="alphabetic" xml:space="preserve">GET /shop/{shop_id}</text></g><g><path fill="none" stroke="black" paint-order="fill stroke markers" d=" M 107.05840932000001 314.69140880400005 L 369.7806626233281 314.69140880400005" stroke-miterlimit="10" stroke-width="1.2565541" stroke-dasharray=""/><g transform="translate(382.1954171313281,314.69140880400005) translate(-382.1954171313281,-314.69140880400005)"><path fill="black" stroke="none" paint-order="stroke fill markers" d=" M 369.6298761313281 308.408638304 L 382.1954171313281 314.69140880400005 L 369.6298761313281 320.9741793040001 Z"/></g></g><g><g><rect fill="white" stroke="none" x="477.4048749378515" y="337.30938260400006" width="95.63268747240234" height="19.602243960000003"/></g><text fill="black" stroke="none" font-family="sans-serif" font-size="10pt" font-style="normal" font-weight="normal" text-decoration="normal" x="479.6666723178515" y="350.8801668840001" text-anchor="start" dominant-baseline="alphabetic" xml:space="preserve">get_shop_info()</text></g><g><path fill="none" stroke="black" paint-order="fill stroke markers" d=" M 397.2740663313281 356.9116265640001 L 640.7536165087773 356.9116265640001" stroke-miterlimit="10" stroke-width="1.2565541" stroke-dasharray=""/><g transform="translate(653.1683710167773,356.9116265640001) translate(-653.1683710167773,-356.9116265640001)"><path fill="black" stroke="none" paint-order="stroke fill markers" d=" M 640.6028300167773 350.62885606400005 L 653.1683710167773 356.9116265640001 L 640.6028300167773 363.1943970640001 Z"/></g></g><g><g><rect fill="white" stroke="none" x="522.9594212940527" y="379.5296003640001" width="4.52359476" height="19.602243960000003"/></g><text fill="black" stroke="none" font-family="sans-serif" font-size="10pt" font-style="normal" font-weight="normal" text-decoration="normal" x="525.2212186740527" y="393.1003846440001" text-anchor="start" dominant-baseline="alphabetic" xml:space="preserve"></text></g><g><path fill="none" stroke="black" paint-order="fill stroke markers" d=" M 653.1683710167773 399.1318443240001 L 399.1588974813281 399.1318443240001" stroke-miterlimit="10" stroke-width="1.2565541" stroke-dasharray="6.03145968"/><g transform="translate(397.2740663313281,399.1318443240001) translate(-397.2740663313281,-399.1318443240001)"><path fill="none" stroke="black" paint-order="fill stroke markers" d=" M 410.1927534541472 393.3687081834246 L 398.6866508226045 399.1318443240001 L 410.1927534541472 404.8949804645756" stroke-miterlimit="10" stroke-width="1.2565541"/></g></g><g><g><rect fill="white" stroke="none" x="140.92875262544922" y="421.7498181240001" width="207.3963212004297" height="19.602243960000003"/></g><text fill="black" stroke="none" font-family="sans-serif" font-size="10pt" font-style="normal" font-weight="normal" text-decoration="normal" x="143.1905500054492" y="435.32060240400017" text-anchor="start" dominant-baseline="alphabetic" xml:space="preserve">200 OK (departments, schedule,...)</text></g><g><path fill="none" stroke="black" paint-order="fill stroke markers" d=" M 382.1954171313281 441.3520620840001 L 108.94324047 441.3520620840001" stroke-miterlimit="10" stroke-width="1.2565541" stroke-dasharray="6.03145968"/><g transform="translate(107.05840932000001,441.3520620840001) translate(-107.05840932000001,-441.3520620840001)"><path fill="none" stroke="black" paint-order="fill stroke markers" d=" M 119.97709644281912 435.5889259434246 L 108.47099381127646 441.3520620840001 L 119.97709644281912 447.11519822457564" stroke-miterlimit="10" stroke-width="1.2565541"/></g></g><g><g><rect fill="white" stroke="none" x="124.90147753999999" y="463.97003588400014" width="239.45087137132813" height="19.602243960000003"/></g><text fill="black" stroke="none" font-family="sans-serif" font-size="10pt" font-style="normal" font-weight="normal" text-decoration="normal" x="127.16327491999999" y="477.54082016400014" text-anchor="start" dominant-baseline="alphabetic" xml:space="preserve">GET /shop/{shop_id}/booking/availability</text></g><g><path fill="none" stroke="black" paint-order="fill stroke markers" d=" M 107.05840932000001 483.57227984400015 L 369.7806626233281 483.57227984400015" stroke-miterlimit="10" stroke-width="1.2565541" stroke-dasharray=""/><g transform="translate(382.1954171313281,483.57227984400015) translate(-382.1954171313281,-483.57227984400015)"><path fill="black" stroke="none" paint-order="stroke fill markers" d=" M 369.6298761313281 477.2895093440001 L 382.1954171313281 483.57227984400015 L 369.6298761313281 489.8550503440002 Z"/></g></g><g><g><rect fill="white" stroke="none" x="448.7957860401464" y="506.1902536440001" width="152.8508652678125" height="19.602243960000003"/></g><text fill="black" stroke="none" font-family="sans-serif" font-size="10pt" font-style="normal" font-weight="normal" text-decoration="normal" x="451.05758342014644" y="519.7610379240001" text-anchor="start" dominant-baseline="alphabetic" xml:space="preserve">get_booking_availability()</text></g><g><path fill="none" stroke="black" paint-order="fill stroke markers" d=" M 397.2740663313281 525.7924976040001 L 640.7536165087773 525.7924976040001" stroke-miterlimit="10" stroke-width="1.2565541" stroke-dasharray=""/><g transform="translate(653.1683710167773,525.7924976040001) translate(-653.1683710167773,-525.7924976040001)"><path fill="black" stroke="none" paint-order="stroke fill markers" d=" M 640.6028300167773 519.5097271040001 L 653.1683710167773 525.7924976040001 L 640.6028300167773 532.0752681040001 Z"/></g></g><g><g><rect fill="white" stroke="none" x="522.9594212940527" y="548.4104714040001" width="4.52359476" height="19.602243960000003"/></g><text fill="black" stroke="none" font-family="sans-serif" font-size="10pt" font-style="normal" font-weight="normal" text-decoration="normal" x="525.2212186740527" y="561.9812556840001" text-anchor="start" dominant-baseline="alphabetic" xml:space="preserve"></text></g><g><path fill="none" stroke="black" paint-order="fill stroke markers" d=" M 653.1683710167773 568.0127153640001 L 399.1588974813281 568.0127153640001" stroke-miterlimit="10" stroke-width="1.2565541" stroke-dasharray="6.03145968"/><g transform="translate(397.2740663313281,568.0127153640001) translate(-397.2740663313281,-568.0127153640001)"><path fill="none" stroke="black" paint-order="fill stroke markers" d=" M 410.1927534541472 562.2495792234247 L 398.6866508226045 568.0127153640001 L 410.1927534541472 573.7758515045755" stroke-miterlimit="10" stroke-width="1.2565541"/></g></g><g><g><rect fill="white" stroke="none" x="159.71056720064453" y="590.630689164" width="169.83269205003907" height="19.602243960000003"/></g><text fill="black" stroke="none" font-family="sans-serif" font-size="10pt" font-style="normal" font-weight="normal" text-decoration="normal" x="161.97236458064452" y="604.201473444" text-anchor="start" dominant-baseline="alphabetic" xml:space="preserve">200 OK (bookingAvailability)</text></g><g><path fill="none" stroke="black" paint-order="fill stroke markers" d=" M 382.1954171313281 610.232933124 L 108.94324047 610.232933124" stroke-miterlimit="10" stroke-width="1.2565541" stroke-dasharray="6.03145968"/><g transform="translate(107.05840932000001,610.232933124) translate(-107.05840932000001,-610.232933124)"><path fill="none" stroke="black" paint-order="fill stroke markers" d=" M 119.97709644281912 604.4697969834247 L 108.47099381127646 610.232933124 L 119.97709644281912 615.9960692645755" stroke-miterlimit="10" stroke-width="1.2565541"/></g></g><g><g><rect fill="white" stroke="none" x="138.46511431978516" y="632.850906924" width="212.32359781175782" height="19.602243960000003"/></g><text fill="black" stroke="none" font-family="sans-serif" font-size="10pt" font-style="normal" font-weight="normal" text-decoration="normal" x="140.72691169978515" y="646.421691204" text-anchor="start" dominant-baseline="alphabetic" xml:space="preserve">POST /shop/{shop_id}/booking/new</text></g><g><path fill="none" stroke="black" paint-order="fill stroke markers" d=" M 107.05840932000001 652.453150884 L 369.7806626233281 652.453150884" stroke-miterlimit="10" stroke-width="1.2565541" stroke-dasharray=""/><g transform="translate(382.1954171313281,652.453150884) translate(-382.1954171313281,-652.453150884)"><path fill="black" stroke="none" paint-order="stroke fill markers" d=" M 369.6298761313281 646.170380384 L 382.1954171313281 652.453150884 L 369.6298761313281 658.735921384 Z"/></g></g><g><g><rect fill="white" stroke="none" x="420.82221177613275" y="675.071124684" width="99.45086374193359" height="19.602243960000003"/></g><text fill="black" stroke="none" font-family="sans-serif" font-size="10pt" font-style="normal" font-weight="normal" text-decoration="normal" x="423.08400915613277" y="688.641908964" text-anchor="start" dominant-baseline="alphabetic" xml:space="preserve">check_session()</text></g><g><path fill="none" stroke="black" paint-order="fill stroke markers" d=" M 397.2740663313281 694.673368644 L 531.4064664548711 694.673368644" stroke-miterlimit="10" stroke-width="1.2565541" stroke-dasharray=""/><g transform="translate(543.821220962871,694.673368644) translate(-543.821220962871,-694.673368644)"><path fill="black" stroke="none" paint-order="stroke fill markers" d=" M 531.255679962871 688.390598144 L 543.821220962871 694.673368644 L 531.255679962871 700.956139144 Z"/></g></g><g><g><rect fill="white" stroke="none" x="468.28584626709954" y="717.291342444" width="4.52359476" height="19.602243960000003"/></g><text fill="black" stroke="none" font-family="sans-serif" font-size="10pt" font-style="normal" font-weight="normal" text-decoration="normal" x="470.54764364709956" y="730.862126724" text-anchor="start" dominant-baseline="alphabetic" xml:space="preserve"></text></g><g><path fill="none" stroke="black" paint-order="fill stroke markers" d=" M 543.821220962871 736.893586404 L 399.1588974813281 736.893586404" stroke-miterlimit="10" stroke-width="1.2565541" stroke-dasharray="6.03145968"/><g transform="translate(397.2740663313281,736.893586404) translate(-397.2740663313281,-736.893586404)"><path fill="none" stroke="black" paint-order="fill stroke markers" d=" M 410.1927534541472 731.1304502634246 L 398.6866508226045 736.893586404 L 410.1927534541472 742.6567225445754" stroke-miterlimit="10" stroke-width="1.2565541"/></g></g><g><g><rect fill="white" stroke="none" x="448.7957860401464" y="759.5115602039999" width="152.8508652678125" height="19.602243960000003"/></g><text fill="black" stroke="none" font-family="sans-serif" font-size="10pt" font-style="normal" font-weight="normal" text-decoration="normal" x="451.05758342014644" y="773.0823444839999" text-anchor="start" dominant-baseline="alphabetic" xml:space="preserve">get_booking_availability()</text></g><g><path fill="none" stroke="black" paint-order="fill stroke markers" d=" M 397.2740663313281 779.1138041639999 L 640.7536165087773 779.1138041639999" stroke-miterlimit="10" stroke-width="1.2565541" stroke-dasharray=""/><g transform="translate(653.1683710167773,779.1138041639999) translate(-653.1683710167773,-779.1138041639999)"><path fill="black" stroke="none" paint-order="stroke fill markers" d=" M 640.6028300167773 772.831033664 L 653.1683710167773 779.1138041639999 L 640.6028300167773 785.3965746639999 Z"/></g></g><g><g><rect fill="white" stroke="none" x="522.9594212940527" y="801.7317779639999" width="4.52359476" height="19.602243960000003"/></g><text fill="black" stroke="none" font-family="sans-serif" font-size="10pt" font-style="normal" font-weight="normal" text-decoration="normal" x="525.2212186740527" y="815.3025622439999" text-anchor="start" dominant-baseline="alphabetic" xml:space="preserve"></text></g><g><path fill="none" stroke="black" paint-order="fill stroke markers" d=" M 653.1683710167773 821.3340219239999 L 399.1588974813281 821.3340219239999" stroke-miterlimit="10" stroke-width="1.2565541" stroke-dasharray="6.03145968"/><g transform="translate(397.2740663313281,821.3340219239999) translate(-397.2740663313281,-821.3340219239999)"><path fill="none" stroke="black" paint-order="fill stroke markers" d=" M 410.1927534541472 815.5708857834245 L 398.6866508226045 821.3340219239999 L 410.1927534541472 827.0971580645753" stroke-miterlimit="10" stroke-width="1.2565541"/></g></g><g><g><rect fill="white" stroke="none" x="422.656459151328" y="843.9519957239999" width="115.88723459154296" height="19.602243960000003"/></g><text fill="black" stroke="none" font-family="sans-serif" font-size="10pt" font-style="normal" font-weight="normal" text-decoration="normal" x="424.91825653132804" y="857.5227800039999" text-anchor="start" dominant-baseline="alphabetic" xml:space="preserve">check_availability()</text></g><g><path fill="none" stroke="black" paint-order="fill stroke markers" d=" M 397.2740663313281 863.5542396839999 L 465.12798773132806 863.5542396839999 L 465.12798773132806 883.1564836439999 L 417.22814543932805 883.1564836439999" stroke-miterlimit="10" stroke-width="1.2565541" stroke-dasharray=""/><g transform="translate(404.81339093132806,883.1564836439999) translate(-404.81339093132806,-883.1564836439999)"><path fill="black" stroke="none" paint-order="stroke fill markers" d=" M 417.37893193132805 876.8737131439999 L 404.81339093132806 883.1564836439999 L 417.37893193132805 889.4392541439998 Z"/></g></g><g><g><rect fill="white" stroke="none" x="191.8469349984961" y="946.4868102839998" width="105.55995645433593" height="19.602243960000003"/></g><text fill="black" stroke="none" font-family="sans-serif" font-size="10pt" font-style="normal" font-weight="normal" text-decoration="normal" x="194.1087323784961" y="960.0575945639998" text-anchor="start" dominant-baseline="alphabetic" xml:space="preserve">400 Bad Request</text></g><g><path fill="none" stroke="black" paint-order="fill stroke markers" d=" M 382.1954171313281 966.0890542439998 L 108.94324047 966.0890542439998" stroke-miterlimit="10" stroke-width="1.2565541" stroke-dasharray="6.03145968"/><g transform="translate(107.05840932000001,966.0890542439998) translate(-107.05840932000001,-966.0890542439998)"><path fill="none" stroke="black" paint-order="fill stroke markers" d=" M 119.97709644281912 960.3259181034244 L 108.47099381127646 966.0890542439998 L 119.97709644281912 971.8521903845752" stroke-miterlimit="10" stroke-width="1.2565541"/></g></g><g><g><rect fill="white" stroke="none" x="475.85032858165033" y="1029.419380884" width="98.74178018480468" height="19.602243960000003"/></g><text fill="black" stroke="none" font-family="sans-serif" font-size="10pt" font-style="normal" font-weight="normal" text-decoration="normal" x="478.11212596165035" y="1042.990165164" text-anchor="start" dominant-baseline="alphabetic" xml:space="preserve">insert_booking()</text></g><g><path fill="none" stroke="black" paint-order="fill stroke markers" d=" M 397.2740663313281 1049.021624844 L 640.7536165087773 1049.021624844" stroke-miterlimit="10" stroke-width="1.2565541" stroke-dasharray=""/><g transform="translate(653.1683710167773,1049.021624844) translate(-653.1683710167773,-1049.021624844)"><path fill="black" stroke="none" paint-order="stroke fill markers" d=" M 640.6028300167773 1042.738854344 L 653.1683710167773 1049.021624844 L 640.6028300167773 1055.3043953439999 Z"/></g></g><g><g><rect fill="white" stroke="none" x="522.9594212940527" y="1071.639598644" width="4.52359476" height="19.602243960000003"/></g><text fill="black" stroke="none" font-family="sans-serif" font-size="10pt" font-style="normal" font-weight="normal" text-decoration="normal" x="525.2212186740527" y="1085.210382924" text-anchor="start" dominant-baseline="alphabetic" xml:space="preserve"></text></g><g><path fill="none" stroke="black" paint-order="fill stroke markers" d=" M 653.1683710167773 1091.2418426039999 L 399.1588974813281 1091.2418426039999" stroke-miterlimit="10" stroke-width="1.2565541" stroke-dasharray="6.03145968"/><g transform="translate(397.2740663313281,1091.2418426039999) translate(-397.2740663313281,-1091.2418426039999)"><path fill="none" stroke="black" paint-order="fill stroke markers" d=" M 410.1927534541472 1085.4787064634245 L 398.6866508226045 1091.2418426039999 L 410.1927534541472 1097.0049787445753" stroke-miterlimit="10" stroke-width="1.2565541"/></g></g><g><g><rect fill="white" stroke="none" x="137.51057025240235" y="1113.859816404" width="214.23268594652345" height="19.602243960000003"/></g><text fill="black" stroke="none" font-family="sans-serif" font-size="10pt" font-style="normal" font-weight="normal" text-decoration="normal" x="139.77236763240234" y="1127.430600684" text-anchor="start" dominant-baseline="alphabetic" xml:space="preserve">200 OK (uid, shop_id, start_time, ...)</text></g><g><path fill="none" stroke="black" paint-order="fill stroke markers" d=" M 382.1954171313281 1133.4620603639999 L 108.94324047 1133.4620603639999" stroke-miterlimit="10" stroke-width="1.2565541" stroke-dasharray="6.03145968"/><g transform="translate(107.05840932000001,1133.4620603639999) translate(-107.05840932000001,-1133.4620603639999)"><path fill="none" stroke="black" paint-order="fill stroke markers" d=" M 119.97709644281912 1127.6989242234245 L 108.47099381127646 1133.4620603639999 L 119.97709644281912 1139.2251965045753" stroke-miterlimit="10" stroke-width="1.2565541"/></g></g><g><g/><path fill="none" stroke="black" paint-order="fill stroke markers" d=" M 39.204487920000005 905.7744574439998 L 713.4829678167773 905.7744574439998 L 713.4829678167773 1156.080034164 L 39.204487920000005 1156.080034164 L 39.204487920000005 905.7744574439998 Z" stroke-miterlimit="10" stroke-width="2.154092742857143" stroke-dasharray=""/><path fill="white" stroke="black" paint-order="fill stroke markers" d=" M 39.204487920000005 905.7744574439998 L 39.204487920000005 923.8688364839999 L 81.87087769725831 923.8688364839999 L 90.91806721725831 914.8216469639998 L 90.91806721725831 905.7744574439998 L 39.204487920000005 905.7744574439998" stroke-miterlimit="10" stroke-width="2.154092742857143" stroke-dasharray=""/><text fill="black" stroke="none" font-family="sans-serif" font-size="8pt" font-style="normal" font-weight="bold" text-decoration="normal" x="54.283137120000006" y="917.8373768039999" text-anchor="start" dominant-baseline="alphabetic" xml:space="preserve">alt</text><text fill="black" stroke="none" font-family="sans-serif" font-size="8pt" font-style="normal" font-weight="bold" text-decoration="normal" x="105.99671641725831" y="917.8373768039999" text-anchor="start" dominant-baseline="alphabetic" xml:space="preserve">[unavailable time slot]</text><g><path fill="none" stroke="black" paint-order="fill stroke markers" d=" M 39.204487920000005 988.7070280439998 L 713.4829678167773 988.7070280439998" stroke-miterlimit="10" stroke-width="2.154092742857143" stroke-dasharray="3.7696623000000002"/></g><g/><text fill="black" stroke="none" font-family="sans-serif" font-size="8pt" font-style="normal" font-weight="bold" text-decoration="normal" x="105.99671641725831" y="1000.7699474039998" text-anchor="start" dominant-baseline="alphabetic" xml:space="preserve">[available time slot]</text></g><g/></g></g></svg>