<svg version="1.1" xmlns="http://www.w3.org/2000/svg" xmlns:xlink="http://www.w3.org/1999/xlink" width="1039" height="1471"><defs/><g><g/><g/><g/><g/><g/><g/><g/><g/><g/><g/><g/><g/><g/><g/><g/><g/><g/><g/><g/><g/><g/><g/><g/><g/><g/><g/><g/><g/><g/><g/><g><rect fill="white" stroke="none" x="0" y="0" width="1039" height="1471"/></g><g/><g><path fill="none" stroke="black" paint-order="fill stroke markers" d=" M 99.51908472000001 126.434473542 L 99.51908472000001 1439.7848188619998" stroke-miterlimit="10" stroke-width="1.2565541" stroke-dasharray="11.598960923076923,5.0262164"/><path fill="none" stroke="black" paint-order="fill stroke markers" d=" M 323.97110037390627 126.434473542 L 323.97110037390627 1439.7848188619998" stroke-miterlimit="10" stroke-width="1.2565541" stroke-dasharray="11.598960923076923,5.0262164"/><path fill="none" stroke="black" paint-order="fill stroke markers" d=" M 668.180610793828 126.434473542 L 668.180610793828 1439.7848188619998" stroke-miterlimit="10" stroke-width="1.2565541" stroke-dasharray="11.598960923076923,5.0262164"/><path fill="none" stroke="black" paint-order="fill stroke markers" d=" M 833.8609571668749 126.434473542 L 833.8609571668749 1439.7848188619998" stroke-miterlimit="10" stroke-width="1.2565541" stroke-dasharray="11.598960923076923,5.0262164"/><path fill="none" stroke="black" paint-order="fill stroke markers" d=" M 940.1330019527743 126.434473542 L 940.1330019527743 1439.7848188619998" stroke-miterlimit="10" stroke-width="1.2565541" stroke-dasharray="11.598960923076923,5.0262164"/></g><g><g><path fill="white" stroke="black" paint-order="fill stroke markers" d=" M 108.11391476400001 62.65178742599999 A 8.594830044 8.594830044 0 1 1 108.11391046658534 62.643192597388456 M 99.51908472000001 71.24661746999999 L 99.51908472000001 89.64256949399999 M 88.66245729600001 77.881223118 L 110.375712144 77.881223118 M 99.51908472000001 89.64256949399999 L 88.66245729600001 106.832229582 M 99.51908472000001 89.64256949399999 L 110.375712144 106.832229582" stroke-miterlimit="10" stroke-width="2.5633703640000003" stroke-dasharray=""/></g><g><g/><text fill="black" stroke="none" font-family="sans-serif" font-size="10pt" font-style="normal" font-weight="normal" text-decoration="normal" x="71.33726671157716" y="121.91087878200001" text-anchor="start" dominant-baseline="alphabetic" xml:space="preserve">Customer</text></g><path fill="none" stroke="none"/><g><path fill="white" stroke="black" paint-order="fill stroke markers" d=" M 248.55621963570508 85.872907194 L 399.3859811121074 85.872907194 L 399.3859811121074 126.434473542 L 248.55621963570508 126.434473542 L 248.55621963570508 85.872907194 Z" stroke-miterlimit="10" stroke-width="2.4125838720000004" stroke-dasharray=""/></g><g><text fill="black" stroke="none" font-family="sans-serif" font-size="10pt" font-style="normal" font-weight="normal" text-decoration="normal" x="264.9165540177051" y="111.355824342" text-anchor="start" dominant-baseline="alphabetic" xml:space="preserve">Clup Webapp (Staff)</text></g><path fill="none" stroke="none"/><g><path fill="white" stroke="black" paint-order="fill stroke markers" d=" M 581.1475469196405 85.872907194 L 755.2136746680155 85.872907194 L 755.2136746680155 126.434473542 L 581.1475469196405 126.434473542 L 581.1475469196405 85.872907194 Z" stroke-miterlimit="10" stroke-width="2.4125838720000004" stroke-dasharray=""/></g><g><text fill="black" stroke="none" font-family="sans-serif" font-size="10pt" font-style="normal" font-weight="normal" text-decoration="normal" x="597.5078813016405" y="111.355824342" text-anchor="start" dominant-baseline="alphabetic" xml:space="preserve">CLup Application Server</text></g><path fill="none" stroke="none"/><g><path fill="white" stroke="black" paint-order="fill stroke markers" d=" M 778.1915331242303 85.872907194 L 889.5303812095194 85.872907194 L 889.5303812095194 126.434473542 L 778.1915331242303 126.434473542 L 778.1915331242303 85.872907194 Z" stroke-miterlimit="10" stroke-width="2.4125838720000004" stroke-dasharray=""/></g><g><text fill="black" stroke="none" font-family="sans-serif" font-size="10pt" font-style="normal" font-weight="normal" text-decoration="normal" x="794.5518675062303" y="111.355824342" text-anchor="start" dominant-baseline="alphabetic" xml:space="preserve">Session store</text></g><path fill="none" stroke="none"/><g><path fill="white" stroke="black" paint-order="fill stroke markers" d=" M 904.6090304095194 85.872907194 L 975.6569734960292 85.872907194 L 975.6569734960292 126.434473542 L 904.6090304095194 126.434473542 L 904.6090304095194 85.872907194 Z" stroke-miterlimit="10" stroke-width="2.4125838720000004" stroke-dasharray=""/></g><g><text fill="black" stroke="none" font-family="sans-serif" font-size="10pt" font-style="normal" font-weight="normal" text-decoration="normal" x="920.9693647915194" y="111.355824342" text-anchor="start" dominant-baseline="alphabetic" xml:space="preserve">DBMS</text></g></g><g><path fill="white" stroke="black" paint-order="fill stroke markers" d=" M 91.97976012000001 133.97379814200002 L 107.05840932000001 133.97379814200002 L 107.05840932000001 1371.9308974619996 L 91.97976012000001 1371.9308974619996 L 91.97976012000001 133.97379814200002" stroke-miterlimit="10" stroke-width="1.2565541" stroke-dasharray=""/><path fill="white" stroke="black" paint-order="fill stroke markers" d=" M 316.4317757739063 176.19401590200002 L 331.51042497390625 176.19401590200002 L 331.51042497390625 826.0837964219999 L 316.4317757739063 826.0837964219999 L 316.4317757739063 176.19401590200002" stroke-miterlimit="10" stroke-width="1.2565541" stroke-dasharray=""/><path fill="white" stroke="black" paint-order="fill stroke markers" d=" M 660.641286193828 218.41423366200002 L 675.719935393828 218.41423366200002 L 675.719935393828 783.8635786619999 L 660.641286193828 783.8635786619999 L 660.641286193828 218.41423366200002" stroke-miterlimit="10" stroke-width="1.2565541" stroke-dasharray=""/><path fill="white" stroke="black" paint-order="fill stroke markers" d=" M 826.3216325668749 260.63445142200004 L 841.4002817668749 260.63445142200004 L 841.4002817668749 302.85466918200007 L 826.3216325668749 302.85466918200007 L 826.3216325668749 260.63445142200004" stroke-miterlimit="10" stroke-width="1.2565541" stroke-dasharray=""/><path fill="white" stroke="black" paint-order="fill stroke markers" d=" M 932.5936773527743 345.0748869420001 L 947.6723265527743 345.0748869420001 L 947.6723265527743 387.2951047020001 L 932.5936773527743 387.2951047020001 L 932.5936773527743 345.0748869420001" stroke-miterlimit="10" stroke-width="1.2565541" stroke-dasharray=""/><path fill="white" stroke="black" paint-order="fill stroke markers" d=" M 668.180610793828 449.1175664220001 L 683.259259993828 449.1175664220001 L 683.259259993828 459.6726208620001 L 668.180610793828 459.6726208620001 L 668.180610793828 449.1175664220001" stroke-miterlimit="10" stroke-width="1.2565541" stroke-dasharray=""/><path fill="white" stroke="black" paint-order="fill stroke markers" d=" M 932.5936773527743 614.982707622 L 947.6723265527743 614.982707622 L 947.6723265527743 657.202925382 L 932.5936773527743 657.202925382 L 932.5936773527743 614.982707622" stroke-miterlimit="10" stroke-width="1.2565541" stroke-dasharray=""/><path fill="white" stroke="black" paint-order="fill stroke markers" d=" M 932.5936773527743 699.423143142 L 947.6723265527743 699.423143142 L 947.6723265527743 741.6433609019999 L 932.5936773527743 741.6433609019999 L 932.5936773527743 699.423143142" stroke-miterlimit="10" stroke-width="1.2565541" stroke-dasharray=""/><path fill="white" stroke="black" paint-order="fill stroke markers" d=" M 316.4317757739063 930.1264759019998 L 331.51042497390625 930.1264759019998 L 331.51042497390625 1371.9308974619996 L 316.4317757739063 1371.9308974619996 L 316.4317757739063 930.1264759019998" stroke-miterlimit="10" stroke-width="1.2565541" stroke-dasharray=""/><path fill="white" stroke="black" paint-order="fill stroke markers" d=" M 323.97110037390627 991.9489376219998 L 339.04974957390624 991.9489376219998 L 339.04974957390624 1002.5039920619998 L 323.97110037390627 1002.5039920619998 L 323.97110037390627 991.9489376219998" stroke-miterlimit="10" stroke-width="1.2565541" stroke-dasharray=""/><path fill="white" stroke="black" paint-order="fill stroke markers" d=" M 660.641286193828 1034.1691553819999 L 675.719935393828 1034.1691553819999 L 675.719935393828 1329.7106797019997 L 660.641286193828 1329.7106797019997 L 660.641286193828 1034.1691553819999" stroke-miterlimit="10" stroke-width="1.2565541" stroke-dasharray=""/><path fill="white" stroke="black" paint-order="fill stroke markers" d=" M 826.3216325668749 1076.3893731419998 L 841.4002817668749 1076.3893731419998 L 841.4002817668749 1118.6095909019998 L 826.3216325668749 1118.6095909019998 L 826.3216325668749 1076.3893731419998" stroke-miterlimit="10" stroke-width="1.2565541" stroke-dasharray=""/><path fill="white" stroke="black" paint-order="fill stroke markers" d=" M 932.5936773527743 1160.8298086619998 L 947.6723265527743 1160.8298086619998 L 947.6723265527743 1203.0500264219997 L 932.5936773527743 1203.0500264219997 L 932.5936773527743 1160.8298086619998" stroke-miterlimit="10" stroke-width="1.2565541" stroke-dasharray=""/><path fill="white" stroke="black" paint-order="fill stroke markers" d=" M 932.5936773527743 1245.2702441819997 L 947.6723265527743 1245.2702441819997 L 947.6723265527743 1287.4904619419997 L 932.5936773527743 1287.4904619419997 L 932.5936773527743 1245.2702441819997" stroke-miterlimit="10" stroke-width="1.2565541" stroke-dasharray=""/><g><g/><g/><path fill="none" stroke="black" paint-order="fill stroke markers" d=" M 7.5393246000000005 7.5393246000000005 L 1032.1127620727743 7.5393246000000005 L 1032.1127620727743 1463.9106575819999 L 7.5393246000000005 1463.9106575819999 L 7.5393246000000005 7.5393246000000005 Z" stroke-miterlimit="10" stroke-width="1.2565541" stroke-dasharray=""/><path fill="white" stroke="black" paint-order="fill stroke markers" d=" M 7.5393246000000005 7.5393246000000005 L 7.5393246000000005 28.64943348 L 140.62389770397948 28.64943348 L 151.17895214397947 18.09437904 L 151.17895214397947 7.5393246000000005 L 7.5393246000000005 7.5393246000000005" stroke-miterlimit="10" stroke-width="1.2565541" stroke-dasharray=""/><text fill="black" stroke="none" font-family="sans-serif" font-size="10pt" font-style="normal" font-weight="bold" text-decoration="normal" x="22.6179738" y="21.86404134" text-anchor="start" dominant-baseline="alphabetic" xml:space="preserve">sd</text><text fill="black" stroke="none" font-family="sans-serif" font-size="10pt" font-style="normal" font-weight="normal" text-decoration="normal" x="42.017973418530275" y="21.86404134" text-anchor="start" dominant-baseline="alphabetic" xml:space="preserve">logged-in Staff</text></g><g><g><rect fill="white" stroke="none" x="142.89238330171878" y="156.591771942" width="137.70541849046876" height="19.602243960000003"/></g><text fill="black" stroke="none" font-family="sans-serif" font-size="10pt" font-style="normal" font-weight="normal" text-decoration="normal" x="145.15418068171877" y="170.162556222" text-anchor="start" dominant-baseline="alphabetic" xml:space="preserve">ask for substitute ticket</text></g><g><path fill="none" stroke="black" paint-order="fill stroke markers" d=" M 107.05840932000001 176.19401590200002 L 304.0170212659063 176.19401590200002" stroke-miterlimit="10" stroke-width="1.2565541" stroke-dasharray=""/><g transform="translate(316.4317757739063,176.19401590200002) translate(-316.4317757739063,-176.19401590200002)"><path fill="black" stroke="none" paint-order="stroke fill markers" d=" M 303.8662347739063 169.91124540200002 L 316.4317757739063 176.19401590200002 L 303.8662347739063 182.47678640200002 Z"/></g></g><g><g><rect fill="white" stroke="none" x="353.12315549390615" y="198.811989702" width="285.90540017992186" height="19.602243960000003"/></g><text fill="black" stroke="none" font-family="sans-serif" font-size="10pt" font-style="normal" font-weight="normal" text-decoration="normal" x="355.3849528739062" y="212.382773982" text-anchor="start" dominant-baseline="alphabetic" xml:space="preserve">POST /staff/shop/{shop_id}/ticket/new-substitute</text></g><g><path fill="none" stroke="black" paint-order="fill stroke markers" d=" M 331.51042497390625 218.41423366200002 L 648.226531685828 218.41423366200002" stroke-miterlimit="10" stroke-width="1.2565541" stroke-dasharray=""/><g transform="translate(660.641286193828,218.41423366200002) translate(-660.641286193828,-218.41423366200002)"><path fill="black" stroke="none" paint-order="stroke fill markers" d=" M 648.075745193828 212.13146316200002 L 660.641286193828 218.41423366200002 L 648.075745193828 224.697004162 Z"/></g></g><g><g><rect fill="white" stroke="none" x="701.2953521093847" y="241.03220746200003" width="99.45086374193359" height="19.602243960000003"/></g><text fill="black" stroke="none" font-family="sans-serif" font-size="10pt" font-style="normal" font-weight="normal" text-decoration="normal" x="703.5571494893846" y="254.60299174200003" text-anchor="start" dominant-baseline="alphabetic" xml:space="preserve">check_session()</text></g><g><path fill="none" stroke="black" paint-order="fill stroke markers" d=" M 675.719935393828 260.63445142200004 L 813.9068780588749 260.63445142200004" stroke-miterlimit="10" stroke-width="1.2565541" stroke-dasharray=""/><g transform="translate(826.3216325668749,260.63445142200004) translate(-826.3216325668749,-260.63445142200004)"><path fill="black" stroke="none" paint-order="stroke fill markers" d=" M 813.7560915668748 254.35168092200004 L 826.3216325668749 260.63445142200004 L 813.7560915668748 266.91722192200007 Z"/></g></g><g><g><rect fill="white" stroke="none" x="748.7589866003515" y="283.25242522200006" width="4.52359476" height="19.602243960000003"/></g><text fill="black" stroke="none" font-family="sans-serif" font-size="10pt" font-style="normal" font-weight="normal" text-decoration="normal" x="751.0207839803514" y="296.82320950200005" text-anchor="start" dominant-baseline="alphabetic" xml:space="preserve"></text></g><g><path fill="none" stroke="black" paint-order="fill stroke markers" d=" M 826.3216325668749 302.85466918200007 L 677.604766543828 302.85466918200007" stroke-miterlimit="10" stroke-width="1.2565541" stroke-dasharray="6.03145968"/><g transform="translate(675.719935393828,302.85466918200007) translate(-675.719935393828,-302.85466918200007)"><path fill="none" stroke="black" paint-order="fill stroke markers" d=" M 688.6386225166472 297.09153304142455 L 677.1325198851044 302.85466918200007 L 688.6386225166472 308.6178053225756" stroke-miterlimit="10" stroke-width="1.2565541"/></g></g><g><g><rect fill="white" stroke="none" x="738.2131890775297" y="325.4726429820001" width="131.88723459154298" height="19.602243960000003"/></g><text fill="black" stroke="none" font-family="sans-serif" font-size="10pt" font-style="normal" font-weight="normal" text-decoration="normal" x="740.4749864575297" y="339.04342726200014" text-anchor="start" dominant-baseline="alphabetic" xml:space="preserve">get_waiting_list_info()</text></g><g><path fill="none" stroke="black" paint-order="fill stroke markers" d=" M 675.719935393828 345.0748869420001 L 920.1789228447743 345.0748869420001" stroke-miterlimit="10" stroke-width="1.2565541" stroke-dasharray=""/><g transform="translate(932.5936773527743,345.0748869420001) translate(-932.5936773527743,-345.0748869420001)"><path fill="black" stroke="none" paint-order="stroke fill markers" d=" M 920.0281363527743 338.79211644200007 L 932.5936773527743 345.0748869420001 L 920.0281363527743 351.3576574420001 Z"/></g></g><g><g><rect fill="white" stroke="none" x="801.8950089933012" y="367.6928607420001" width="4.52359476" height="19.602243960000003"/></g><text fill="black" stroke="none" font-family="sans-serif" font-size="10pt" font-style="normal" font-weight="normal" text-decoration="normal" x="804.1568063733012" y="381.2636450220001" text-anchor="start" dominant-baseline="alphabetic" xml:space="preserve"></text></g><g><path fill="none" stroke="black" paint-order="fill stroke markers" d=" M 932.5936773527743 387.2951047020001 L 677.604766543828 387.2951047020001" stroke-miterlimit="10" stroke-width="1.2565541" stroke-dasharray="6.03145968"/><g transform="translate(675.719935393828,387.2951047020001) translate(-675.719935393828,-387.2951047020001)"><path fill="none" stroke="black" paint-order="fill stroke markers" d=" M 688.6386225166472 381.5319685614246 L 677.1325198851044 387.2951047020001 L 688.6386225166472 393.05824084257563" stroke-miterlimit="10" stroke-width="1.2565541"/></g></g><g><g><rect fill="white" stroke="none" x="701.1023282138281" y="409.9130785020001" width="119.94177713304687" height="19.602243960000003"/></g><text fill="black" stroke="none" font-family="sans-serif" font-size="10pt" font-style="normal" font-weight="normal" text-decoration="normal" x="703.364125593828" y="423.4838627820001" text-anchor="start" dominant-baseline="alphabetic" xml:space="preserve">check_waiting_list()</text></g><g><path fill="none" stroke="black" paint-order="fill stroke markers" d=" M 675.719935393828 429.5153224620001 L 743.573856793828 429.5153224620001 L 743.573856793828 449.1175664220001 L 695.674014501828 449.1175664220001" stroke-miterlimit="10" stroke-width="1.2565541" stroke-dasharray=""/><g transform="translate(683.259259993828,449.1175664220001) translate(-683.259259993828,-449.1175664220001)"><path fill="black" stroke="none" paint-order="stroke fill markers" d=" M 695.824800993828 442.83479592200007 L 683.259259993828 449.1175664220001 L 695.824800993828 455.4003369220001 Z"/></g></g><g><g><rect fill="white" stroke="none" x="443.2958773566991" y="512.447893062" width="105.55995645433593" height="19.602243960000003"/></g><text fill="black" stroke="none" font-family="sans-serif" font-size="10pt" font-style="normal" font-weight="normal" text-decoration="normal" x="445.55767473669914" y="526.018677342" text-anchor="start" dominant-baseline="alphabetic" xml:space="preserve">400 Bad Request</text></g><g><path fill="none" stroke="black" paint-order="fill stroke markers" d=" M 660.641286193828 532.0501370220001 L 333.3952561239063 532.0501370220001" stroke-miterlimit="10" stroke-width="1.2565541" stroke-dasharray="6.03145968"/><g transform="translate(331.51042497390625,532.0501370220001) translate(-331.51042497390625,-532.0501370220001)"><path fill="none" stroke="black" paint-order="fill stroke markers" d=" M 344.42911209672536 526.2870008814247 L 332.9230094651827 532.0501370220001 L 344.42911209672536 537.8132731625755" stroke-miterlimit="10" stroke-width="1.2565541"/></g></g><g><g><rect fill="white" stroke="none" x="762.2131890775297" y="595.380463662" width="83.88723459154296" height="19.602243960000003"/></g><text fill="black" stroke="none" font-family="sans-serif" font-size="10pt" font-style="normal" font-weight="normal" text-decoration="normal" x="764.4749864575297" y="608.951247942" text-anchor="start" dominant-baseline="alphabetic" xml:space="preserve">insert_ticket()</text></g><g><path fill="none" stroke="black" paint-order="fill stroke markers" d=" M 675.719935393828 614.982707622 L 920.1789228447743 614.982707622" stroke-miterlimit="10" stroke-width="1.2565541" stroke-dasharray=""/><g transform="translate(932.5936773527743,614.982707622) translate(-932.5936773527743,-614.982707622)"><path fill="black" stroke="none" paint-order="stroke fill markers" d=" M 920.0281363527743 608.699937122 L 932.5936773527743 614.982707622 L 920.0281363527743 621.265478122 Z"/></g></g><g><g><rect fill="white" stroke="none" x="801.8950089933012" y="637.600681422" width="4.52359476" height="19.602243960000003"/></g><text fill="black" stroke="none" font-family="sans-serif" font-size="10pt" font-style="normal" font-weight="normal" text-decoration="normal" x="804.1568063733012" y="651.171465702" text-anchor="start" dominant-baseline="alphabetic" xml:space="preserve"></text></g><g><path fill="none" stroke="black" paint-order="fill stroke markers" d=" M 932.5936773527743 657.202925382 L 677.604766543828 657.202925382" stroke-miterlimit="10" stroke-width="1.2565541" stroke-dasharray="6.03145968"/><g transform="translate(675.719935393828,657.202925382) translate(-675.719935393828,-657.202925382)"><path fill="none" stroke="black" paint-order="fill stroke markers" d=" M 688.6386225166472 651.4397892414246 L 677.1325198851044 657.202925382 L 688.6386225166472 662.9660615225754" stroke-miterlimit="10" stroke-width="1.2565541"/></g></g><g><g><rect fill="white" stroke="none" x="770.7131909848783" y="679.820899182" width="66.8872307768457" height="19.602243960000003"/></g><text fill="black" stroke="none" font-family="sans-serif" font-size="10pt" font-style="normal" font-weight="normal" text-decoration="normal" x="772.9749883648783" y="693.391683462" text-anchor="start" dominant-baseline="alphabetic" xml:space="preserve">log_entry()</text></g><g><path fill="none" stroke="black" paint-order="fill stroke markers" d=" M 675.719935393828 699.423143142 L 920.1789228447743 699.423143142" stroke-miterlimit="10" stroke-width="1.2565541" stroke-dasharray=""/><g transform="translate(932.5936773527743,699.423143142) translate(-932.5936773527743,-699.423143142)"><path fill="black" stroke="none" paint-order="stroke fill markers" d=" M 920.0281363527743 693.140372642 L 932.5936773527743 699.423143142 L 920.0281363527743 705.7059136419999 Z"/></g></g><g><g><rect fill="white" stroke="none" x="801.8950089933012" y="722.0411169419999" width="4.52359476" height="19.602243960000003"/></g><text fill="black" stroke="none" font-family="sans-serif" font-size="10pt" font-style="normal" font-weight="normal" text-decoration="normal" x="804.1568063733012" y="735.6119012219999" text-anchor="start" dominant-baseline="alphabetic" xml:space="preserve"></text></g><g><path fill="none" stroke="black" paint-order="fill stroke markers" d=" M 932.5936773527743 741.6433609019999 L 677.604766543828 741.6433609019999" stroke-miterlimit="10" stroke-width="1.2565541" stroke-dasharray="6.03145968"/><g transform="translate(675.719935393828,741.6433609019999) translate(-675.719935393828,-741.6433609019999)"><path fill="none" stroke="black" paint-order="fill stroke markers" d=" M 688.6386225166472 735.8802247614245 L 677.1325198851044 741.6433609019999 L 688.6386225166472 747.4064970425753" stroke-miterlimit="10" stroke-width="1.2565541"/></g></g><g><g><rect fill="white" stroke="none" x="388.9595126106054" y="764.2613347019999" width="214.23268594652345" height="19.602243960000003"/></g><text fill="black" stroke="none" font-family="sans-serif" font-size="10pt" font-style="normal" font-weight="normal" text-decoration="normal" x="391.2213099906054" y="777.8321189819999" text-anchor="start" dominant-baseline="alphabetic" xml:space="preserve">200 OK (uid, shop_id, start_time, ...)</text></g><g><path fill="none" stroke="black" paint-order="fill stroke markers" d=" M 660.641286193828 783.8635786619999 L 333.3952561239063 783.8635786619999" stroke-miterlimit="10" stroke-width="1.2565541" stroke-dasharray="6.03145968"/><g transform="translate(331.51042497390625,783.8635786619999) translate(-331.51042497390625,-783.8635786619999)"><path fill="none" stroke="black" paint-order="fill stroke markers" d=" M 344.42911209672536 778.1004425214245 L 332.9230094651827 783.8635786619999 L 344.42911209672536 789.6267148025753" stroke-miterlimit="10" stroke-width="1.2565541"/></g></g><g><g><rect fill="white" stroke="none" x="178.59238597200687" y="806.4815524619999" width="66.30541314989257" height="19.602243960000003"/></g><text fill="black" stroke="none" font-family="sans-serif" font-size="10pt" font-style="normal" font-weight="normal" text-decoration="normal" x="180.85418335200686" y="820.0523367419999" text-anchor="start" dominant-baseline="alphabetic" xml:space="preserve">allow entry</text></g><g><path fill="none" stroke="black" paint-order="fill stroke markers" d=" M 316.4317757739063 826.0837964219999 L 119.47316382800001 826.0837964219999" stroke-miterlimit="10" stroke-width="1.2565541" stroke-dasharray="6.03145968"/><g transform="translate(107.05840932000001,826.0837964219999) translate(-107.05840932000001,-826.0837964219999)"><path fill="black" stroke="none" paint-order="stroke fill markers" d=" M 119.62395032 819.8010259219999 L 107.05840932000001 826.0837964219999 L 119.62395032 832.3665669219998 Z"/></g></g><g><g><rect fill="white" stroke="none" x="124.90147754" y="848.7017702219998" width="61.28723230272461" height="19.602243960000003"/></g><text fill="black" stroke="none" font-family="sans-serif" font-size="10pt" font-style="normal" font-weight="normal" text-decoration="normal" x="127.16327492" y="862.2725545019998" text-anchor="start" dominant-baseline="alphabetic" xml:space="preserve">visit Shop</text></g><g><path fill="none" stroke="black" paint-order="fill stroke markers" d=" M 107.05840932000001 868.3040141819998 L 167.37300612 868.3040141819998 L 167.37300612 887.9062581419998 L 119.47316382800001 887.9062581419998" stroke-miterlimit="10" stroke-width="1.2565541" stroke-dasharray=""/><g transform="translate(107.05840932000001,887.9062581419998) translate(-107.05840932000001,-887.9062581419998)"><path fill="black" stroke="none" paint-order="stroke fill markers" d=" M 119.62395032 881.6234876419999 L 107.05840932000001 887.9062581419998 L 119.62395032 894.1890286419998 Z"/></g></g><g><g><rect fill="white" stroke="none" x="124.90147754000002" y="910.5242319419998" width="173.68723001390626" height="19.602243960000003"/></g><text fill="black" stroke="none" font-family="sans-serif" font-size="10pt" font-style="normal" font-weight="normal" text-decoration="normal" x="127.16327492000002" y="924.0950162219998" text-anchor="start" dominant-baseline="alphabetic" xml:space="preserve">show substitute ticket, on exit</text></g><g><path fill="none" stroke="black" paint-order="fill stroke markers" d=" M 107.05840932000001 930.1264759019998 L 304.0170212659063 930.1264759019998" stroke-miterlimit="10" stroke-width="1.2565541" stroke-dasharray=""/><g transform="translate(316.4317757739063,930.1264759019998) translate(-316.4317757739063,-930.1264759019998)"><path fill="black" stroke="none" paint-order="stroke fill markers" d=" M 303.8662347739063 923.8437054019998 L 316.4317757739063 930.1264759019998 L 303.8662347739063 936.4092464019998 Z"/></g></g><g><g><rect fill="white" stroke="none" x="356.89281779390626" y="952.7444497019998" width="87.21450509935546" height="19.602243960000003"/></g><text fill="black" stroke="none" font-family="sans-serif" font-size="10pt" font-style="normal" font-weight="normal" text-decoration="normal" x="359.1546151739063" y="966.3152339819998" text-anchor="start" dominant-baseline="alphabetic" xml:space="preserve">scan QR code</text></g><g><path fill="none" stroke="black" paint-order="fill stroke markers" d=" M 331.51042497390625 972.3466936619998 L 399.3643463739063 972.3466936619998 L 399.3643463739063 991.9489376219998 L 351.4645040819063 991.9489376219998" stroke-miterlimit="10" stroke-width="1.2565541" stroke-dasharray=""/><g transform="translate(339.0497495739063,991.9489376219998) translate(-339.0497495739063,-991.9489376219998)"><path fill="black" stroke="none" paint-order="stroke fill markers" d=" M 351.6152905739063 985.6661671219998 L 339.0497495739063 991.9489376219998 L 351.6152905739063 998.2317081219998 Z"/></g></g><g><g><rect fill="white" stroke="none" x="359.12315549390615" y="1014.5669114219999" width="273.90540017992186" height="19.602243960000003"/></g><text fill="black" stroke="none" font-family="sans-serif" font-size="10pt" font-style="normal" font-weight="normal" text-decoration="normal" x="361.3849528739062" y="1028.137695702" text-anchor="start" dominant-baseline="alphabetic" xml:space="preserve">POST /staff/shop/{shop_id}/token/log-exit (uid)</text></g><g><path fill="none" stroke="black" paint-order="fill stroke markers" d=" M 331.51042497390625 1034.1691553819999 L 648.226531685828 1034.1691553819999" stroke-miterlimit="10" stroke-width="1.2565541" stroke-dasharray=""/><g transform="translate(660.641286193828,1034.1691553819999) translate(-660.641286193828,-1034.1691553819999)"><path fill="black" stroke="none" paint-order="stroke fill markers" d=" M 648.075745193828 1027.886384882 L 660.641286193828 1034.1691553819999 L 648.075745193828 1040.4519258819998 Z"/></g></g><g><g><rect fill="white" stroke="none" x="701.2953521093847" y="1056.787129182" width="99.45086374193359" height="19.602243960000003"/></g><text fill="black" stroke="none" font-family="sans-serif" font-size="10pt" font-style="normal" font-weight="normal" text-decoration="normal" x="703.5571494893846" y="1070.357913462" text-anchor="start" dominant-baseline="alphabetic" xml:space="preserve">check_session()</text></g><g><path fill="none" stroke="black" paint-order="fill stroke markers" d=" M 675.719935393828 1076.3893731419998 L 813.9068780588749 1076.3893731419998" stroke-miterlimit="10" stroke-width="1.2565541" stroke-dasharray=""/><g transform="translate(826.3216325668749,1076.3893731419998) translate(-826.3216325668749,-1076.3893731419998)"><path fill="black" stroke="none" paint-order="stroke fill markers" d=" M 813.7560915668748 1070.1066026419999 L 826.3216325668749 1076.3893731419998 L 813.7560915668748 1082.6721436419998 Z"/></g></g><g><g><rect fill="white" stroke="none" x="748.7589866003515" y="1099.007346942" width="4.52359476" height="19.602243960000003"/></g><text fill="black" stroke="none" font-family="sans-serif" font-size="10pt" font-style="normal" font-weight="normal" text-decoration="normal" x="751.0207839803514" y="1112.578131222" text-anchor="start" dominant-baseline="alphabetic" xml:space="preserve"></text></g><g><path fill="none" stroke="black" paint-order="fill stroke markers" d=" M 826.3216325668749 1118.6095909019998 L 677.604766543828 1118.6095909019998" stroke-miterlimit="10" stroke-width="1.2565541" stroke-dasharray="6.03145968"/><g transform="translate(675.719935393828,1118.6095909019998) translate(-675.719935393828,-1118.6095909019998)"><path fill="none" stroke="black" paint-order="fill stroke markers" d=" M 688.6386225166472 1112.8464547614244 L 677.1325198851044 1118.6095909019998 L 688.6386225166472 1124.3727270425752" stroke-miterlimit="10" stroke-width="1.2565541"/></g></g><g><g><rect fill="white" stroke="none" x="760.4677361966703" y="1141.2275647019999" width="87.37814035326171" height="19.602243960000003"/></g><text fill="black" stroke="none" font-family="sans-serif" font-size="10pt" font-style="normal" font-weight="normal" text-decoration="normal" x="762.7295335766703" y="1154.7983489819999" text-anchor="start" dominant-baseline="alphabetic" xml:space="preserve">check_token()</text></g><g><path fill="none" stroke="black" paint-order="fill stroke markers" d=" M 675.719935393828 1160.8298086619998 L 920.1789228447743 1160.8298086619998" stroke-miterlimit="10" stroke-width="1.2565541" stroke-dasharray=""/><g transform="translate(932.5936773527743,1160.8298086619998) translate(-932.5936773527743,-1160.8298086619998)"><path fill="black" stroke="none" paint-order="stroke fill markers" d=" M 920.0281363527743 1154.5470381619998 L 932.5936773527743 1160.8298086619998 L 920.0281363527743 1167.1125791619997 Z"/></g></g><g><g><rect fill="white" stroke="none" x="801.8950089933012" y="1183.4477824619999" width="4.52359476" height="19.602243960000003"/></g><text fill="black" stroke="none" font-family="sans-serif" font-size="10pt" font-style="normal" font-weight="normal" text-decoration="normal" x="804.1568063733012" y="1197.0185667419998" text-anchor="start" dominant-baseline="alphabetic" xml:space="preserve"></text></g><g><path fill="none" stroke="black" paint-order="fill stroke markers" d=" M 932.5936773527743 1203.0500264219997 L 677.604766543828 1203.0500264219997" stroke-miterlimit="10" stroke-width="1.2565541" stroke-dasharray="6.03145968"/><g transform="translate(675.719935393828,1203.0500264219997) translate(-675.719935393828,-1203.0500264219997)"><path fill="none" stroke="black" paint-order="fill stroke markers" d=" M 688.6386225166472 1197.2868902814243 L 677.1325198851044 1203.0500264219997 L 688.6386225166472 1208.8131625625751" stroke-miterlimit="10" stroke-width="1.2565541"/></g></g><g><g><rect fill="white" stroke="none" x="775.0313729764555" y="1225.6680002219998" width="58.25086679369141" height="19.602243960000003"/></g><text fill="black" stroke="none" font-family="sans-serif" font-size="10pt" font-style="normal" font-weight="normal" text-decoration="normal" x="777.2931703564554" y="1239.2387845019998" text-anchor="start" dominant-baseline="alphabetic" xml:space="preserve">log_exit()</text></g><g><path fill="none" stroke="black" paint-order="fill stroke markers" d=" M 675.719935393828 1245.2702441819997 L 920.1789228447743 1245.2702441819997" stroke-miterlimit="10" stroke-width="1.2565541" stroke-dasharray=""/><g transform="translate(932.5936773527743,1245.2702441819997) translate(-932.5936773527743,-1245.2702441819997)"><path fill="black" stroke="none" paint-order="stroke fill markers" d=" M 920.0281363527743 1238.9874736819997 L 932.5936773527743 1245.2702441819997 L 920.0281363527743 1251.5530146819997 Z"/></g></g><g><g><rect fill="white" stroke="none" x="801.8950089933012" y="1267.8882179819998" width="4.52359476" height="19.602243960000003"/></g><text fill="black" stroke="none" font-family="sans-serif" font-size="10pt" font-style="normal" font-weight="normal" text-decoration="normal" x="804.1568063733012" y="1281.4590022619998" text-anchor="start" dominant-baseline="alphabetic" xml:space="preserve"></text></g><g><path fill="none" stroke="black" paint-order="fill stroke markers" d=" M 932.5936773527743 1287.4904619419997 L 677.604766543828 1287.4904619419997" stroke-miterlimit="10" stroke-width="1.2565541" stroke-dasharray="6.03145968"/><g transform="translate(675.719935393828,1287.4904619419997) translate(-675.719935393828,-1287.4904619419997)"><path fill="none" stroke="black" paint-order="fill stroke markers" d=" M 688.6386225166472 1281.7273258014243 L 677.1325198851044 1287.4904619419997 L 688.6386225166472 1293.253598082575" stroke-miterlimit="10" stroke-width="1.2565541"/></g></g><g><g><rect fill="white" stroke="none" x="471.3049677802831" y="1310.1084357419998" width="49.54177560716797" height="19.602243960000003"/></g><text fill="black" stroke="none" font-family="sans-serif" font-size="10pt" font-style="normal" font-weight="normal" text-decoration="normal" x="473.5667651602831" y="1323.6792200219998" text-anchor="start" dominant-baseline="alphabetic" xml:space="preserve">200 OK</text></g><g><path fill="none" stroke="black" paint-order="fill stroke markers" d=" M 660.641286193828 1329.7106797019997 L 333.3952561239063 1329.7106797019997" stroke-miterlimit="10" stroke-width="1.2565541" stroke-dasharray="6.03145968"/><g transform="translate(331.51042497390625,1329.7106797019997) translate(-331.51042497390625,-1329.7106797019997)"><path fill="none" stroke="black" paint-order="fill stroke markers" d=" M 344.42911209672536 1323.9475435614243 L 332.9230094651827 1329.7106797019997 L 344.42911209672536 1335.473815842575" stroke-miterlimit="10" stroke-width="1.2565541"/></g></g><g><g><rect fill="white" stroke="none" x="182.91056796358401" y="1352.3286535019997" width="57.66904916673828" height="19.602243960000003"/></g><text fill="black" stroke="none" font-family="sans-serif" font-size="10pt" font-style="normal" font-weight="normal" text-decoration="normal" x="185.172365343584" y="1365.8994377819997" text-anchor="start" dominant-baseline="alphabetic" xml:space="preserve">allow exit</text></g><g><path fill="none" stroke="black" paint-order="fill stroke markers" d=" M 316.4317757739063 1371.9308974619996 L 119.47316382800001 1371.9308974619996" stroke-miterlimit="10" stroke-width="1.2565541" stroke-dasharray="6.03145968"/><g transform="translate(107.05840932000001,1371.9308974619996) translate(-107.05840932000001,-1371.9308974619996)"><path fill="black" stroke="none" paint-order="stroke fill markers" d=" M 119.62395032 1365.6481269619997 L 107.05840932000001 1371.9308974619996 L 119.62395032 1378.2136679619996 Z"/></g></g><g><g/><path fill="none" stroke="black" paint-order="fill stroke markers" d=" M 39.204487920000005 471.7355402220001 L 992.9082741527743 471.7355402220001 L 992.9082741527743 1394.5488712619997 L 39.204487920000005 1394.5488712619997 L 39.204487920000005 471.7355402220001 Z" stroke-miterlimit="10" stroke-width="2.154092742857143" stroke-dasharray=""/><path fill="white" stroke="black" paint-order="fill stroke markers" d=" M 39.204487920000005 471.7355402220001 L 39.204487920000005 489.8299192620001 L 81.87087769725831 489.8299192620001 L 90.91806721725831 480.78272974200013 L 90.91806721725831 471.7355402220001 L 39.204487920000005 471.7355402220001" stroke-miterlimit="10" stroke-width="2.154092742857143" stroke-dasharray=""/><text fill="black" stroke="none" font-family="sans-serif" font-size="8pt" font-style="normal" font-weight="bold" text-decoration="normal" x="54.283137120000006" y="483.7984595820001" text-anchor="start" dominant-baseline="alphabetic" xml:space="preserve">alt</text><text fill="black" stroke="none" font-family="sans-serif" font-size="8pt" font-style="normal" font-weight="bold" text-decoration="normal" x="105.99671641725831" y="483.7984595820001" text-anchor="start" dominant-baseline="alphabetic" xml:space="preserve">[waiting list is full]</text><g><path fill="none" stroke="black" paint-order="fill stroke markers" d=" M 39.204487920000005 554.668110822 L 992.9082741527743 554.668110822" stroke-miterlimit="10" stroke-width="2.154092742857143" stroke-dasharray="3.7696623000000002"/></g><g/><text fill="black" stroke="none" font-family="sans-serif" font-size="8pt" font-style="normal" font-weight="bold" text-decoration="normal" x="105.99671641725831" y="566.731030182" text-anchor="start" dominant-baseline="alphabetic" xml:space="preserve">[waiting list is not full]</text></g><g/></g><g/></g></svg>